{"glyphs":{":":{"x_min":0,"x_max":186,"ha":186,"o":"m 127 448 b 126 453 126 457 127 462 l 127 476 b 110 488 92 487 73 487 b 71 484 67 480 62 475 l 62 461 b 62 456 61 452 59 448 b 58 446 57 444 57 442 b 57 439 57 437 56 434 b 59 431 60 427 59 424 b 58 421 58 417 59 414 b 61 410 62 406 62 402 b 61 398 61 394 62 391 b 75 379 87 373 96 374 b 111 375 125 379 132 391 b 131 396 131 401 131 406 b 131 411 130 415 129 420 b 128 425 127 429 127 434 z m 92 425 l 93 425 b 94 424 94 422 94 420 l 92 420 z m 127 74 b 126 79 126 83 127 88 l 127 102 b 110 114 92 113 73 113 b 71 110 67 106 62 101 l 62 87 b 62 82 61 78 59 74 b 58 72 57 70 57 68 b 57 65 57 63 56 60 b 59 57 60 53 59 50 b 58 47 58 43 59 40 b 61 36 62 32 62 28 b 61 24 61 20 62 17 b 75 5 87 -1 96 0 b 111 1 125 5 132 17 b 131 22 131 27 131 32 b 131 37 130 41 129 46 b 128 51 127 55 127 60 z m 92 51 l 93 51 b 94 50 94 48 94 46 l 92 46 z"},"$":{"x_min":0,"x_max":305,"ha":305,"o":"m 277 544 b 274 552 270 561 273 570 l 273 585 b 272 594 269 602 266 610 b 259 623 256 631 252 637 b 248 643 243 647 232 658 b 231 659 230 661 229 662 l 226 664 b 219 665 209 668 204 671 l 195 674 b 186 677 181 680 174 687 l 166 693 b 163 695 160 697 157 700 b 152 695 150 692 149 690 b 144 679 135 673 124 672 b 122 669 120 667 117 668 b 114 669 112 668 109 667 b 88 656 66 646 57 618 b 57 613 57 605 50 598 b 50 595 50 593 51 590 b 52 587 51 584 50 582 b 47 577 46 573 47 569 b 48 565 48 561 47 557 b 45 549 44 541 44 532 b 43 529 44 527 45 525 b 46 522 46 520 46 517 b 46 514 46 511 45 509 b 44 506 44 503 43 500 l 43 495 b 46 490 48 486 47 482 b 46 477 46 472 47 467 b 47 464 47 461 48 459 b 50 454 53 448 56 443 b 59 437 61 431 62 425 b 63 420 66 416 69 413 b 72 410 74 406 76 403 b 89 383 103 364 118 346 b 121 342 125 338 128 333 b 131 328 135 324 138 319 b 147 304 150 290 151 275 b 152 260 155 244 148 229 b 144 218 147 209 150 200 b 151 198 151 196 152 194 b 153 192 152 190 151 189 b 148 186 147 184 148 181 b 149 178 149 175 148 172 b 148 169 148 166 149 163 b 150 160 149 157 148 154 b 146 151 145 147 146 144 b 146 140 145 136 144 133 b 143 129 142 125 142 121 b 142 113 141 109 137 105 l 124 105 l 113 116 b 112 120 111 124 112 128 b 113 132 112 136 109 140 b 108 141 108 143 109 146 b 110 149 110 151 110 154 l 113 165 b 114 168 113 171 112 174 b 110 177 109 181 109 185 l 109 195 b 109 206 109 213 112 224 b 113 229 113 235 112 240 b 110 245 109 251 108 256 b 103 257 99 259 95 261 b 91 262 87 264 82 265 b 79 263 77 262 74 263 b 71 263 67 263 64 262 b 59 261 53 260 47 257 b 39 245 39 245 42 238 b 41 231 40 226 40 222 b 41 214 39 207 32 200 b 36 197 38 193 38 190 b 37 183 35 178 34 174 b 33 172 33 170 34 169 b 36 166 37 164 37 162 b 36 157 38 152 39 148 b 40 145 40 143 40 140 l 40 133 b 40 131 39 129 37 126 b 35 123 35 121 37 118 b 39 115 40 111 40 108 b 40 95 45 83 52 72 b 66 49 86 34 113 26 b 117 25 121 23 125 22 b 129 21 133 18 136 14 b 141 7 149 2 160 0 l 178 18 b 182 23 187 26 194 26 l 201 29 b 208 30 214 33 219 36 b 229 43 246 56 254 68 b 262 80 273 108 273 129 b 272 141 272 153 273 165 b 274 177 272 189 269 201 b 269 202 269 203 270 204 b 270 204 270 205 270 206 l 272 209 b 272 209 272 210 273 211 b 273 214 273 218 274 222 b 274 226 273 229 272 232 b 270 235 269 239 269 243 b 269 246 268 250 267 253 b 266 258 265 264 265 269 l 262 283 b 257 290 253 297 249 304 b 244 310 240 317 236 324 l 230 333 l 194 372 b 179 387 175 397 178 420 b 178 423 178 424 177 424 b 174 426 173 428 174 431 b 175 435 174 440 173 444 b 172 446 172 448 172 449 b 175 457 175 464 175 474 b 174 479 174 484 175 489 b 175 494 176 498 177 503 b 174 508 173 513 175 519 b 176 524 175 529 171 534 l 173 537 b 174 538 174 539 174 540 b 174 545 175 550 177 555 b 178 559 179 564 178 569 b 177 572 178 574 179 577 l 182 583 l 192 583 b 200 575 201 572 203 565 l 206 554 l 205 553 l 204 552 b 205 547 205 542 204 537 b 203 532 204 527 207 522 b 208 521 209 519 209 516 b 209 513 208 511 207 510 b 204 507 203 504 204 502 l 204 493 l 204 467 l 213 458 b 217 453 223 449 234 446 b 238 449 242 450 246 449 b 250 448 254 446 258 445 b 259 447 261 449 263 450 b 264 451 266 453 267 455 b 270 458 272 462 272 466 l 275 484 b 276 490 277 496 276 502 b 275 507 275 512 275 517 b 275 522 276 527 279 532 b 280 535 278 540 277 544 z m 194 606 b 191 606 189 607 188 608 l 184 612 b 184 614 184 616 183 617 l 183 615 b 182 616 182 618 183 620 b 182 623 180 625 179 626 l 173 626 l 167 620 l 155 620 b 155 623 155 625 156 626 b 157 625 159 625 160 625 b 161 624 163 624 164 623 l 164 627 b 157 630 154 636 155 644 b 157 646 160 648 163 649 l 174 638 l 172 634 b 173 629 176 628 179 629 b 182 630 186 630 189 629 b 191 626 193 622 194 619 b 193 616 192 615 192 615 b 192 613 193 610 194 606 z m 179 649 b 182 646 184 643 186 639 l 190 639 l 193 641 b 193 641 194 641 195 642 l 200 642 b 199 637 195 636 192 636 b 188 635 184 634 183 630 b 182 633 181 636 180 639 l 177 648 b 178 648 179 648 179 649 z m 125 640 b 127 639 131 635 136 630 l 136 622 b 137 623 138 623 139 623 b 140 622 140 622 141 623 b 142 624 143 626 144 628 b 144 629 144 631 145 632 l 157 632 b 154 629 151 627 150 626 b 148 625 146 623 143 621 b 144 620 146 620 147 620 b 148 619 150 619 151 618 b 151 613 151 611 155 607 b 154 606 153 606 152 606 l 150 606 b 147 609 145 612 142 616 l 142 606 b 140 607 138 609 137 611 b 134 614 132 616 129 616 b 128 616 126 616 125 617 b 126 621 128 625 129 629 b 128 630 127 632 126 633 l 122 637 z m 206 635 l 209 628 b 205 631 202 632 200 633 b 203 636 205 637 206 635 z m 110 632 l 123 632 b 122 627 118 624 113 623 b 110 624 108 626 108 627 b 108 628 109 630 110 632 z m 118 620 l 117 619 b 116 620 116 621 116 621 b 117 621 118 621 118 620 z m 183 620 l 183 617 b 184 618 184 619 184 621 z m 204 596 l 203 595 b 203 594 203 594 202 593 l 201 594 l 204 597 b 203 599 202 601 200 600 b 198 599 196 599 195 600 b 198 607 200 613 203 621 l 203 609 b 206 605 207 603 210 600 b 209 599 207 597 204 596 z m 211 619 l 213 619 l 213 616 l 211 616 z m 107 617 b 108 615 110 613 113 610 b 109 610 106 609 102 608 l 104 606 b 104 605 105 605 106 604 b 99 601 98 606 95 610 b 99 613 102 614 107 617 z m 174 613 l 168 613 l 168 615 b 169 615 170 615 171 616 l 174 616 z m 237 603 b 235 603 233 603 231 602 b 230 601 230 600 230 600 b 230 599 230 598 229 597 l 223 597 b 224 600 226 603 227 607 b 226 608 226 608 226 609 l 223 612 b 224 613 226 613 228 614 b 229 615 231 615 232 616 b 233 615 233 615 233 615 l 230 611 b 235 608 239 607 244 606 l 243 604 b 241 603 239 603 237 603 z m 164 610 l 159 610 b 158 610 158 611 158 612 l 164 613 z m 181 605 l 179 602 b 178 604 178 606 178 607 b 178 608 178 610 177 612 b 178 611 179 611 180 611 b 181 611 181 611 182 610 b 182 607 182 606 181 605 z m 220 610 l 217 610 l 217 612 l 220 612 z m 138 601 l 137 600 l 136 600 b 131 601 127 602 119 605 b 122 606 125 606 128 606 l 133 606 b 134 605 135 604 136 604 z m 145 604 l 144 603 l 141 606 b 144 605 145 604 145 604 z m 162 600 b 161 600 160 600 159 599 l 159 602 l 164 602 l 164 601 b 163 600 162 600 162 600 z m 149 593 l 149 600 l 151 600 l 151 593 z m 168 593 l 168 599 b 169 599 169 599 169 600 l 170 600 b 171 597 172 595 172 593 z m 98 599 b 99 598 99 597 100 596 l 102 593 b 103 592 105 591 106 590 l 110 587 b 108 584 105 581 100 576 b 99 577 99 579 98 580 l 96 583 b 95 582 95 582 94 582 b 93 582 93 582 92 581 l 95 577 b 95 575 96 573 97 571 l 92 571 b 90 570 88 570 86 570 b 87 574 88 577 88 579 b 87 579 86 581 86 582 l 89 585 l 82 592 b 89 595 93 596 98 599 z m 208 589 l 211 599 l 217 599 b 217 593 214 590 208 589 z m 204 597 b 204 597 204 596 204 596 z m 80 586 l 82 586 l 82 583 l 80 583 z m 242 580 l 241 580 l 241 583 l 242 583 z m 124 571 l 133 580 b 140 581 144 579 145 574 b 145 571 146 568 147 565 b 148 562 149 558 148 555 b 147 550 147 546 148 542 l 148 528 b 148 521 147 515 146 508 b 145 505 144 501 144 498 b 144 494 145 490 148 486 b 149 483 150 480 149 477 b 148 474 148 470 148 467 b 145 464 143 462 141 462 b 138 462 135 462 132 463 b 131 465 129 467 128 470 b 126 472 124 475 122 478 l 122 504 b 121 507 121 511 120 515 b 119 518 118 522 118 525 b 119 528 119 532 119 536 b 119 540 118 544 116 547 b 113 550 121 568 124 571 z m 242 567 l 241 567 l 241 573 l 242 573 z m 89 564 l 79 554 b 80 560 83 563 89 564 z m 243 541 b 245 543 247 544 248 545 l 252 548 b 253 546 253 544 253 541 z m 82 534 l 82 527 l 80 527 l 80 534 z m 75 505 b 74 505 74 505 73 506 l 80 513 l 77 524 l 86 524 b 85 522 83 520 82 517 b 83 515 84 514 86 513 l 77 504 b 76 505 76 505 75 505 z m 95 511 l 95 508 l 94 508 l 94 511 z m 91 505 l 91 501 l 90 501 l 90 505 z m 83 478 b 82 477 81 476 81 475 l 80 476 b 81 477 81 477 81 478 b 81 478 81 478 82 479 l 83 478 l 83 490 l 80 492 b 79 492 77 492 76 493 b 78 495 80 496 81 497 b 82 496 84 496 85 496 b 86 495 88 494 89 493 l 86 489 b 87 485 89 482 90 479 l 87 479 b 86 478 84 478 83 478 z m 94 475 l 99 475 l 97 472 b 96 470 95 467 96 465 l 96 460 l 90 466 b 91 470 93 473 94 475 z m 114 452 l 114 449 l 113 449 l 113 452 z m 124 443 b 124 442 124 441 125 441 l 125 439 l 125 437 b 124 436 122 436 121 435 b 119 434 117 434 116 433 b 115 438 118 442 124 443 z m 111 427 b 108 432 106 436 103 440 b 100 437 99 435 98 432 l 96 434 b 97 435 97 437 98 438 b 98 439 98 441 99 442 l 111 442 z m 132 442 l 135 442 l 135 436 l 133 436 l 133 439 b 132 440 132 441 132 442 z m 120 427 b 123 428 125 430 127 432 b 128 427 128 427 120 427 z m 146 429 b 143 426 140 423 139 421 l 136 425 b 135 426 134 427 133 429 z m 102 424 l 99 424 l 99 425 l 102 425 z m 148 422 b 149 422 150 422 151 423 l 151 420 l 146 420 l 145 421 b 146 422 147 422 148 422 z m 134 399 b 133 402 131 405 128 409 l 131 415 b 132 416 133 418 134 420 l 137 420 b 138 419 138 417 138 416 b 138 414 138 412 139 411 b 139 410 140 410 141 410 b 142 410 142 410 142 409 z m 113 412 l 113 413 b 113 420 118 419 113 412 z m 110 410 b 110 411 110 411 109 411 b 110 411 110 411 110 412 l 111 412 b 111 411 111 410 110 410 z m 122 400 b 121 398 119 397 116 397 l 116 399 b 117 399 118 399 119 400 l 122 400 l 122 406 l 121 407 b 120 407 120 407 119 408 l 120 409 l 122 407 l 122 406 b 123 405 125 404 126 403 l 129 400 b 131 398 133 396 135 393 b 135 393 134 390 133 384 b 128 391 125 395 122 400 z m 142 399 l 145 399 l 145 398 l 142 398 z m 160 387 l 146 387 l 144 389 b 145 390 147 390 148 391 b 149 391 151 391 153 392 b 154 392 154 392 155 391 b 156 390 157 388 160 387 z m 148 379 l 148 378 l 145 378 l 145 379 z m 135 371 l 133 371 l 132 376 l 135 376 z m 143 375 b 145 371 147 368 150 365 b 143 368 143 367 143 375 z m 161 369 b 162 370 163 370 164 370 l 164 364 l 162 364 b 162 367 162 368 161 369 z m 168 358 l 165 358 l 165 359 l 168 359 z m 145 355 l 145 356 l 151 356 l 151 355 z m 152 348 l 151 349 b 152 350 154 350 155 351 b 156 351 157 351 158 352 l 158 348 z m 179 347 l 180 347 l 180 344 l 179 344 z m 179 336 l 182 332 b 180 331 178 331 175 331 l 175 334 b 175 335 174 337 173 340 z m 186 339 b 187 336 189 334 190 331 l 185 331 b 184 331 184 334 186 339 z m 168 327 l 171 327 l 171 322 b 170 322 170 322 169 321 l 169 324 b 168 325 168 326 168 327 z m 188 318 l 188 324 l 190 324 l 190 318 z m 199 316 b 201 316 203 317 204 318 b 204 319 205 320 206 321 l 207 320 l 204 317 b 205 314 204 312 202 311 b 199 309 197 307 195 304 l 195 309 b 194 312 195 315 199 316 z m 204 317 b 204 317 204 318 204 318 z m 215 305 b 216 305 218 305 219 305 l 221 303 l 214 299 l 210 304 b 212 304 214 304 215 305 z m 201 304 b 202 305 203 304 204 302 l 204 298 l 210 298 l 210 292 l 204 292 l 204 298 b 202 299 201 301 201 304 z m 191 303 l 187 303 l 187 304 l 191 304 z m 218 288 l 218 295 l 219 295 l 219 288 z m 196 286 b 198 285 200 283 203 282 b 204 283 204 285 204 286 b 204 287 205 288 206 291 l 209 283 b 210 281 210 279 211 277 l 209 275 b 208 276 206 278 204 279 b 203 278 202 278 201 277 l 198 275 b 199 270 201 266 202 263 b 203 264 205 264 206 265 b 207 265 208 265 209 266 l 211 264 b 210 263 208 262 207 262 b 205 261 203 260 201 259 l 208 255 b 209 254 211 252 214 250 b 210 249 207 249 205 249 l 200 249 b 198 252 197 254 196 256 l 192 260 b 195 271 193 272 188 277 b 189 279 192 282 196 286 z m 184 285 b 184 284 184 284 184 283 l 183 283 b 182 282 182 282 181 282 l 181 288 l 183 288 b 183 287 183 286 184 285 z m 228 263 b 233 260 238 258 241 257 l 231 252 b 226 253 223 256 222 260 b 220 264 217 267 213 268 b 214 268 215 268 216 269 l 219 269 b 220 273 221 276 221 279 l 223 279 b 226 274 227 270 228 263 z m 230 271 l 233 271 l 233 270 l 230 270 z m 216 254 b 215 254 213 255 211 257 b 212 260 214 262 216 264 z m 218 251 b 222 251 224 250 228 247 b 223 246 220 247 218 251 z m 248 212 b 245 213 243 214 242 214 b 241 214 241 214 240 215 b 237 216 235 216 232 216 b 229 219 228 220 227 223 b 227 220 227 218 226 217 l 224 217 b 223 216 222 216 221 216 l 221 219 b 220 220 220 221 220 222 b 222 223 224 223 227 223 b 228 224 228 226 228 228 b 228 229 228 231 229 232 b 228 232 226 232 225 233 b 224 233 222 233 221 233 l 221 236 b 220 236 220 237 220 238 b 228 241 234 238 241 233 l 237 230 b 236 229 234 229 233 228 b 234 227 234 227 234 226 b 233 225 233 225 234 224 b 235 223 236 221 237 220 l 240 216 b 241 216 241 216 241 215 b 242 216 243 216 244 216 b 245 216 246 215 248 212 z m 172 157 b 173 162 175 168 177 174 b 178 180 178 186 177 191 b 176 197 175 203 175 209 b 175 215 175 221 174 226 b 177 229 178 230 179 233 b 182 232 184 231 185 231 b 186 230 188 230 189 229 b 193 220 197 213 202 207 b 210 195 207 181 206 168 b 206 167 206 166 205 166 b 204 165 204 164 204 163 b 205 156 204 148 203 141 b 202 133 200 124 199 115 l 194 105 l 177 105 b 176 110 174 116 171 125 b 175 134 175 144 172 157 z m 241 215 l 240 215 b 241 215 241 215 242 214 b 242 215 242 215 241 215 z m 74 203 l 75 203 l 75 197 l 74 197 z m 85 200 l 85 190 b 82 194 81 196 78 199 b 80 200 82 200 85 200 z m 79 186 b 80 187 81 187 81 187 b 82 186 84 184 85 181 l 80 176 b 80 181 80 184 79 186 z m 70 152 b 70 153 70 154 71 156 b 74 153 77 151 81 148 l 69 148 b 70 149 70 151 70 152 z m 237 145 l 237 150 l 239 150 b 239 149 239 149 240 148 l 240 145 z m 90 136 l 92 133 b 84 128 82 127 77 131 l 80 134 b 81 134 82 134 83 135 b 85 135 87 136 88 137 b 89 136 89 136 90 136 z m 238 130 b 237 131 237 133 237 134 b 237 135 237 136 236 137 l 248 137 z m 70 128 l 70 130 b 71 130 71 130 72 131 l 73 131 b 73 129 72 128 70 128 z m 89 120 l 89 119 l 86 119 l 86 120 z m 222 96 b 221 98 221 100 221 101 b 220 102 220 103 220 104 b 221 105 223 105 225 105 l 227 103 b 226 100 225 99 222 96 z m 88 95 b 85 94 85 94 82 91 b 81 92 80 94 79 96 l 74 101 b 77 100 80 100 82 100 b 83 99 85 99 86 98 b 88 97 92 96 97 95 l 101 98 b 102 99 104 100 107 101 b 104 96 100 91 96 88 b 94 89 91 92 88 95 z m 111 89 b 112 88 112 87 112 86 b 112 85 112 84 113 83 l 102 83 l 102 87 b 104 87 107 88 111 89 z m 82 79 l 80 79 l 80 85 l 82 85 z m 139 82 l 141 82 l 141 79 l 139 79 z m 107 66 b 104 67 102 69 99 70 l 99 76 b 101 75 103 75 104 75 b 105 74 107 74 108 73 b 109 76 110 78 111 80 l 115 77 b 116 76 118 75 119 74 z m 168 80 l 168 76 l 162 76 l 161 77 b 162 78 164 78 165 79 b 166 79 167 79 168 80 z m 146 79 l 147 79 l 147 72 l 146 72 z m 129 78 l 132 78 l 132 77 l 129 77 z m 191 61 l 187 57 b 188 60 188 62 189 64 b 189 65 189 67 190 69 b 184 69 181 66 181 59 b 180 59 178 59 177 60 b 176 60 175 59 174 56 b 176 55 177 53 177 50 l 175 49 b 175 52 175 55 174 56 b 169 56 166 55 164 54 b 163 53 161 52 159 53 b 157 53 154 53 151 52 l 162 60 b 159 61 157 62 155 63 l 146 66 b 149 67 152 69 153 70 b 154 71 156 71 157 72 b 160 71 162 71 164 70 b 165 69 167 69 169 68 b 170 70 172 73 174 77 l 179 70 b 181 71 183 71 186 72 b 188 72 190 72 192 73 b 193 71 194 69 195 68 b 196 66 196 64 197 63 b 196 63 194 62 191 61 z m 148 51 l 143 46 l 140 52 b 143 59 142 65 136 69 b 136 68 135 66 134 63 l 128 63 b 129 70 133 73 140 72 b 146 66 149 59 148 51 z m 125 56 l 116 56 l 116 62 l 125 62 z m 183 56 b 180 59 181 60 184 57 z m 132 46 l 132 52 b 135 52 137 52 138 53 b 137 50 135 48 132 46 z"},"?":{"x_min":0,"x_max":259,"ha":259,"o":"m 226 528 l 228 531 b 223 539 222 548 227 557 l 224 564 b 223 567 223 571 224 574 b 225 577 224 581 222 584 b 220 587 220 591 221 595 b 222 598 221 602 218 605 b 219 610 219 616 217 621 b 214 626 215 632 218 637 b 215 642 213 646 211 651 b 209 655 207 659 204 663 b 197 674 191 682 179 685 b 177 685 175 686 174 687 b 165 694 154 695 143 698 b 130 701 118 701 107 696 b 104 695 100 694 96 694 b 88 694 81 691 77 690 b 68 688 62 684 59 677 b 57 673 55 670 52 668 b 49 666 46 663 43 660 b 38 654 34 648 32 641 b 30 634 27 626 24 619 b 23 616 23 613 24 610 b 26 608 27 606 27 604 l 27 598 b 26 593 27 589 28 584 b 29 579 27 575 24 570 b 23 569 23 567 24 565 b 25 556 26 550 26 547 b 26 544 25 538 24 529 b 23 526 23 524 24 522 b 25 519 25 516 26 513 l 25 512 l 24 511 b 24 506 24 502 25 498 b 25 493 24 489 23 485 b 22 482 23 479 25 477 b 26 474 26 471 24 468 l 27 465 b 28 461 30 458 31 457 l 52 457 b 59 456 66 456 73 457 b 75 457 78 458 82 459 b 93 463 98 477 93 488 b 90 495 90 500 92 503 b 97 511 95 519 94 527 b 94 534 92 541 89 549 l 90 550 b 90 551 90 551 91 551 l 91 552 b 90 557 91 563 93 568 b 95 573 96 579 95 584 b 94 588 95 592 97 595 b 98 598 100 601 101 604 b 106 615 114 619 123 624 l 142 613 b 145 602 147 592 147 583 b 146 574 146 564 147 555 l 147 552 b 152 544 151 536 148 528 b 147 523 147 519 147 515 b 146 511 146 507 145 502 b 144 501 144 501 144 501 l 144 497 b 143 496 143 494 144 493 b 146 492 147 490 147 488 b 146 486 146 484 147 483 l 147 454 b 147 439 149 426 138 413 b 137 412 136 410 136 407 l 134 399 b 132 396 130 392 129 388 b 128 384 126 380 124 377 b 120 368 116 359 111 350 b 106 341 102 331 100 321 b 98 309 94 299 88 290 b 81 282 79 272 79 263 b 78 254 76 245 73 237 b 69 228 65 219 62 210 b 63 203 62 195 59 188 b 56 180 55 172 56 163 b 63 156 70 148 82 155 b 83 156 85 156 86 156 b 87 155 89 155 90 155 l 113 155 b 118 157 122 160 125 165 b 129 174 132 183 133 191 l 136 202 b 137 205 138 209 138 214 b 138 222 141 229 145 237 b 147 240 149 244 150 247 l 150 249 b 151 254 153 259 154 264 b 155 269 157 273 160 277 b 167 285 170 293 174 302 b 181 313 188 323 191 335 b 192 341 194 347 197 353 l 203 369 b 206 374 208 378 208 383 b 208 390 209 397 212 403 b 215 409 216 415 215 422 b 218 425 220 428 219 432 b 218 435 218 439 220 442 b 221 445 222 448 222 452 b 222 455 222 459 221 462 b 220 465 221 468 224 471 b 227 474 226 477 221 480 b 224 487 226 495 225 502 b 224 509 223 517 224 524 b 225 525 225 527 226 528 z m 114 661 l 112 661 l 112 664 b 111 664 111 665 111 666 l 114 666 z m 143 658 b 138 661 136 661 129 661 l 126 654 b 125 651 122 650 118 651 b 119 654 122 658 126 663 l 134 665 b 137 665 140 665 143 666 z m 102 664 l 103 664 l 103 661 l 102 661 z m 145 651 b 147 652 149 653 151 654 l 155 657 b 156 654 158 651 160 649 b 162 646 164 644 165 641 l 161 637 b 160 635 158 633 157 632 b 156 633 156 634 156 634 b 157 637 158 639 158 640 b 158 641 157 642 156 643 b 153 646 150 648 145 651 z m 170 657 l 171 657 l 171 654 l 170 654 z m 103 645 b 102 644 100 643 98 642 b 98 639 98 637 97 634 b 94 635 92 636 91 637 b 89 637 87 638 85 639 b 86 640 86 640 86 641 b 86 641 87 641 88 642 b 85 645 83 649 80 654 l 89 651 b 91 650 93 651 94 654 b 96 653 98 653 100 652 b 101 651 103 649 106 648 z m 131 648 l 131 654 l 132 654 b 133 653 133 652 133 651 b 133 650 133 649 134 648 z m 167 648 l 168 648 l 168 644 l 167 644 z m 81 625 l 76 625 l 79 634 b 78 634 77 634 76 635 b 75 635 74 635 73 635 l 73 631 b 72 630 72 628 72 627 b 68 624 64 622 59 618 b 62 627 62 627 70 632 l 65 637 b 67 637 69 637 70 638 l 74 638 b 75 639 75 641 76 642 b 77 643 78 645 79 647 l 82 639 b 83 637 83 635 84 633 b 83 632 82 629 81 625 z m 130 642 l 124 642 l 124 644 l 130 644 z m 130 631 l 128 631 l 128 638 l 130 638 z m 181 635 b 182 634 182 632 180 627 l 177 634 b 178 635 180 635 181 635 z m 87 622 l 86 622 l 86 628 l 87 628 z m 170 624 b 171 624 171 624 172 625 l 175 625 l 175 622 l 170 622 z m 195 622 b 190 619 186 616 184 614 b 183 615 183 616 183 617 b 183 618 183 618 182 618 b 185 622 186 627 195 622 z m 73 618 l 73 622 l 74 622 l 74 618 z m 182 612 l 182 606 b 180 606 178 606 177 605 b 175 610 177 612 182 612 z m 72 610 l 72 611 l 75 611 l 75 610 z m 169 611 l 172 611 l 172 610 l 169 610 z m 78 600 l 76 600 b 75 599 74 599 73 599 l 73 602 l 78 602 z m 190 591 b 185 588 181 587 179 586 b 179 585 178 588 177 595 l 184 602 b 185 601 186 599 187 598 z m 57 593 b 58 597 60 599 64 599 b 65 598 65 598 65 597 b 65 596 66 594 67 593 z m 63 570 b 62 570 62 571 62 573 l 70 573 b 66 571 64 570 63 570 z m 189 568 l 189 572 b 190 573 191 573 194 573 b 195 572 195 571 195 571 b 195 570 195 569 196 568 z m 176 566 b 179 566 180 566 181 567 b 181 566 181 566 182 566 l 182 564 l 176 564 z m 182 554 b 186 557 189 558 192 559 l 192 554 z m 181 546 l 178 540 l 172 546 b 173 547 175 548 177 549 b 178 550 181 551 184 553 b 183 550 182 547 181 546 z m 189 541 b 188 541 187 541 186 540 l 186 547 l 191 547 b 191 546 191 546 192 545 l 192 542 b 191 541 190 541 189 541 z m 59 529 l 58 529 b 57 528 57 528 56 528 l 56 534 l 58 534 b 58 533 58 532 59 531 z m 176 532 l 176 533 b 177 534 179 534 181 534 b 181 533 181 533 182 533 l 182 532 z m 190 531 l 190 534 l 191 534 l 191 531 z m 201 529 b 200 528 200 528 199 528 l 199 534 l 200 534 b 201 533 201 532 201 531 b 201 530 201 530 202 529 z m 186 527 l 187 528 l 188 527 b 188 526 188 526 189 525 b 189 524 189 524 188 524 l 191 524 b 191 523 191 523 192 523 l 191 522 l 190 523 b 189 523 189 523 188 524 l 189 525 b 188 525 187 526 186 527 z m 190 511 b 189 510 187 510 186 509 b 185 510 185 510 185 511 l 182 513 l 187 518 b 189 516 191 514 193 513 z m 183 495 l 183 498 l 188 498 l 188 497 b 187 496 187 496 186 496 b 185 496 184 496 183 495 z m 181 490 l 172 490 l 178 496 z m 192 483 l 189 483 l 189 488 b 190 488 190 488 190 489 l 191 489 b 191 488 191 487 192 486 z m 182 480 l 176 480 b 176 481 176 481 175 481 l 182 483 z m 186 473 l 186 475 l 191 475 l 192 474 b 191 473 189 473 186 473 z m 192 464 l 186 464 l 185 465 l 192 467 z m 189 441 l 185 441 l 185 443 l 189 443 z m 167 405 b 169 408 171 410 172 411 l 177 418 b 178 414 179 411 180 409 b 179 408 175 407 167 405 z m 176 396 l 169 396 l 169 397 l 176 397 z m 174 373 b 172 375 170 377 168 378 b 175 378 175 378 174 373 z m 158 373 b 157 373 157 373 157 374 b 157 375 157 375 158 375 l 160 373 z m 162 370 l 161 369 b 161 370 160 371 159 372 b 161 372 162 371 162 370 z m 166 348 l 165 348 b 164 347 164 347 164 346 b 163 349 161 352 159 355 b 157 357 155 359 153 362 l 166 362 b 165 359 164 358 163 357 z m 151 342 b 150 341 149 340 148 340 l 144 337 b 143 341 142 345 151 342 z m 161 340 l 161 343 l 162 343 l 162 340 z m 139 324 l 142 330 b 143 331 144 333 145 336 b 146 333 146 331 146 329 b 146 327 146 325 147 324 z m 166 331 l 160 331 l 160 333 l 166 333 z m 149 325 b 150 326 154 326 160 326 b 157 325 153 325 149 325 z m 145 315 b 145 319 146 322 148 323 b 155 320 149 318 145 315 z m 135 314 l 136 314 l 136 311 l 135 311 z m 128 295 b 129 304 129 306 141 303 b 136 300 132 298 128 295 z m 131 286 b 130 285 130 285 129 285 b 128 285 128 285 128 286 l 126 289 b 127 288 128 287 129 287 b 130 287 131 287 132 286 z m 132 287 b 132 287 133 287 134 286 l 133 286 b 132 287 131 287 132 287 z m 136 282 l 133 285 l 134 285 b 135 284 136 283 137 283 z m 127 250 l 125 250 l 125 252 b 124 253 124 254 124 255 l 127 255 z m 121 250 l 114 250 l 114 252 l 121 252 z m 98 249 l 104 249 l 104 247 l 98 247 z m 114 242 l 117 242 l 117 241 l 114 241 z m 115 227 l 115 233 l 116 233 b 117 232 117 231 117 230 b 117 229 117 228 118 227 z m 103 227 b 102 226 100 224 99 222 b 99 229 99 229 106 232 b 105 230 104 228 103 227 z m 111 218 b 110 218 109 218 108 217 l 108 223 l 110 223 b 110 222 110 221 111 221 z m 100 214 l 99 214 l 99 217 l 100 217 z m 94 198 l 93 198 l 93 201 l 94 201 z m 104 194 l 102 194 l 102 201 l 104 201 z m 94 112 b 91 113 89 114 86 114 l 69 111 b 67 110 64 110 61 109 l 58 103 b 57 100 56 98 56 96 b 57 86 57 76 55 67 b 51 47 49 25 64 6 b 68 8 72 7 77 4 b 81 1 85 2 88 7 l 96 4 b 98 3 100 1 101 0 b 104 1 107 3 110 4 b 112 5 114 7 117 8 b 118 11 121 15 120 19 b 119 30 119 40 121 51 b 123 61 124 71 124 82 b 124 93 120 104 112 115 b 107 110 101 109 94 112 z"},"<":{"x_min":0,"x_max":207,"ha":207,"o":"m 164 154 b 164 157 163 161 162 164 b 159 171 156 178 148 186 l 148 202 b 132 218 132 218 132 234 l 132 250 l 116 266 l 116 282 b 116 290 112 294 108 298 b 104 302 100 306 100 314 b 100 318 99 322 98 326 b 96 330 95 334 94 338 b 92 346 92 354 100 362 l 100 394 b 100 402 104 406 108 410 b 112 414 116 418 116 426 b 116 429 117 431 118 434 b 121 439 125 442 132 442 l 132 474 b 132 482 136 486 140 490 b 144 494 148 498 148 506 l 148 522 b 164 522 164 538 164 554 b 180 570 180 586 180 602 b 164 618 148 634 132 634 b 132 626 128 622 124 618 b 120 614 116 610 116 602 b 116 599 115 597 114 594 b 111 589 107 586 100 586 b 100 570 100 554 84 538 b 84 522 84 490 68 474 b 68 466 64 462 60 458 b 56 454 52 450 52 442 b 52 426 48 414 44 402 b 40 390 36 378 36 362 b 20 346 20 330 36 314 l 36 298 b 36 282 36 282 52 266 l 52 250 b 68 250 68 234 68 218 b 84 202 84 186 84 170 b 84 154 84 138 100 138 l 100 122 b 108 114 113 106 116 98 b 119 90 124 82 132 74 b 148 90 164 90 180 90 l 180 122 b 180 130 176 134 172 138 b 168 142 164 146 164 154 z m 132 154 l 116 154 l 116 170 l 132 170 z"},"'":{"x_min":0,"x_max":148,"ha":148,"o":"m 101 681 b 100 683 100 685 100 686 b 99 687 99 689 98 691 b 95 694 91 697 86 700 b 78 697 71 694 63 699 b 60 700 58 700 55 699 b 54 698 52 697 51 697 l 46 697 b 39 697 34 696 31 693 b 29 688 27 684 25 681 b 28 674 29 669 30 666 b 27 664 26 661 28 658 b 29 654 28 651 25 649 b 26 646 26 642 25 639 b 24 636 25 632 28 629 l 28 627 b 25 624 24 621 25 618 b 26 614 26 611 23 608 b 26 606 26 603 25 600 b 24 597 24 594 27 592 b 23 585 25 582 26 575 b 27 570 28 567 27 565 b 24 561 23 558 25 555 l 31 545 b 36 546 42 546 48 546 b 53 545 59 547 65 550 b 74 557 78 567 78 581 b 78 594 82 606 89 617 l 89 622 b 88 634 89 646 96 657 b 97 658 97 660 97 662 b 96 669 98 674 101 681 z m 61 668 b 63 666 65 664 67 663 l 63 663 b 62 662 61 662 60 662 l 60 665 b 59 665 59 665 59 666 z m 54 661 l 57 661 l 57 660 l 54 660 z m 67 650 l 65 650 l 66 651 z m 59 650 l 59 647 l 55 647 b 54 647 54 647 54 648 b 56 648 58 649 59 650 z m 69 643 l 65 640 b 66 644 67 647 68 648 b 69 647 70 647 71 647 b 71 646 72 646 73 645 b 72 644 70 643 69 643 z m 62 642 b 61 641 60 641 60 641 l 59 641 l 61 643 b 62 643 62 643 62 642 z m 57 638 b 56 636 54 634 52 633 b 52 635 52 637 51 638 z m 64 628 b 63 627 62 627 62 626 b 62 623 62 622 61 622 l 57 622 b 56 621 54 620 52 620 l 52 622 b 54 622 56 622 57 623 l 57 622 b 57 625 58 628 60 629 b 61 630 63 632 64 634 l 68 630 b 67 629 65 628 64 628 z m 48 630 l 47 630 l 47 633 l 48 633 z m 55 612 b 56 613 57 614 59 614 l 59 612 z m 49 609 l 49 611 b 53 611 52 609 49 609 z m 64 604 l 57 604 b 59 605 60 606 61 607 b 62 607 63 607 64 608 z"},"=":{"x_min":0,"x_max":341,"ha":341,"o":"m 58 428 b 58 427 58 426 57 426 b 54 422 54 418 55 414 b 56 410 56 406 55 403 b 56 397 59 393 63 390 b 67 387 71 385 74 382 l 84 385 b 87 385 90 386 93 387 b 95 388 97 389 99 389 b 100 389 102 388 105 387 b 108 386 111 386 114 386 b 117 386 120 386 123 385 b 124 384 126 384 128 385 b 129 386 131 386 132 386 l 137 386 b 138 385 140 385 141 385 l 154 385 b 157 384 161 384 165 385 b 172 385 179 386 187 387 l 212 387 b 215 387 219 387 223 388 b 227 388 231 387 234 385 b 238 384 242 382 245 385 b 248 388 252 388 257 387 b 262 386 266 387 270 390 b 273 387 277 387 282 388 b 286 389 290 388 293 387 b 296 389 298 391 299 392 b 300 393 302 395 304 396 b 303 400 302 404 303 409 b 304 413 303 417 301 420 b 306 431 302 440 299 448 l 246 448 b 243 448 240 450 237 451 b 233 452 229 452 226 452 b 223 452 219 451 216 448 l 210 451 b 207 452 205 452 204 453 b 201 452 198 451 195 451 b 192 451 188 451 185 452 b 182 453 179 454 178 453 b 175 452 173 451 171 452 b 166 452 162 452 158 448 b 153 451 151 452 150 451 b 147 450 144 450 142 451 b 139 452 137 452 134 451 b 128 450 122 450 116 451 b 110 452 104 451 97 450 b 94 449 90 448 86 448 l 74 448 b 71 448 68 448 66 449 b 61 449 57 442 54 438 b 53 435 54 433 57 430 b 58 429 58 429 58 428 z m 199 431 l 200 431 l 200 428 l 199 428 z m 96 429 l 100 426 b 100 425 100 425 99 425 l 96 425 z m 206 428 b 209 428 211 428 213 429 b 212 428 211 427 211 426 l 209 424 b 208 423 205 423 201 423 b 205 426 205 425 206 428 z m 187 428 l 188 428 l 188 425 l 187 425 z m 155 425 l 155 420 l 162 420 b 162 422 162 424 163 425 l 171 425 l 171 418 b 172 417 172 417 173 417 l 172 416 l 172 415 l 169 418 l 171 418 b 170 418 169 419 166 420 b 166 419 166 418 165 417 b 165 416 162 412 157 415 l 152 413 l 152 417 l 155 420 l 151 420 b 150 419 149 417 149 415 l 146 415 b 145 424 144 425 155 425 z m 194 425 l 195 425 l 195 420 l 194 420 z m 234 421 b 237 424 238 420 235 419 b 239 420 242 421 244 423 b 246 424 248 423 251 420 l 256 425 b 255 422 254 420 254 419 b 254 418 253 416 252 415 b 249 417 246 418 244 418 b 242 416 240 414 239 411 b 236 412 234 414 234 416 z m 109 422 l 112 420 b 114 422 116 423 117 424 b 118 421 120 418 122 417 b 118 415 115 414 112 413 b 111 414 107 416 100 419 b 103 420 105 422 106 423 b 107 423 108 423 109 422 z m 124 424 l 127 422 b 127 421 127 421 128 420 b 127 419 126 418 124 418 z m 134 424 b 135 424 136 424 137 423 b 136 421 135 419 135 417 b 134 415 134 413 133 412 b 132 413 132 415 132 416 b 132 417 131 419 130 420 b 131 423 133 424 134 424 z m 260 414 b 260 413 261 416 262 421 l 263 422 l 266 424 b 265 423 265 423 265 422 b 265 421 264 421 263 420 b 264 419 265 419 264 419 b 263 419 263 419 263 418 l 263 419 b 262 416 262 413 262 411 l 261 411 l 261 409 b 260 410 260 411 260 413 z m 210 413 b 211 416 213 418 216 421 b 216 414 217 416 210 413 z m 263 420 l 262 421 b 263 420 263 419 263 419 z m 185 415 b 185 418 186 419 187 420 l 190 417 b 190 416 190 414 191 413 b 196 416 196 415 196 412 b 195 411 193 411 192 410 b 190 409 188 409 187 408 l 183 412 b 181 413 180 415 180 418 b 183 417 184 416 185 415 z m 200 420 l 205 415 l 196 415 b 197 417 199 419 200 420 z m 223 420 l 223 413 b 222 416 221 418 219 420 z m 97 411 b 93 411 91 413 90 417 b 93 414 96 412 97 411 z m 82 415 l 83 415 l 83 413 l 82 413 z m 161 408 b 165 411 166 411 169 414 b 169 411 170 409 171 408 z m 271 412 l 276 412 l 276 411 l 271 411 z m 100 408 b 99 408 99 408 99 409 l 99 411 l 101 408 z m 149 408 l 147 408 l 147 411 l 149 411 z m 139 407 l 139 403 l 138 403 l 137 407 z m 303 243 b 304 247 303 251 301 254 b 306 265 302 274 299 282 l 246 282 b 243 282 240 284 237 285 b 233 286 229 286 226 286 b 223 286 219 285 216 282 l 210 285 b 207 286 205 286 204 287 b 201 286 198 285 195 285 b 192 285 188 285 185 286 b 182 288 179 288 178 287 b 175 286 173 285 171 286 b 166 286 162 286 158 282 b 153 285 151 286 150 285 b 147 284 144 284 142 285 b 139 286 137 286 134 285 b 128 284 122 284 116 285 b 110 286 104 285 97 284 b 94 283 90 282 86 282 l 74 282 b 71 282 68 282 66 283 b 61 283 57 276 54 272 b 53 269 54 267 57 264 b 58 263 58 263 58 262 b 58 261 58 260 57 260 b 54 256 54 252 55 248 b 56 244 56 240 55 237 b 58 225 67 221 74 217 b 77 218 81 218 84 219 b 87 219 90 220 93 221 b 95 222 97 223 99 223 b 100 223 102 222 105 221 b 108 220 111 220 114 220 b 117 220 120 220 123 219 b 124 218 126 218 128 219 b 129 220 131 220 132 220 l 137 220 b 138 219 140 219 141 219 l 154 219 b 157 218 161 218 165 219 b 172 219 179 220 187 221 l 212 221 b 215 221 219 221 223 222 b 227 222 231 221 234 219 b 238 218 242 216 245 219 b 248 222 252 222 257 221 b 262 220 266 221 270 224 b 273 221 277 221 282 222 b 286 223 290 222 293 221 b 296 223 298 225 299 226 b 300 227 302 229 304 230 b 303 235 302 239 303 243 z m 199 265 l 200 265 l 200 262 l 199 262 z m 96 259 l 96 263 l 100 260 b 100 259 100 259 99 259 z m 201 257 b 205 260 205 259 206 262 b 209 262 211 262 213 263 b 212 262 211 261 211 260 l 209 258 b 208 257 205 257 201 257 z m 187 262 l 188 262 l 188 259 l 187 259 z m 172 250 l 169 252 l 171 252 b 170 252 169 253 166 254 b 166 251 166 251 162 247 b 161 248 161 248 160 248 b 159 248 158 249 157 250 b 156 250 156 250 155 249 l 152 247 l 152 251 l 155 254 l 151 254 b 150 253 149 251 149 250 l 146 250 b 145 258 144 259 155 259 l 155 254 l 162 254 b 162 256 162 258 163 259 l 171 259 l 171 252 b 172 251 172 251 173 251 z m 194 259 l 195 259 l 195 254 l 194 254 z m 254 254 b 254 253 253 251 252 250 b 244 253 243 252 239 245 b 236 246 234 248 234 250 l 234 256 b 237 259 238 254 235 253 b 239 254 242 255 244 257 b 246 258 248 257 251 254 b 251 255 253 256 256 259 b 255 256 254 255 254 254 z m 117 249 b 116 248 114 248 112 247 b 111 248 109 249 107 250 l 100 253 b 101 254 102 254 103 255 l 106 257 b 108 257 110 256 112 254 b 113 255 114 257 117 258 b 118 255 119 254 122 251 b 120 250 118 250 117 249 z m 124 252 l 124 258 b 126 257 127 256 128 254 b 127 253 126 252 124 252 z m 133 246 b 132 247 132 249 132 250 b 132 251 131 253 130 254 b 131 257 133 258 134 258 b 135 258 136 258 137 257 b 135 254 134 250 133 246 z m 265 257 b 265 256 264 255 263 254 b 264 253 265 253 264 253 b 263 253 263 253 263 252 l 263 253 b 262 250 262 247 262 245 l 261 245 l 261 243 b 260 244 260 245 260 247 l 260 248 b 260 249 260 250 261 251 b 261 252 261 253 262 256 b 262 257 262 257 263 257 b 264 257 265 257 266 258 z m 210 247 l 216 256 b 216 249 217 250 210 247 z m 263 254 b 263 254 263 255 262 256 z m 192 244 b 190 243 188 243 187 242 l 183 246 b 181 247 180 249 180 252 b 183 251 184 250 185 250 b 185 252 186 253 187 254 b 188 252 190 250 191 247 b 193 248 194 249 195 250 b 196 249 196 247 196 246 b 195 245 193 245 192 244 z m 196 250 l 200 254 b 201 253 203 251 205 250 z m 223 247 b 222 250 221 252 219 254 l 223 254 z m 90 251 b 93 248 96 246 97 245 b 93 245 91 247 90 251 z m 83 247 l 82 247 l 82 250 l 83 250 z m 161 242 b 165 245 166 245 169 248 b 169 245 170 243 171 242 z m 276 245 l 271 245 l 271 246 l 276 246 z m 100 242 b 99 242 99 242 99 243 l 99 245 l 101 242 z m 149 242 l 147 242 l 147 245 l 149 245 z m 139 237 l 138 237 l 137 241 l 139 241 z"},"a":{"x_min":0,"x_max":252,"ha":252,"o":"m 238 34 b 233 45 231 57 230 68 b 229 79 228 91 226 102 b 225 109 225 116 226 123 b 227 130 225 137 222 144 b 223 155 223 165 221 175 b 219 185 218 195 219 206 b 219 218 216 230 209 242 b 216 254 218 262 216 265 b 213 270 212 274 213 278 b 214 282 214 286 213 290 b 212 292 212 294 213 297 b 213 299 212 301 210 302 b 209 310 207 318 205 326 b 203 333 202 341 203 349 l 203 382 b 203 383 203 385 204 386 b 204 387 204 389 203 390 b 200 393 199 397 200 400 b 201 403 200 406 199 409 b 197 416 196 422 196 429 l 196 457 b 197 460 197 463 196 466 b 195 469 195 472 196 475 b 189 486 190 497 190 508 l 190 539 b 187 542 186 544 187 547 b 188 550 188 553 187 556 b 186 559 186 562 186 565 l 183 574 b 181 582 180 590 180 598 l 180 623 b 180 624 180 625 179 626 l 177 629 b 174 638 172 648 171 657 l 167 685 b 160 694 151 699 141 699 b 130 699 120 699 110 700 b 107 698 105 696 103 694 b 100 692 98 690 96 689 b 97 684 97 679 94 674 b 91 669 91 665 95 661 b 94 656 92 651 91 646 b 87 637 82 627 89 619 b 90 618 90 616 89 615 l 86 607 b 85 604 84 601 83 598 l 80 586 b 79 582 78 578 79 573 b 80 565 82 556 79 549 b 77 546 76 542 77 539 b 78 536 77 533 76 530 b 73 527 72 523 73 520 b 74 516 74 512 73 509 b 73 507 73 505 74 502 b 75 499 74 497 73 495 b 71 492 70 488 71 485 b 71 482 71 478 70 475 b 69 468 67 462 67 455 b 66 448 66 440 66 433 b 66 425 65 417 64 410 l 61 399 b 60 396 58 392 57 389 l 60 383 b 61 381 61 379 60 378 b 57 370 55 362 55 353 b 54 344 53 336 51 327 b 50 324 49 321 50 318 b 51 313 51 306 48 301 b 46 298 47 296 50 293 b 47 288 46 283 45 278 l 42 262 b 41 258 40 254 40 251 b 40 247 41 243 43 239 b 44 238 44 236 44 233 b 39 221 37 209 38 197 b 35 193 34 189 35 185 b 36 180 35 176 34 172 b 31 164 31 156 31 148 b 32 141 31 135 29 129 b 27 123 27 117 28 110 l 28 108 b 25 106 23 103 24 100 b 24 97 23 93 22 90 b 21 87 21 83 22 80 b 23 76 22 72 21 69 b 19 62 18 54 18 47 b 17 46 17 46 16 46 b 15 45 13 45 12 44 l 12 3 l 68 3 l 74 9 b 81 26 80 40 80 55 l 80 70 b 80 75 81 80 82 85 b 85 96 88 103 92 111 b 113 119 134 125 150 105 b 151 99 153 93 154 88 l 157 71 b 160 66 163 59 160 55 b 156 46 158 37 161 28 b 165 13 170 2 187 -1 l 189 -1 b 189 -2 189 -2 190 -2 l 191 -3 b 198 0 204 1 209 -2 b 214 -5 219 -4 224 -1 b 228 2 232 4 235 7 b 235 11 235 13 236 14 b 239 17 240 21 240 24 b 240 27 239 31 238 34 z m 122 630 l 128 636 b 127 637 127 638 127 639 b 126 639 126 640 125 641 b 126 642 128 644 129 646 b 130 648 131 650 132 651 b 131 652 130 653 130 654 l 128 657 l 131 657 b 131 654 131 652 132 651 l 138 651 l 138 645 l 139 644 l 143 644 l 146 641 b 139 642 135 642 136 641 b 136 640 137 638 138 637 b 135 635 132 632 128 628 l 128 619 b 131 620 134 622 138 625 l 138 620 b 139 619 140 619 141 619 b 142 619 142 619 143 618 b 142 615 142 612 142 609 b 141 606 141 602 140 599 l 135 599 l 135 613 b 134 614 133 615 132 616 l 128 619 l 122 619 z m 138 643 b 139 643 140 643 139 644 b 139 643 139 643 138 643 z m 144 630 b 143 630 142 629 142 628 l 141 628 l 143 631 z m 150 616 b 151 615 153 613 157 610 b 154 609 152 609 149 609 b 148 610 148 612 148 614 z m 128 611 l 128 607 b 127 606 127 606 126 606 b 125 606 124 606 123 605 b 122 606 122 607 122 608 b 122 609 122 610 121 611 z m 106 511 l 110 515 b 111 514 113 512 116 511 l 119 514 b 119 517 119 521 120 524 l 120 535 b 117 534 115 532 112 531 l 112 536 b 122 542 126 551 125 564 b 126 567 129 570 132 573 l 126 573 b 125 576 125 579 128 580 b 130 581 131 584 132 587 b 131 588 130 589 129 590 l 125 593 b 124 589 122 585 120 582 b 118 578 116 574 115 571 b 115 571 112 570 106 569 l 111 577 b 112 578 114 580 116 583 b 115 585 115 587 115 590 l 112 598 b 115 599 117 599 119 600 b 121 601 123 601 126 602 l 133 592 b 134 593 135 595 138 597 b 137 595 137 593 137 592 b 137 591 137 589 136 587 l 138 584 b 138 583 139 581 140 580 b 146 583 150 585 151 586 b 152 586 154 585 157 583 l 157 581 b 156 580 154 580 153 580 b 150 580 148 578 146 575 l 142 571 b 143 570 144 568 145 567 l 143 564 b 142 563 142 562 141 561 l 144 551 l 145 551 b 147 550 149 548 151 545 b 150 544 148 544 145 544 b 145 547 145 550 144 551 l 139 551 l 139 535 l 141 535 b 142 534 142 534 143 534 l 146 541 b 152 540 155 536 154 531 l 146 531 b 145 528 143 526 142 522 b 147 522 150 520 151 517 b 152 513 155 509 158 505 l 150 508 b 148 508 146 508 143 509 b 144 506 146 503 147 499 l 143 499 b 142 499 141 499 141 500 l 138 502 b 137 497 141 494 144 491 b 143 490 143 488 142 487 l 139 481 b 137 484 135 486 132 488 b 132 487 131 486 130 483 l 126 483 b 127 484 127 486 127 488 b 127 489 127 491 128 492 b 129 495 131 498 131 501 b 131 502 131 504 130 506 b 129 507 129 509 128 512 l 145 512 b 142 513 140 514 139 515 b 138 515 136 515 135 516 b 136 521 137 526 139 531 b 134 530 132 528 132 525 b 132 522 131 520 130 519 b 128 516 124 513 118 509 b 117 508 117 508 116 508 l 113 508 b 111 503 115 500 126 500 b 123 496 121 493 119 491 l 123 482 l 115 482 b 114 485 114 488 113 491 b 112 493 112 495 111 498 b 110 499 108 499 106 499 z m 106 567 l 111 567 b 112 566 112 564 112 561 l 109 561 b 108 560 107 560 106 560 z m 151 562 l 151 561 l 148 561 l 148 562 z m 160 548 l 159 547 b 158 550 157 552 157 554 l 160 554 z m 161 522 b 158 522 156 522 155 521 l 155 531 l 160 531 b 160 530 160 528 161 527 z m 108 527 b 108 526 108 526 107 525 l 106 526 b 107 527 107 527 108 527 z m 103 521 l 105 521 l 105 515 l 103 515 z m 100 505 l 101 505 l 101 502 l 100 502 z m 155 495 l 158 499 b 159 498 160 497 160 496 l 158 496 b 157 495 156 495 155 495 z m 151 494 b 152 494 153 495 154 496 l 154 495 b 154 494 152 493 151 494 z m 164 494 b 163 493 163 493 163 492 l 160 495 l 161 495 l 163 495 b 163 494 163 494 164 494 z m 158 466 b 157 467 157 467 156 467 b 155 467 153 468 152 469 b 151 466 146 460 141 460 b 142 461 144 463 145 466 b 144 467 144 469 143 470 l 141 473 b 142 475 144 477 146 479 b 147 481 149 483 150 486 l 156 483 l 159 490 b 160 487 161 484 162 481 l 165 471 b 162 470 161 469 158 466 z m 114 482 b 110 479 106 479 103 484 b 108 488 111 485 114 482 z m 125 471 l 121 467 b 122 466 123 463 126 458 b 123 457 122 456 121 457 b 119 458 116 458 113 457 b 112 461 113 465 116 468 b 117 469 118 471 119 474 b 119 476 119 478 120 479 b 123 478 126 478 129 477 b 132 476 135 476 138 475 l 138 469 b 133 470 128 471 125 471 z m 134 465 b 134 464 133 463 132 463 b 132 464 132 464 133 465 b 133 465 133 465 133 466 z m 131 463 l 131 462 b 130 461 130 461 130 460 l 129 461 b 129 462 130 463 131 463 z m 157 461 l 157 462 l 161 462 l 161 461 z m 153 442 b 152 441 150 440 149 439 l 144 434 b 145 442 147 450 148 459 b 151 458 154 457 155 456 l 159 452 b 151 449 150 447 153 442 z m 135 458 b 138 457 140 455 141 454 l 138 454 b 137 453 136 453 135 453 z m 95 443 b 96 446 97 449 98 454 l 98 433 b 97 434 96 434 96 434 b 95 434 94 434 93 435 z m 149 365 b 146 368 143 369 140 369 b 133 368 131 376 130 381 l 127 389 b 124 388 121 388 118 388 l 107 385 b 114 392 119 397 126 402 l 129 399 b 129 398 129 396 130 395 l 132 397 b 133 397 133 397 134 398 l 141 395 l 144 404 l 141 406 b 140 407 138 407 137 408 b 132 416 128 422 124 426 l 123 427 b 123 434 124 437 127 441 b 128 438 128 436 128 434 b 128 431 128 428 129 424 l 132 433 b 133 435 133 437 134 439 l 124 447 l 121 447 b 120 446 119 444 118 442 b 117 440 115 438 114 437 l 106 449 l 110 453 b 113 454 115 453 118 451 b 121 449 123 450 126 453 b 131 449 136 446 141 443 l 138 437 l 141 431 b 144 432 147 432 148 429 b 149 426 152 425 155 424 b 156 425 158 426 162 428 b 160 424 159 421 159 420 b 160 417 160 415 161 413 b 161 410 161 407 162 404 b 166 409 169 413 171 415 l 173 415 b 173 414 173 414 174 414 b 173 411 171 407 170 402 l 166 402 b 165 401 163 401 161 401 b 162 400 162 398 162 397 b 162 396 162 394 163 393 b 163 392 162 391 160 389 b 159 390 158 390 158 391 b 157 391 156 391 155 392 l 149 392 b 148 395 147 397 147 398 l 141 395 l 141 390 b 140 389 140 389 139 389 b 138 389 136 388 134 387 b 135 386 137 385 138 384 l 142 380 b 141 377 139 375 138 374 b 139 373 140 372 141 372 l 158 372 l 161 369 l 162 368 b 163 368 163 368 164 369 l 165 369 b 165 369 166 368 169 365 l 162 367 b 163 367 161 368 161 367 b 154 369 150 368 149 365 z m 167 447 l 165 447 l 165 450 b 164 451 164 452 164 453 l 167 453 z m 159 441 b 164 434 158 433 154 432 b 155 434 156 437 159 441 z m 168 437 b 168 438 168 439 169 440 l 170 439 l 165 434 b 165 435 165 435 164 435 b 165 436 166 437 167 437 z m 106 417 l 109 426 b 109 429 109 431 110 434 b 114 434 116 432 117 429 b 117 425 119 422 122 421 b 124 417 125 414 126 412 l 129 405 l 115 405 b 116 409 118 413 119 417 z m 100 403 b 101 404 103 406 104 408 b 105 410 108 411 112 411 l 109 405 l 113 402 b 111 399 109 397 108 395 b 106 392 103 390 100 387 z m 175 395 l 176 395 l 176 392 l 175 392 z m 161 383 l 161 379 l 149 379 b 152 380 154 382 155 383 b 156 384 158 386 160 387 b 160 385 160 384 161 383 z m 96 379 l 96 384 b 100 387 104 387 107 384 b 110 381 113 380 117 379 l 118 380 b 119 381 119 381 120 381 l 121 382 b 126 382 128 378 129 374 b 129 370 131 365 136 365 b 133 362 130 360 126 357 b 125 360 125 362 125 364 b 125 365 125 367 124 369 l 113 369 b 112 370 112 372 112 374 b 111 375 109 374 106 371 b 102 368 97 363 92 358 b 93 365 94 367 94 371 l 87 378 b 90 379 93 379 96 379 z m 147 385 l 147 382 l 146 382 l 146 385 z m 171 372 l 171 379 l 173 379 l 173 372 z m 84 366 l 85 366 l 85 359 l 84 359 z m 101 356 l 100 356 l 100 359 l 101 359 z m 155 350 l 155 355 l 156 356 b 157 355 157 354 157 353 b 157 352 157 351 158 350 z m 151 192 b 150 191 148 191 147 190 b 145 189 143 188 142 187 l 144 185 b 141 184 137 183 134 182 l 122 179 b 120 180 118 182 115 183 l 107 186 b 106 190 105 193 105 196 b 104 199 104 202 103 205 b 103 206 103 207 104 208 b 105 209 105 210 105 211 l 108 229 b 109 234 110 240 109 246 b 108 251 108 257 109 263 b 110 269 110 275 109 281 b 108 285 109 289 110 292 b 113 299 113 306 113 313 b 112 316 113 320 115 323 b 116 325 117 328 116 331 b 115 334 115 338 115 341 l 121 350 b 125 354 132 353 133 349 b 136 343 137 337 138 332 b 139 329 139 325 140 322 b 141 314 142 308 141 301 b 140 297 141 293 142 290 b 144 281 145 274 144 267 b 151 260 151 254 151 247 z m 84 350 l 85 350 l 85 346 l 84 346 z m 165 302 b 166 305 168 307 169 309 b 170 301 170 301 165 302 z m 80 284 l 83 284 l 83 283 l 80 283 z m 181 268 b 178 268 175 270 174 275 z m 72 245 b 72 246 73 248 74 251 b 75 248 76 246 77 245 b 78 243 79 241 80 240 l 76 240 b 74 239 72 239 69 239 z m 77 217 l 74 217 l 74 223 l 75 223 b 76 222 76 221 76 220 b 76 219 76 218 77 217 z m 72 207 l 72 200 l 71 200 l 71 207 z m 75 180 b 76 174 75 170 74 169 b 71 170 68 172 66 174 l 60 180 z m 82 174 l 82 171 l 81 171 l 81 174 z m 175 165 b 175 166 175 167 176 168 b 176 167 176 167 177 167 z m 76 157 l 76 149 b 83 149 86 146 86 140 b 85 141 83 141 82 141 b 78 141 76 142 76 149 l 68 149 l 64 153 b 65 156 67 158 68 161 b 69 161 71 161 72 162 l 76 162 l 76 167 b 79 166 81 166 82 166 b 83 165 85 165 86 164 l 98 156 b 93 151 85 151 76 157 z m 186 165 b 186 164 186 163 187 162 l 187 158 b 188 159 190 160 192 162 b 193 160 193 157 193 152 l 187 152 l 187 157 b 186 158 185 158 184 158 b 183 158 180 160 180 164 b 181 164 182 164 183 165 z m 173 164 b 172 163 172 162 171 161 l 169 158 b 168 159 167 160 166 161 l 162 164 z m 109 151 l 105 148 b 102 151 101 154 103 155 l 107 158 l 112 153 b 111 152 110 151 109 151 z m 145 151 b 142 149 140 146 139 143 l 139 158 l 148 158 b 148 155 147 152 145 151 z m 162 130 l 160 132 b 159 132 159 132 158 133 b 156 142 158 149 164 156 b 169 153 170 150 167 147 b 164 144 163 142 165 139 b 168 142 170 143 174 146 b 173 139 169 133 162 130 z m 174 153 l 170 153 l 170 154 l 174 154 z m 132 143 l 128 143 l 128 144 l 132 144 z m 76 141 b 75 140 75 140 75 139 b 74 139 74 139 74 140 l 73 140 b 74 141 75 142 76 142 z m 184 140 b 183 136 182 133 179 128 b 174 135 177 137 184 140 z m 76 127 l 73 130 b 72 130 71 131 70 132 b 72 132 74 132 76 133 z m 93 130 l 89 130 l 89 131 l 93 131 z m 189 129 l 189 123 l 188 123 b 187 124 187 126 187 128 b 188 128 188 128 189 129 z m 183 101 l 191 109 b 190 110 189 111 189 112 l 187 114 b 188 115 190 117 192 118 l 196 121 b 198 120 198 118 195 116 b 192 113 192 111 196 109 b 195 106 193 104 192 102 b 191 99 189 96 188 93 b 185 93 183 94 184 96 b 184 97 184 99 183 101 z m 179 118 b 178 115 176 113 175 111 b 174 119 174 119 179 118 z m 180 104 l 177 104 l 177 105 l 180 105 z m 200 99 l 203 99 l 203 98 l 200 98 z m 188 74 b 186 76 185 78 184 79 b 185 80 185 80 186 80 b 192 81 195 79 196 74 b 197 74 198 73 199 72 b 199 71 199 71 198 71 b 198 72 197 73 196 74 z m 202 64 b 203 64 204 64 205 65 l 205 55 b 202 59 201 60 198 63 b 199 64 201 64 202 64 z m 193 62 l 190 62 l 190 63 l 193 63 z m 202 54 l 202 49 l 201 48 l 198 54 z m 205 40 l 202 33 l 198 41 b 197 41 200 42 207 45 b 206 43 205 41 205 40 z"},"L":{"x_min":0,"x_max":216,"ha":216,"o":"m 198 60 b 201 63 202 66 201 69 b 200 72 200 75 201 78 b 190 89 191 90 172 87 b 165 86 159 86 153 87 b 146 88 140 87 133 84 b 131 85 128 86 124 89 l 121 102 b 120 105 120 107 120 110 b 120 112 120 115 119 118 b 118 122 117 126 118 131 b 118 135 117 139 115 144 b 113 145 113 147 116 150 b 118 152 119 154 118 157 b 117 160 117 162 118 165 b 119 168 119 170 120 172 b 120 176 121 184 120 185 b 118 188 118 191 120 196 b 124 202 125 207 124 212 b 120 224 120 235 124 246 b 125 248 125 250 124 253 b 123 255 123 257 122 260 b 126 265 127 271 124 278 b 122 283 121 287 122 292 b 122 296 122 300 121 304 b 120 307 120 311 121 315 b 122 319 121 323 118 326 b 115 330 115 334 118 339 b 121 344 123 348 122 353 b 121 357 121 361 122 365 b 125 373 122 382 121 390 l 121 392 b 114 400 117 410 118 419 b 120 432 121 442 121 448 b 121 453 120 461 118 472 b 117 474 117 476 118 478 b 119 479 119 481 120 483 b 122 496 122 508 120 521 b 118 531 118 542 119 555 l 122 566 b 122 570 123 574 124 577 b 125 579 125 581 124 584 b 123 586 122 588 121 590 l 121 604 b 120 608 120 612 121 617 b 122 622 122 626 120 631 b 117 635 118 639 121 643 b 122 644 122 646 120 648 b 117 650 116 652 117 655 b 118 658 118 660 118 663 b 118 665 119 667 120 669 b 122 673 121 676 119 680 b 118 681 117 683 118 686 b 118 687 118 689 117 690 b 116 691 115 691 115 692 b 104 695 95 696 84 696 b 71 696 65 696 56 700 b 53 697 49 694 45 691 b 41 688 37 685 34 682 b 39 676 40 670 37 665 b 35 662 35 658 36 652 b 40 641 40 630 36 621 l 38 609 l 38 568 b 38 559 41 551 44 544 b 43 538 41 532 38 527 b 35 522 34 516 35 510 b 35 508 36 506 37 504 b 38 502 38 500 38 497 l 38 467 b 39 462 39 457 40 453 b 40 448 40 443 41 438 b 42 433 41 429 40 425 b 38 421 37 417 38 412 b 39 407 39 403 39 398 b 38 393 38 388 38 383 b 38 380 38 376 39 372 b 39 364 42 359 44 354 b 45 351 44 349 41 346 l 38 298 l 38 266 b 38 261 38 258 37 257 b 35 252 35 246 37 239 b 38 234 39 230 39 225 b 39 220 38 216 35 211 l 37 208 b 38 207 38 205 38 204 b 38 197 38 191 39 185 b 39 179 39 173 38 166 b 37 159 38 153 39 147 b 40 140 38 134 35 127 b 34 124 34 122 35 119 b 38 114 39 110 38 106 b 37 97 40 85 41 81 b 40 78 40 76 39 75 b 38 74 38 72 38 71 b 41 54 42 55 38 36 l 38 31 b 37 29 37 27 38 25 b 39 20 40 16 43 9 b 46 8 50 6 54 5 b 57 3 61 1 65 0 b 68 1 70 2 73 3 l 82 6 b 82 5 82 4 85 4 b 88 3 90 3 93 4 b 96 4 98 3 101 1 b 102 0 104 0 107 1 b 113 3 119 4 125 5 b 131 6 137 6 143 7 b 145 7 147 7 150 6 b 154 4 159 3 164 4 b 169 4 175 3 180 2 b 182 1 184 1 187 0 b 190 3 193 7 196 11 b 199 14 201 18 204 21 l 204 42 b 204 48 202 54 198 60 z m 79 663 l 79 656 b 78 654 78 652 78 649 l 75 649 b 70 654 74 658 79 663 z m 83 651 l 86 651 l 86 650 l 83 650 z m 96 647 l 93 643 b 92 642 89 642 86 644 l 90 648 b 91 649 93 649 96 647 z m 69 626 b 68 626 68 627 67 628 l 71 632 b 75 631 78 630 80 629 b 83 626 85 624 88 621 l 82 610 b 79 610 76 612 75 615 b 73 618 70 619 67 618 b 68 619 69 620 70 623 b 69 624 69 625 69 626 z m 98 608 b 96 608 94 608 93 607 l 93 610 l 98 610 z m 67 601 l 70 601 l 70 598 l 64 598 b 64 599 64 599 63 600 b 64 600 66 600 67 601 z m 76 593 b 75 592 73 590 72 588 l 69 591 b 68 591 68 592 67 593 b 68 594 69 596 72 597 b 76 595 77 594 76 593 z m 83 586 l 76 586 l 76 587 l 83 587 z m 87 578 l 87 585 l 88 585 l 88 578 z m 78 571 b 76 570 74 568 73 567 b 74 572 77 575 82 575 z m 80 565 b 82 565 84 565 85 566 l 85 563 l 80 563 z m 70 553 l 70 559 l 81 559 b 79 558 77 557 76 556 z m 97 556 l 97 559 l 98 559 l 98 556 z m 72 550 b 73 549 73 548 73 547 l 67 547 l 67 549 b 70 549 71 549 72 550 z m 77 546 b 78 545 80 545 82 544 b 83 543 85 542 87 541 b 86 540 85 538 83 536 l 75 544 z m 68 539 b 69 539 69 539 70 538 l 69 538 b 72 537 74 537 76 537 b 76 536 76 536 77 535 l 74 535 b 73 534 71 534 70 534 l 70 537 b 69 538 69 538 69 538 l 68 538 b 67 537 67 537 66 537 b 65 537 64 538 62 541 b 65 540 65 539 68 539 z m 86 531 l 88 531 b 89 530 89 529 88 529 b 87 528 85 528 80 529 b 83 530 85 530 86 531 z m 89 521 l 89 519 b 88 518 87 518 87 518 l 87 524 l 88 524 b 88 523 88 522 89 521 z m 70 515 b 74 514 78 512 81 511 l 84 515 l 89 510 l 89 499 b 87 500 85 501 84 502 b 82 502 80 503 78 504 b 75 503 73 501 71 500 l 71 508 b 70 509 70 512 70 515 z m 87 498 b 86 495 85 493 85 492 b 84 490 83 488 82 487 b 83 486 85 486 87 486 b 88 486 90 486 92 485 l 92 479 l 90 481 b 89 481 88 481 87 482 b 85 479 85 477 88 476 b 90 475 91 473 92 470 b 89 470 88 470 87 471 b 85 473 82 476 80 480 l 80 477 l 78 479 b 77 478 77 477 76 477 b 75 477 75 477 74 476 l 74 478 b 73 478 73 478 73 479 l 77 479 b 75 482 72 483 68 483 l 68 485 b 72 488 78 493 87 498 z m 78 483 l 78 479 b 79 480 79 480 80 480 z m 69 479 l 69 474 l 68 473 l 68 476 b 67 477 67 478 67 479 z m 98 476 l 98 470 l 96 470 l 96 476 z m 70 466 b 72 466 74 466 76 467 b 80 467 83 466 84 463 b 84 461 85 459 86 458 b 84 458 81 457 77 456 b 77 454 77 452 76 451 b 75 452 74 452 73 453 l 70 455 b 71 456 72 458 74 460 b 73 463 71 465 70 466 z m 83 450 l 83 447 b 82 446 82 445 82 444 b 79 447 78 448 75 449 b 75 450 75 450 76 450 l 76 449 b 77 450 80 451 83 450 z m 82 440 b 81 437 79 435 78 433 b 77 441 77 441 82 440 z m 84 419 b 83 420 83 420 82 420 b 80 423 79 426 80 427 b 80 428 81 428 82 429 b 85 432 87 434 88 436 b 89 433 89 429 89 424 b 88 423 87 422 87 421 z m 80 416 b 80 417 80 417 81 417 l 81 418 b 82 416 83 414 83 413 z m 83 412 l 85 412 b 85 411 85 411 86 411 l 85 410 b 84 410 83 411 82 412 z m 78 409 b 79 406 81 402 82 397 b 81 396 80 396 80 395 l 78 393 b 77 396 75 398 74 400 b 72 402 70 405 68 408 b 71 409 75 409 78 409 z m 92 376 l 92 373 b 92 372 90 371 90 372 b 89 373 87 374 85 375 b 83 375 82 377 81 380 b 81 381 80 383 78 384 b 75 385 73 386 71 388 b 75 390 79 391 83 390 b 86 389 90 390 94 391 b 92 388 90 386 89 385 b 88 384 86 382 85 380 b 87 379 89 377 92 376 z m 83 365 l 83 367 l 89 367 l 89 365 z m 73 357 l 73 361 l 79 361 b 79 360 79 360 80 360 l 80 359 b 78 359 76 358 73 357 z m 95 355 l 90 355 b 90 356 90 357 89 357 b 90 357 91 357 92 358 l 95 358 z m 85 343 b 84 343 84 343 83 344 l 84 345 b 85 344 86 343 86 342 l 92 342 l 92 336 l 86 336 l 86 342 z m 98 328 b 96 327 95 327 94 327 b 93 326 91 326 90 326 l 90 329 b 89 330 89 330 89 331 l 91 333 b 94 332 95 331 98 328 z m 71 332 l 76 332 l 76 331 b 75 330 74 330 74 330 b 73 330 72 330 71 329 z m 65 326 l 65 329 l 66 329 l 66 326 z m 85 323 l 85 317 l 84 317 l 84 323 z m 74 322 l 79 322 l 79 321 l 77 321 b 76 320 75 320 74 320 z m 77 316 l 78 316 b 79 315 79 315 79 314 b 79 313 79 312 80 311 l 77 311 z m 70 310 l 70 308 l 67 308 b 66 307 65 307 64 307 l 64 310 z m 75 282 l 69 282 b 72 284 74 286 74 289 b 73 292 73 294 73 296 l 79 302 b 79 303 78 304 76 306 b 78 307 81 307 86 307 b 85 304 84 303 84 303 b 87 300 89 298 92 295 l 92 287 l 87 292 l 81 289 b 78 288 76 285 75 282 z m 92 263 b 89 262 87 260 84 257 b 83 260 83 264 83 268 l 79 277 b 80 278 82 279 85 282 l 91 279 b 92 278 94 277 97 276 l 92 276 b 90 275 88 275 86 275 z m 70 272 b 71 275 72 276 72 275 l 73 274 b 72 273 71 272 70 272 z m 69 272 l 69 271 b 68 270 68 269 68 270 b 68 270 68 271 69 272 z m 68 268 b 68 269 68 269 69 270 b 70 269 70 268 70 267 b 70 266 68 265 68 265 b 67 265 67 265 66 264 b 67 265 68 267 68 268 z m 76 257 l 76 253 l 71 253 b 70 254 70 254 70 255 b 71 255 73 256 76 257 z m 88 253 l 88 250 l 87 250 l 87 253 z m 63 217 b 66 220 69 223 71 226 b 72 228 74 230 76 232 l 73 236 b 74 237 74 239 75 241 b 76 242 77 244 78 247 b 79 246 81 246 82 246 l 85 244 b 86 245 86 245 87 245 b 87 245 87 246 88 247 b 91 243 93 240 95 238 b 94 238 94 238 94 237 b 94 236 93 236 92 235 b 93 234 93 232 94 231 b 95 229 95 227 96 226 l 90 223 b 89 222 89 221 89 218 b 92 217 94 214 97 210 b 96 209 95 209 94 209 b 93 208 91 208 90 207 b 90 211 89 214 88 221 b 87 218 85 215 81 213 b 80 214 80 215 80 218 b 80 219 80 219 79 220 b 76 219 73 219 71 219 b 69 219 66 218 63 217 z m 73 202 l 73 208 l 83 208 l 83 202 z m 82 193 b 83 196 85 199 88 203 b 88 202 88 201 89 200 l 89 198 b 88 193 86 189 85 186 l 70 186 l 70 188 b 75 191 79 192 82 193 z m 80 198 l 80 196 l 73 196 l 73 198 z m 71 182 b 72 181 74 180 77 179 b 78 180 79 181 82 182 b 82 181 82 181 83 181 l 83 179 b 83 178 82 176 81 175 b 79 174 81 172 86 170 l 83 170 b 82 169 81 169 80 169 l 69 180 z m 93 171 l 93 176 l 102 176 b 99 175 98 174 97 173 b 96 172 94 172 93 171 z m 90 160 l 90 167 l 92 167 l 92 160 z m 75 158 b 79 161 81 162 84 165 l 87 158 z m 68 151 l 68 154 l 69 154 l 69 151 z m 80 147 l 82 147 l 82 142 l 81 141 b 80 142 80 144 80 147 z m 67 138 l 67 140 b 68 140 69 140 70 141 l 72 141 b 73 140 73 139 73 138 z m 87 111 b 86 110 86 110 86 109 b 86 108 86 108 85 107 l 82 103 b 84 100 86 96 89 91 l 85 87 b 84 86 82 84 79 82 b 80 85 81 87 81 89 b 81 90 81 92 82 94 b 79 93 77 92 74 90 l 74 93 b 73 93 73 94 73 95 b 74 96 75 96 76 96 b 77 96 78 96 79 97 l 79 115 l 77 117 b 77 118 77 118 78 118 b 78 118 79 117 80 116 l 80 115 b 82 116 84 116 85 116 l 75 126 b 78 128 80 129 80 130 b 83 127 85 125 88 123 l 96 115 b 94 114 91 112 87 111 z m 80 115 b 80 115 79 115 79 115 z m 88 101 l 94 105 b 95 100 95 100 88 101 z m 99 74 l 92 81 b 93 82 94 84 95 86 b 95 87 96 89 97 90 b 98 87 100 83 102 80 l 106 70 b 108 72 110 73 111 74 b 111 72 111 70 112 69 l 110 69 b 109 68 109 68 108 68 l 106 68 b 103 70 101 72 99 74 z m 90 72 b 89 71 88 71 87 71 b 86 71 85 71 84 70 l 82 79 b 85 77 87 75 90 72 z m 72 74 l 72 71 l 71 71 l 71 74 z m 88 35 l 80 32 b 81 34 81 36 81 38 b 81 39 81 41 82 43 b 82 44 80 47 79 50 l 86 53 b 87 58 85 61 82 61 b 79 61 76 62 73 63 b 82 67 87 62 94 58 l 97 66 b 98 64 98 62 98 61 b 98 60 98 58 99 57 b 96 55 94 53 93 52 b 94 49 94 46 95 44 b 95 42 95 40 96 37 b 93 36 90 35 88 35 z m 122 60 b 121 60 121 61 122 63 b 125 62 127 60 129 59 b 125 59 123 59 122 60 z m 159 46 l 157 46 b 156 45 155 45 154 45 b 153 46 153 48 153 51 b 154 51 156 51 157 52 l 160 52 b 160 52 160 54 160 57 l 161 58 b 162 57 162 56 162 55 b 162 54 162 53 163 52 b 162 52 160 52 159 51 z m 73 56 l 70 56 b 69 55 69 55 68 55 b 67 56 67 57 67 57 l 73 57 z m 114 40 b 113 43 111 45 110 46 b 109 47 107 49 106 51 l 114 51 z m 121 37 l 121 49 b 122 48 124 48 125 48 b 126 48 128 48 129 47 b 128 44 125 41 121 37 z m 132 48 l 134 46 b 133 46 132 46 131 47 z m 136 42 b 135 43 134 44 134 45 b 135 45 136 44 137 43 z m 149 36 l 144 36 l 144 38 b 145 38 146 38 147 39 l 149 39 z m 160 36 l 160 38 l 165 38 b 165 37 165 37 166 37 b 165 36 163 36 160 36 z m 92 27 b 91 26 91 26 90 26 l 90 29 b 89 30 89 31 89 32 l 92 32 z"},"3":{"x_min":0,"x_max":269,"ha":269,"o":"m 231 253 l 231 256 b 228 263 226 269 225 276 l 222 295 b 219 308 214 319 205 328 l 198 335 b 195 337 193 339 192 340 l 192 356 b 199 359 204 364 207 371 b 210 377 214 383 218 389 b 223 397 228 406 227 415 b 226 424 227 434 229 443 b 230 452 231 462 231 471 l 231 481 b 231 484 232 488 234 491 b 237 495 233 501 232 504 b 235 519 236 529 231 541 b 232 544 234 548 234 551 b 235 555 234 559 233 563 b 232 567 231 571 231 575 b 232 598 226 617 219 637 b 218 640 217 642 218 645 b 219 648 217 650 214 652 b 209 669 195 678 182 689 b 171 697 157 702 142 699 b 139 698 135 697 132 698 b 128 698 124 697 121 696 b 113 693 105 693 98 693 l 85 686 b 81 683 77 681 73 679 b 64 672 58 665 53 657 b 51 653 50 649 49 645 b 48 640 46 636 45 632 b 44 629 43 627 44 624 b 44 621 43 618 40 615 b 37 610 40 604 43 599 l 43 595 b 40 594 39 592 40 589 b 40 586 40 584 40 582 l 40 561 b 40 554 41 546 42 539 b 45 527 44 515 41 502 b 39 495 38 487 39 480 b 40 472 40 464 40 456 b 47 452 51 449 54 446 l 67 449 b 70 450 74 450 77 449 b 93 446 99 448 106 461 b 111 472 110 481 107 492 b 107 493 107 494 108 495 b 109 496 109 496 108 497 b 105 500 104 504 104 507 b 104 510 105 512 106 514 b 109 519 110 525 109 531 b 108 537 108 543 109 548 l 109 555 b 108 557 108 559 109 561 b 112 566 114 572 113 577 b 112 582 111 587 112 592 b 112 594 111 596 110 599 l 119 609 b 122 612 126 613 131 614 b 140 609 146 607 148 606 l 153 599 b 156 587 157 579 160 571 b 161 568 162 565 162 563 b 162 560 162 557 162 553 l 162 540 b 161 535 162 531 165 527 b 162 523 159 520 163 516 b 165 513 166 511 166 508 b 165 505 165 503 165 500 b 165 499 165 498 164 497 b 163 496 162 494 162 493 l 162 460 b 161 455 161 449 160 444 b 159 432 158 423 158 416 l 158 405 b 150 390 142 387 123 386 l 116 379 b 114 376 112 374 109 372 b 108 369 108 366 108 363 l 106 355 b 105 352 105 349 105 347 b 105 344 104 341 103 338 b 102 336 102 333 103 330 l 106 320 b 109 319 111 317 114 315 b 116 312 119 310 122 309 b 129 307 136 304 142 301 b 153 293 157 278 157 264 b 156 257 157 249 158 242 b 159 237 160 231 160 225 b 160 218 158 212 155 206 b 154 201 154 198 155 195 b 158 191 160 187 159 182 b 158 177 158 173 159 170 b 162 165 163 161 162 157 b 161 153 161 149 162 145 b 163 142 163 139 163 136 b 162 133 163 130 164 127 b 165 126 166 123 165 120 l 162 111 b 160 106 158 101 157 96 b 156 91 152 86 147 83 l 123 83 b 120 86 118 89 116 92 b 111 97 108 104 109 112 b 110 120 112 128 112 136 b 112 139 111 143 108 147 b 115 151 115 157 112 160 b 107 166 106 172 109 177 b 112 182 113 187 111 192 b 109 196 108 200 107 205 l 107 208 b 106 209 106 210 106 211 l 106 228 b 106 234 104 240 101 245 b 100 246 99 247 98 248 l 94 251 l 68 251 b 65 252 63 252 62 251 b 58 249 54 247 50 248 l 44 248 b 41 243 40 240 37 236 b 37 233 37 230 38 227 b 38 224 37 220 36 217 b 34 206 33 198 33 191 b 33 184 34 174 36 163 b 37 160 37 158 36 157 b 33 154 32 150 33 147 b 34 144 34 140 33 137 b 32 134 33 131 34 128 b 35 125 35 121 33 118 b 36 114 38 110 37 106 b 36 101 35 97 36 93 b 37 91 37 89 37 87 b 36 84 36 82 37 80 b 37 76 39 73 40 70 b 43 64 45 58 47 53 b 49 47 52 41 56 36 b 63 28 69 20 77 15 b 83 11 91 8 101 7 b 102 4 105 3 108 4 b 111 5 114 5 116 2 b 117 1 142 0 143 0 b 148 -1 153 0 157 2 b 161 4 165 6 170 7 b 183 12 193 18 199 27 b 206 34 211 41 218 50 b 218 55 218 59 221 66 b 224 73 227 81 228 90 l 231 114 b 232 125 233 137 232 148 b 231 159 232 171 233 182 b 234 194 235 206 234 218 z m 158 669 b 159 669 160 669 161 670 l 161 667 l 156 667 b 156 668 156 668 155 668 b 156 669 157 669 158 669 z m 119 660 b 122 665 125 668 127 669 l 130 665 b 130 664 131 662 132 661 b 131 660 131 660 130 660 l 128 657 b 126 658 123 659 119 660 z m 120 638 b 119 641 119 644 119 647 b 119 651 119 654 116 657 b 116 658 117 659 118 659 b 119 658 119 656 119 653 l 124 653 b 125 652 125 650 126 649 b 127 648 127 646 128 644 z m 165 636 b 165 634 165 632 164 630 l 159 630 l 159 643 b 156 642 154 642 152 642 b 150 641 148 641 145 640 b 147 646 148 651 148 656 l 149 656 b 148 657 147 657 147 657 b 146 657 146 657 146 658 b 146 659 146 659 147 659 l 149 657 l 149 656 b 153 657 155 658 158 659 l 158 643 b 161 644 163 646 165 648 b 167 650 170 652 173 655 l 176 648 b 175 647 173 647 172 647 b 171 647 169 646 168 645 b 171 644 174 642 175 642 l 175 625 l 173 624 b 172 625 172 627 172 628 b 172 629 172 631 171 632 b 170 635 169 637 166 641 b 165 639 165 637 165 636 z m 110 643 b 109 642 109 641 108 640 l 100 652 b 102 654 104 656 107 658 b 108 655 110 650 113 645 b 112 644 111 643 110 643 z m 136 653 l 136 658 b 138 656 140 655 141 654 b 140 653 139 653 136 653 z m 129 635 b 130 637 132 639 133 641 l 136 647 b 139 636 138 634 129 635 z m 97 629 l 97 645 b 98 642 100 637 103 632 z m 184 643 b 185 643 186 643 187 644 l 187 637 l 182 637 b 182 639 182 641 181 642 b 182 643 183 643 184 643 z m 83 635 b 84 636 86 636 87 636 b 88 636 88 636 89 637 b 89 637 89 636 90 634 l 84 634 b 83 634 83 634 83 635 z m 125 634 l 119 634 l 119 636 l 125 636 z m 155 627 l 153 627 l 153 630 b 152 631 152 632 152 633 l 155 633 z m 112 631 l 109 631 l 109 632 l 112 632 z m 90 624 l 90 630 l 91 630 l 93 624 z m 144 627 l 143 627 l 143 630 l 144 630 z m 164 621 b 163 621 163 621 163 620 b 162 621 162 623 162 626 l 164 626 z m 182 619 b 182 620 182 621 183 622 b 184 619 186 617 189 617 b 192 617 192 615 191 611 b 187 612 184 614 181 615 b 182 616 182 618 182 619 z m 91 617 l 90 617 l 90 620 l 91 620 z m 174 620 l 174 617 l 173 617 l 173 620 z m 86 603 l 86 604 b 86 603 85 602 84 601 b 83 601 84 603 85 603 l 86 604 b 86 605 87 606 88 607 l 89 606 z m 80 591 l 80 597 l 81 597 b 82 596 82 595 82 594 b 82 593 82 592 83 591 z m 195 596 l 198 596 l 198 595 l 195 595 z m 202 560 b 203 560 203 560 204 561 l 207 561 l 207 558 l 205 558 b 208 553 209 551 210 548 l 205 548 l 205 558 l 202 558 z m 75 545 l 71 553 b 72 554 72 555 73 556 l 76 559 b 79 556 81 554 83 553 z m 192 550 b 193 550 194 550 195 551 l 197 551 l 197 548 l 192 548 z m 207 538 l 206 538 l 206 541 l 207 541 z m 196 508 l 196 511 l 197 511 l 197 508 z m 204 472 l 204 467 b 202 469 200 470 199 471 b 200 472 201 472 204 472 z m 196 444 b 195 446 195 447 196 448 l 204 448 b 199 445 196 444 196 444 z m 160 367 b 161 366 163 365 165 365 l 169 362 b 168 361 167 360 166 360 l 163 357 b 161 359 159 361 158 364 b 158 365 159 366 160 367 z m 148 353 l 146 353 l 146 360 l 148 360 z m 164 342 b 162 341 160 339 159 338 l 155 342 b 160 345 164 346 166 347 b 166 347 167 346 168 345 z m 142 338 l 141 338 b 140 337 140 337 139 337 l 139 343 l 141 343 b 141 342 141 341 142 340 z m 169 333 l 169 336 l 174 336 b 174 335 174 335 175 335 b 174 334 173 334 172 334 b 171 334 170 334 169 333 z m 164 324 l 163 324 l 163 327 l 164 327 z m 178 293 l 178 288 l 176 288 l 176 290 b 175 291 175 292 175 293 z m 185 273 b 186 273 186 273 187 274 l 188 274 l 188 268 l 186 268 l 186 271 b 185 272 185 272 185 273 z m 197 256 b 200 255 202 252 201 247 b 199 248 197 250 196 251 b 195 252 194 253 193 253 b 192 253 192 253 191 254 b 189 256 188 258 187 259 z m 188 251 l 191 251 l 191 248 l 185 248 l 185 250 b 186 250 187 250 188 251 z m 191 245 l 191 238 l 189 238 l 189 245 z m 189 231 b 193 234 196 236 199 239 l 201 237 l 198 231 l 198 223 b 195 225 192 228 189 231 z m 210 215 l 209 215 l 209 221 l 210 221 z m 199 215 b 198 216 198 216 198 217 b 199 217 200 217 201 218 l 204 218 l 204 215 z m 67 210 b 68 211 68 211 69 211 b 70 211 71 211 72 212 l 72 209 l 67 209 z m 204 208 l 204 202 l 202 202 l 202 208 z m 190 206 b 191 203 192 200 194 199 b 190 198 186 197 190 206 z m 73 195 l 79 195 b 78 194 77 192 77 191 l 74 187 b 73 188 71 186 71 186 b 70 186 70 186 70 187 b 71 187 72 188 72 189 l 73 188 z m 186 188 l 186 190 b 185 190 185 190 185 191 l 191 191 l 191 190 z m 70 173 b 71 174 73 176 75 177 b 76 178 78 179 79 180 l 79 179 b 78 176 75 174 70 173 z m 67 169 l 68 169 l 68 165 l 67 165 z m 60 159 l 60 165 l 62 165 b 62 164 62 163 63 163 b 63 162 62 160 62 160 b 61 159 61 159 60 159 z m 192 162 l 194 162 l 194 159 l 192 159 z m 80 159 l 82 159 l 82 152 l 80 152 z m 203 145 b 202 144 200 144 199 143 b 198 147 197 151 206 147 z m 79 133 l 77 133 l 77 138 l 78 139 b 79 138 79 136 79 133 z m 72 123 l 67 123 l 67 132 l 72 132 z m 198 128 l 198 127 l 195 127 l 195 128 z m 201 117 l 195 117 b 195 118 195 118 194 118 l 201 120 z m 73 110 b 74 109 75 109 76 110 b 77 110 77 110 78 109 b 80 108 82 106 84 103 b 81 100 79 98 76 95 l 74 97 b 74 98 75 99 76 102 z m 90 76 b 86 78 82 77 79 72 b 78 75 78 78 77 81 b 76 83 76 86 75 89 l 81 92 b 82 92 84 93 87 94 b 84 91 83 88 82 85 b 85 83 88 81 91 80 l 103 73 b 98 73 93 74 90 76 z m 69 90 l 63 90 l 63 92 b 64 92 65 92 66 93 l 69 93 z m 198 77 l 195 77 l 195 82 b 196 83 196 83 197 83 b 197 82 197 81 198 80 z m 181 82 l 188 82 l 188 81 l 181 81 z m 105 70 l 104 70 l 104 73 l 105 73 z m 190 70 l 190 67 l 189 67 l 189 70 z m 86 68 b 89 65 91 63 93 62 l 96 54 b 88 61 89 60 86 68 z m 100 60 l 100 67 l 102 67 l 102 60 z m 154 34 b 150 33 148 34 148 37 b 148 40 147 43 145 44 l 129 44 b 128 41 127 39 127 37 l 124 29 b 121 33 119 36 122 44 l 114 44 b 110 47 103 49 106 60 l 112 60 l 112 51 l 115 51 b 115 50 116 50 117 50 b 124 50 129 55 134 60 b 137 53 140 47 149 46 b 156 46 157 41 154 34 z m 165 58 l 158 58 l 158 59 l 165 59 z m 182 46 b 181 47 179 48 176 51 b 179 52 182 54 184 55 l 192 58 b 188 53 185 49 182 46 z m 159 44 l 159 49 l 161 51 l 164 44 z m 101 40 b 101 39 101 37 100 36 b 99 38 98 38 97 37 l 96 38 l 99 41 l 99 40 b 100 42 100 45 100 50 l 101 50 b 102 47 103 45 103 44 b 102 43 101 42 101 40 z m 135 31 l 129 31 l 129 33 l 135 33 z"},";":{"x_min":0,"x_max":186,"ha":186,"o":"m 62 391 b 75 379 87 373 96 374 b 111 375 125 379 132 391 b 131 396 131 401 131 406 b 131 411 130 415 129 420 b 128 425 127 429 127 434 l 127 448 b 126 453 126 457 127 462 l 127 476 b 110 488 92 487 73 487 b 71 484 67 480 62 475 l 62 461 b 62 456 61 452 59 448 b 58 446 57 444 57 442 b 57 439 57 437 56 434 b 59 431 60 427 59 424 b 58 421 58 417 59 414 b 61 410 62 406 62 402 b 61 398 61 394 62 391 z m 92 425 l 93 425 b 94 424 94 422 94 420 l 92 420 z m 139 54 b 138 56 138 58 138 59 b 137 60 137 62 136 64 b 133 67 129 70 124 73 b 116 70 109 67 101 72 b 98 73 96 73 93 72 b 92 71 90 70 89 70 l 84 70 b 77 70 72 69 69 66 b 67 61 65 57 63 54 b 66 47 67 42 68 39 b 65 37 64 34 66 31 b 67 27 66 24 63 22 b 64 19 64 15 63 12 b 62 9 63 5 66 2 l 66 0 b 63 -3 62 -6 63 -9 b 64 -13 64 -16 61 -19 b 64 -21 64 -24 63 -27 b 62 -30 62 -33 65 -35 b 61 -42 63 -45 64 -52 b 65 -57 66 -60 65 -62 b 62 -66 61 -69 63 -72 l 69 -82 b 74 -81 80 -81 86 -81 b 91 -82 97 -80 103 -77 b 112 -70 116 -60 116 -46 b 116 -33 120 -21 127 -10 l 127 -5 b 126 7 127 19 134 30 b 135 31 135 33 135 35 b 134 42 136 47 139 54 z m 99 41 b 101 39 103 37 105 36 l 101 36 b 100 35 99 35 98 35 l 98 38 b 97 38 97 38 97 39 z m 92 34 l 95 34 l 95 33 l 92 33 z m 105 23 l 103 23 l 104 24 z m 97 23 l 97 20 l 93 20 b 92 20 92 20 92 21 b 94 21 96 22 97 23 z m 107 16 l 103 13 b 104 17 105 20 106 21 b 107 20 108 20 109 20 b 109 19 110 19 111 18 b 110 17 108 16 107 16 z m 100 15 b 99 14 98 14 98 14 l 97 14 l 99 16 b 100 16 100 16 100 15 z m 95 11 b 94 9 92 7 90 6 b 90 8 90 10 89 11 z m 102 1 b 101 0 100 0 100 -1 b 100 -4 100 -5 99 -5 l 95 -5 b 94 -6 92 -7 90 -7 l 90 -5 b 92 -5 94 -5 95 -4 l 95 -5 b 95 -2 96 1 98 2 b 99 3 101 5 102 7 l 106 3 b 105 2 103 1 102 1 z m 86 3 l 85 3 l 85 6 l 86 6 z m 93 -15 b 94 -14 95 -13 97 -13 l 97 -15 z m 87 -18 l 87 -16 b 91 -16 90 -18 87 -18 z m 102 -23 l 95 -23 b 97 -22 98 -21 99 -20 b 100 -20 101 -20 102 -19 z"},"J":{"x_min":0,"x_max":250,"ha":250,"o":"m 211 340 b 209 343 208 345 209 348 b 210 351 209 353 208 355 b 207 358 206 360 207 362 b 208 364 208 366 209 369 b 210 374 209 379 208 384 b 206 389 205 394 205 399 l 205 451 l 205 455 b 204 456 204 457 205 458 b 208 463 210 467 209 472 b 208 476 208 480 209 484 b 209 486 208 488 207 490 b 205 491 205 493 208 495 b 209 496 210 498 209 501 b 208 504 209 506 211 508 b 214 511 213 515 210 518 b 207 523 209 535 210 544 l 212 558 b 209 563 208 567 205 571 b 208 575 210 577 207 584 b 204 587 203 594 206 597 b 209 604 209 617 208 626 b 207 630 208 634 211 638 b 212 641 212 643 211 644 b 208 647 207 651 208 655 l 208 667 b 208 674 207 681 204 686 b 201 687 197 689 194 691 b 186 694 180 697 172 696 b 167 695 163 697 158 700 b 149 690 140 681 130 672 l 133 656 b 133 651 134 645 135 640 l 135 635 b 134 632 135 630 136 629 b 138 627 138 625 136 624 b 134 623 133 621 134 619 b 135 617 136 615 135 613 b 134 611 134 609 135 608 b 136 599 138 591 135 583 b 134 581 135 578 136 574 b 139 559 139 544 136 529 b 136 527 136 525 135 523 b 134 520 134 518 135 517 b 138 512 137 507 134 504 b 127 485 132 472 137 457 b 136 450 135 444 135 439 l 132 424 b 133 421 133 419 134 418 b 134 416 134 414 135 412 b 136 409 136 405 135 402 b 134 399 135 395 137 392 b 138 391 139 388 139 385 b 139 382 138 379 137 377 b 136 374 135 372 135 370 l 135 362 b 134 343 134 325 135 306 b 135 301 136 297 137 294 b 139 288 139 282 137 277 b 136 275 135 272 135 267 l 135 233 b 134 221 134 209 135 198 b 135 195 136 191 137 188 b 138 185 138 182 137 179 b 136 176 135 173 135 171 l 135 162 b 134 161 134 160 135 159 b 135 158 135 157 134 156 b 130 150 129 144 132 139 b 134 134 136 128 137 123 b 135 118 133 112 131 107 l 125 92 b 122 91 119 89 117 88 b 115 87 113 85 110 84 b 109 87 107 88 105 87 b 102 86 100 86 98 87 l 90 95 b 90 99 90 103 89 107 b 87 114 84 128 84 132 l 86 146 b 87 149 87 152 87 155 b 87 158 86 160 85 163 b 84 165 83 167 84 169 b 84 171 84 173 83 175 b 83 182 84 190 86 197 b 88 204 88 211 87 218 b 86 219 86 219 87 220 b 89 223 90 225 90 227 b 90 229 89 232 88 235 b 86 241 83 246 80 249 b 73 250 67 252 62 253 l 45 256 b 42 255 39 254 36 254 b 33 254 29 254 26 253 b 24 250 22 248 20 246 b 17 244 15 242 13 239 l 13 233 b 13 230 13 228 12 226 b 11 223 12 221 13 220 b 16 218 16 216 15 215 b 14 213 13 211 13 210 b 13 207 13 204 12 201 b 11 198 10 195 10 192 b 10 189 11 186 12 184 b 15 179 19 172 16 169 b 12 165 11 159 15 156 b 16 154 16 151 15 148 b 10 137 11 127 16 116 b 15 114 15 112 14 111 b 13 110 13 108 13 107 b 14 98 15 89 18 80 l 21 67 b 22 62 23 57 24 52 l 39 38 b 44 33 49 27 54 21 b 65 8 79 4 95 4 b 96 3 98 3 100 4 b 101 4 103 4 104 3 b 112 -2 121 -2 131 3 b 134 4 138 6 141 7 l 150 10 b 165 17 178 23 187 38 b 194 49 201 61 208 73 b 209 82 209 91 208 100 b 207 109 208 118 211 127 b 212 128 212 129 211 130 b 208 136 207 142 208 148 b 209 154 209 160 208 166 b 208 167 207 169 206 172 b 211 183 214 192 211 203 b 209 209 208 215 208 221 b 209 228 209 235 208 242 b 207 248 208 255 211 262 b 212 265 212 269 211 276 b 211 278 211 280 210 283 b 209 285 208 287 208 289 b 209 296 209 303 208 310 b 207 317 208 324 211 331 b 212 334 214 339 211 340 z m 169 651 b 169 650 169 649 170 648 b 170 647 170 646 170 645 l 167 645 b 166 644 164 644 161 643 z m 173 639 l 170 639 b 169 638 168 638 167 638 l 167 641 l 172 641 b 173 640 173 640 173 639 z m 185 634 l 185 625 b 183 630 181 633 180 634 z m 174 621 l 175 621 b 176 620 176 617 176 613 l 174 613 z m 186 608 l 186 607 l 183 607 l 183 608 z m 170 583 l 170 589 b 171 589 172 589 173 590 l 175 590 b 177 585 175 583 170 583 z m 184 573 b 182 572 180 571 179 570 b 178 569 176 567 174 566 b 177 573 177 572 184 573 z m 168 558 l 168 561 l 169 561 l 169 558 z m 179 545 b 180 546 180 548 180 549 b 180 550 180 552 181 553 b 185 550 187 549 191 545 z m 176 530 b 175 529 175 529 174 529 l 171 539 b 172 540 174 542 176 543 z m 176 520 l 164 520 b 164 522 164 523 163 524 b 169 527 173 526 176 520 z m 183 519 l 183 526 l 185 526 l 185 519 z m 178 516 b 177 517 177 517 177 518 l 176 519 l 177 520 b 177 519 178 518 179 517 b 178 517 178 517 178 516 z m 182 503 l 180 503 l 180 510 l 182 510 z m 172 485 l 167 485 l 167 486 b 168 487 170 487 172 487 z m 175 475 b 174 476 172 478 171 481 l 179 481 l 179 470 b 178 472 176 474 175 475 z m 172 466 b 171 464 170 462 169 461 l 173 457 l 168 452 b 167 455 166 458 167 461 b 168 464 167 467 166 470 b 167 471 169 471 170 471 b 171 471 172 471 174 472 b 173 469 172 467 172 466 z m 177 446 l 177 452 l 179 452 l 179 446 z m 173 432 b 174 431 175 429 176 428 l 176 427 b 175 427 175 427 175 426 b 172 427 170 429 167 430 l 167 439 b 167 442 169 444 174 446 b 172 443 171 439 170 435 z m 164 408 b 165 411 167 415 168 420 l 171 420 b 172 419 173 419 174 419 l 172 416 b 171 415 171 413 170 412 b 171 411 173 411 174 410 b 175 409 177 408 179 407 b 172 403 167 403 164 408 z m 167 392 l 167 394 l 173 394 l 173 392 z m 181 375 l 177 375 l 177 381 l 178 382 l 180 379 b 180 378 180 376 181 375 z m 167 370 l 167 371 l 170 371 l 170 370 z m 176 366 b 177 367 178 367 179 367 l 179 358 b 176 361 174 363 173 365 b 174 365 175 365 176 366 z m 174 341 b 175 343 177 345 178 346 b 179 347 181 349 182 352 l 182 340 b 181 340 180 340 179 341 z m 170 347 l 170 348 l 173 348 l 173 347 z m 166 344 l 166 336 b 165 339 164 342 163 343 b 164 343 165 343 166 344 z m 186 330 b 183 329 182 328 181 327 b 180 326 178 326 177 325 l 177 330 z m 186 308 l 181 308 b 182 311 184 313 185 314 b 186 313 186 311 186 308 z m 170 306 l 170 307 l 173 307 l 173 306 z m 182 288 b 181 287 179 285 177 284 l 177 288 b 176 289 176 290 176 291 l 188 291 b 185 290 183 289 182 288 z m 172 289 l 172 286 l 167 286 l 167 288 b 169 288 171 288 172 289 z m 180 273 l 180 275 l 185 275 b 185 274 185 274 186 274 b 185 273 183 273 180 273 z m 173 263 b 173 266 172 267 169 268 b 174 271 176 270 176 267 b 176 264 178 262 181 261 b 176 259 173 260 173 263 z m 185 241 l 184 241 l 184 244 l 185 244 z m 172 239 b 175 242 178 242 179 240 b 180 237 180 235 181 234 b 179 235 176 236 172 239 z m 167 217 b 167 220 166 222 164 223 b 166 225 167 227 168 228 b 169 225 171 221 172 216 b 168 213 166 214 167 217 z m 60 214 l 60 209 l 59 209 b 58 210 58 212 58 214 z m 177 212 l 177 214 l 182 214 l 182 213 l 180 213 b 179 212 178 212 177 212 z m 183 202 l 178 202 b 179 205 181 207 182 209 b 182 208 182 207 183 206 z m 174 201 b 175 198 177 196 178 195 b 179 194 180 192 181 190 b 178 190 175 190 174 189 z m 54 187 b 47 187 43 191 42 198 b 47 196 51 192 54 187 z m 58 195 l 64 195 l 64 193 l 58 193 z m 183 175 b 179 174 175 172 171 171 l 167 175 b 169 177 170 179 171 180 l 177 180 b 179 179 181 179 183 179 z m 56 167 b 56 166 56 166 57 166 l 57 164 b 57 163 57 163 58 162 b 58 161 57 159 55 156 l 54 155 l 54 153 l 51 150 b 52 151 52 152 52 153 b 52 153 52 154 53 155 l 54 155 l 54 156 b 53 156 53 156 53 157 b 54 160 55 163 55 166 z m 176 166 l 179 166 l 179 161 l 177 161 b 177 163 177 165 176 166 z m 174 148 l 174 151 l 175 151 l 175 148 z m 48 149 l 45 149 l 45 150 l 48 150 z m 164 138 l 164 143 b 164 144 164 147 163 150 b 165 148 166 147 167 146 l 170 143 b 167 142 167 141 164 138 z m 57 147 l 57 142 l 56 142 b 55 143 55 143 55 144 b 55 145 55 146 54 147 z m 175 125 l 171 128 b 170 128 168 129 167 130 b 167 132 167 134 168 135 b 174 134 176 130 175 125 z m 53 113 b 52 113 50 113 49 112 l 49 124 b 50 122 52 120 53 119 b 54 118 55 116 56 114 b 55 113 54 113 53 113 z m 61 124 l 61 123 l 58 123 l 58 124 z m 182 111 b 181 113 180 115 179 116 b 178 117 176 119 175 121 b 177 122 179 122 182 122 z m 171 104 b 172 107 174 109 175 111 b 176 103 176 103 171 104 z m 70 106 l 70 103 l 65 103 l 65 104 b 64 104 64 104 64 105 b 65 105 66 105 67 106 z m 60 95 l 56 99 l 57 99 b 58 99 58 99 59 100 l 60 100 z m 168 94 b 168 94 169 93 170 92 b 169 90 168 87 165 83 b 164 84 164 85 163 86 l 161 89 b 164 90 165 91 168 94 z m 72 86 b 70 85 68 84 67 83 b 66 82 64 80 62 79 b 61 81 61 83 61 86 z m 48 81 l 42 81 l 42 83 l 48 83 z m 161 82 b 158 75 153 73 146 76 z m 78 80 b 80 77 82 75 85 72 b 84 71 83 71 82 71 b 81 71 79 71 78 70 z m 168 76 b 167 75 165 74 164 73 l 164 77 b 163 78 163 79 163 80 l 173 80 b 171 78 169 77 168 76 z m 57 71 l 55 71 l 55 77 l 57 77 z m 137 74 b 137 73 137 72 138 71 l 138 68 b 136 69 135 71 135 74 z m 73 73 b 73 72 73 72 74 71 l 74 69 b 69 66 64 66 65 59 b 64 61 63 65 62 70 b 64 71 68 72 73 73 z m 161 65 l 157 69 b 160 71 163 71 164 70 l 167 66 b 164 64 162 64 161 65 z m 92 50 b 91 49 90 47 88 45 l 84 49 b 83 50 81 52 80 54 l 80 63 l 89 69 l 91 67 b 91 66 91 66 92 65 b 93 64 95 62 99 59 b 96 58 93 58 92 58 b 90 58 88 58 85 57 z m 147 50 b 143 48 141 44 140 39 l 135 39 l 138 47 b 138 49 139 51 140 54 b 139 55 137 55 135 55 b 132 55 129 55 126 56 b 131 59 134 60 138 63 l 138 66 b 140 65 142 63 143 61 l 152 65 b 153 63 154 60 156 56 z m 117 60 b 117 60 119 59 123 56 b 116 55 116 55 117 60 z m 77 53 l 65 45 b 65 46 64 47 63 50 l 70 53 b 72 53 74 54 76 55 b 76 54 76 54 77 54 z m 114 46 b 112 45 110 45 109 45 b 110 41 112 37 113 34 b 112 33 109 32 105 31 b 103 33 104 38 109 45 l 109 53 b 113 50 116 49 121 46 z m 127 41 b 126 42 125 46 123 51 b 128 52 130 50 130 47 b 130 44 131 41 132 39 b 129 38 128 39 127 41 z m 101 46 b 100 47 98 48 94 50 b 102 51 102 51 101 46 z m 88 32 l 86 35 b 85 35 85 36 84 37 l 84 46 b 85 43 87 40 88 39 b 89 37 89 35 90 34 z m 76 39 l 75 39 b 74 40 74 42 74 44 b 75 44 75 44 75 45 l 76 45 z"},"V":{"x_min":0,"x_max":252,"ha":252,"o":"m 235 677 l 232 686 b 229 688 227 690 225 693 l 218 700 b 213 699 207 699 202 698 b 196 697 190 697 185 696 b 176 688 168 679 171 666 l 174 660 b 175 658 175 656 174 655 b 173 652 172 650 173 648 b 173 645 172 643 171 642 b 170 639 169 637 169 635 b 169 633 169 631 168 628 l 165 615 b 164 613 164 611 164 609 b 164 607 163 605 162 602 b 161 600 160 597 160 594 b 160 591 162 588 165 586 b 163 584 162 583 162 582 b 162 578 162 574 161 570 b 160 566 161 562 162 558 b 163 556 164 554 163 553 b 162 550 161 545 162 541 b 162 538 162 536 161 534 b 160 530 158 526 157 523 b 156 519 155 515 156 511 b 157 506 156 502 155 499 b 153 495 152 491 152 486 b 153 475 152 468 149 457 b 148 454 148 452 147 450 b 146 448 145 445 145 442 b 146 440 146 438 145 436 b 144 433 143 431 143 428 b 143 425 143 422 144 420 b 145 417 145 414 146 411 l 146 408 b 143 403 141 399 142 394 b 143 391 143 388 142 386 l 139 377 b 138 364 134 352 130 339 b 129 339 128 338 128 337 l 121 337 b 120 341 118 344 117 346 l 117 368 b 117 371 116 375 115 378 b 114 381 113 385 113 389 b 113 404 111 420 110 436 l 110 439 b 106 450 103 461 104 473 b 105 481 103 489 100 496 b 99 500 98 503 98 507 b 97 513 97 519 98 525 l 98 543 b 98 546 98 549 97 551 b 96 558 95 563 95 566 l 97 580 b 98 583 98 586 97 589 b 92 601 90 613 91 624 b 92 632 90 639 87 647 b 86 651 85 655 85 658 l 85 676 l 84 677 b 83 677 83 677 82 678 b 77 691 68 697 55 697 b 54 697 52 698 50 699 b 48 700 46 700 45 700 b 43 700 41 700 40 699 b 38 698 36 697 34 697 b 26 697 19 694 14 689 b 14 688 14 686 15 685 b 15 683 15 681 14 680 b 9 672 11 666 14 658 b 17 649 19 639 20 630 b 21 625 21 621 21 617 b 20 608 21 598 23 590 b 24 585 24 581 24 576 b 24 569 25 562 27 555 b 28 548 28 541 27 534 b 29 531 30 528 30 525 b 29 522 29 519 30 516 b 31 508 33 501 36 494 b 35 491 33 482 34 477 b 35 474 35 471 36 468 l 39 446 b 42 430 44 417 44 408 b 43 399 44 388 45 380 b 45 375 45 371 46 366 b 47 362 47 358 47 355 b 46 347 47 340 50 336 b 51 334 52 332 52 330 b 53 323 54 317 56 311 b 57 304 57 297 56 290 b 55 285 55 280 56 276 b 56 271 56 266 56 261 l 56 257 b 55 255 56 253 57 252 b 59 249 60 245 60 241 b 59 237 60 233 62 230 b 65 225 64 220 60 215 b 58 212 58 209 59 207 b 67 194 66 180 65 167 b 65 159 66 152 69 145 l 75 121 b 76 118 75 114 74 110 b 71 103 71 95 74 86 b 75 80 77 74 78 67 b 81 54 82 42 82 31 b 82 25 84 19 87 13 b 88 11 90 9 93 7 b 95 5 97 3 99 0 b 103 5 109 6 112 3 b 115 1 117 0 119 1 b 121 1 123 1 125 0 b 134 -1 143 1 148 4 b 155 9 158 12 162 16 b 159 36 163 56 167 75 b 166 77 166 79 165 81 b 164 82 164 84 165 85 b 170 97 171 108 171 120 b 171 123 171 127 172 130 b 172 136 175 143 178 149 b 179 152 178 155 175 158 b 172 159 175 164 176 167 b 176 170 177 173 178 177 b 179 184 179 192 180 199 b 180 206 180 214 181 221 l 181 222 b 186 238 188 254 187 269 b 187 274 188 279 190 283 b 192 287 192 292 191 297 b 194 300 196 304 195 308 b 194 312 194 316 195 319 b 197 322 198 326 198 330 b 197 334 197 338 197 342 l 197 354 b 196 358 197 362 198 365 b 201 372 202 379 203 386 l 206 407 b 207 415 208 423 208 431 b 207 439 208 447 209 454 b 212 462 213 469 213 477 l 213 503 b 213 504 213 504 214 505 b 215 506 215 507 215 508 b 216 513 218 519 219 525 b 220 531 222 537 223 542 b 223 547 223 550 222 551 b 219 560 219 567 222 573 b 223 574 224 576 223 578 b 221 582 222 586 224 591 b 225 593 225 595 226 598 l 229 607 b 230 610 229 613 226 616 b 227 619 227 623 226 627 b 225 630 226 634 228 637 b 231 642 232 647 233 652 b 233 657 234 662 235 667 b 236 670 236 674 235 677 z m 47 642 l 49 642 l 49 636 l 47 636 z m 57 642 b 60 638 60 637 63 634 b 62 633 61 633 60 633 b 59 633 58 633 57 632 z m 56 620 b 56 620 57 620 58 620 l 58 615 l 54 619 b 55 619 55 619 56 620 z m 56 601 l 56 606 b 57 606 57 606 58 607 b 58 606 58 605 59 604 l 59 601 z m 59 593 l 62 593 l 62 592 l 59 592 z m 47 573 b 51 575 54 576 55 576 b 56 574 56 573 55 573 b 54 572 52 572 47 573 z m 54 560 b 53 562 53 564 53 565 b 53 566 53 567 52 568 l 64 568 b 60 565 57 563 54 560 z m 65 564 l 69 564 l 69 563 l 65 563 z m 71 549 l 71 543 l 69 543 l 69 549 z m 56 531 b 55 530 54 530 53 530 l 53 532 l 58 532 b 59 531 59 531 59 531 z m 65 502 l 65 503 l 72 503 l 72 502 z m 75 477 l 78 477 l 78 476 l 75 476 z m 71 466 l 71 462 l 70 462 l 70 466 z m 75 455 l 75 454 l 72 454 l 72 455 z m 74 420 b 75 421 77 423 78 426 l 78 414 b 76 415 73 415 70 415 b 71 417 73 419 74 420 z m 81 413 l 85 413 l 85 412 l 81 412 z m 75 399 b 79 402 81 403 84 406 b 84 405 84 404 85 403 l 85 399 z m 75 374 l 72 374 l 72 375 l 75 375 z m 89 363 b 90 362 91 361 91 360 b 90 360 89 361 88 362 b 89 362 89 362 89 363 z m 93 357 l 91 359 b 92 359 93 359 94 358 z m 91 353 l 94 353 l 94 347 l 92 347 l 92 350 b 91 351 91 352 91 353 z m 165 343 l 168 339 b 165 337 163 337 162 338 l 158 342 b 161 344 164 344 165 343 z m 101 343 l 104 343 l 104 342 l 101 342 z m 100 334 b 101 333 101 331 101 328 b 103 326 104 324 104 322 b 101 321 101 323 101 325 b 101 326 101 327 100 328 l 95 328 l 95 331 b 94 331 94 332 94 333 b 95 334 97 334 100 334 z m 157 334 l 161 334 b 162 333 162 333 162 332 l 156 329 l 152 333 b 153 333 155 333 157 334 z m 143 329 b 144 330 146 330 147 331 l 148 331 b 148 330 148 330 149 330 b 148 328 146 326 143 323 b 144 322 144 321 145 321 l 148 318 b 149 319 151 319 153 320 b 154 320 156 321 157 322 b 152 315 156 309 159 304 b 158 303 156 302 155 302 b 153 301 151 300 150 299 b 149 302 147 304 146 306 b 146 307 146 308 147 309 l 149 312 b 147 314 146 315 147 315 b 142 315 139 319 139 326 z m 166 325 b 165 325 165 326 165 327 b 168 327 169 327 170 328 b 171 327 171 326 171 325 z m 89 324 l 91 322 l 91 321 l 97 321 l 97 315 l 90 320 l 91 321 l 90 322 b 89 322 89 322 88 323 z m 90 310 l 89 311 l 103 311 b 104 312 104 314 104 315 b 104 316 104 318 105 319 b 109 316 112 314 117 314 b 117 312 117 310 116 309 b 111 308 106 308 101 308 l 85 305 b 85 306 85 306 84 307 z m 132 319 b 132 317 132 315 133 314 l 133 306 b 131 308 130 310 129 311 l 126 313 z m 120 317 l 123 317 l 123 316 l 120 316 z m 165 309 l 165 306 l 162 306 l 162 311 l 164 311 b 164 310 164 310 165 309 z m 93 273 l 96 267 b 98 267 100 268 101 269 b 102 270 104 273 107 280 b 106 283 104 285 102 288 b 100 290 98 292 97 295 b 102 299 106 302 109 305 b 112 302 115 299 119 296 b 122 301 124 306 125 309 b 126 308 127 306 128 304 b 129 302 130 300 131 299 b 131 299 130 297 129 293 l 125 293 b 124 292 122 292 120 292 b 121 290 123 287 124 283 b 125 285 128 286 131 286 b 134 285 134 287 133 292 l 151 292 b 152 293 152 294 153 294 l 154 295 b 155 295 155 295 155 294 b 154 294 153 293 152 292 l 152 293 b 149 289 148 286 147 284 l 144 287 b 143 288 141 289 140 290 l 140 282 b 139 279 139 277 139 274 l 141 274 b 142 275 143 276 144 279 l 149 279 b 148 278 147 276 145 274 b 146 273 148 271 150 270 l 155 265 b 154 262 154 260 153 258 b 152 256 152 254 151 251 b 147 249 143 251 139 256 l 142 268 b 131 268 130 267 126 258 b 125 253 122 250 117 251 b 119 256 121 260 124 265 b 121 266 120 267 117 270 l 99 260 b 96 262 94 264 92 266 b 89 267 86 270 83 273 z m 146 298 l 146 297 l 142 297 l 142 298 z m 96 280 l 92 276 b 91 279 90 283 91 286 b 92 289 92 292 93 295 b 94 292 94 290 95 288 b 95 286 95 283 96 280 z m 166 282 l 163 276 b 162 277 161 277 161 277 b 160 277 159 277 158 278 b 159 285 161 284 168 287 b 167 285 166 283 166 282 z m 155 282 l 155 281 l 152 281 l 152 282 z m 93 260 l 93 257 l 92 257 l 92 260 z m 150 171 b 149 170 148 169 148 168 l 145 165 l 143 165 b 142 166 141 168 140 170 l 136 174 l 130 174 b 129 171 128 170 127 171 b 126 171 124 171 123 170 b 122 167 120 165 118 162 l 111 152 b 112 157 112 162 113 166 b 113 169 113 173 114 177 b 111 178 109 178 108 179 b 106 180 104 180 101 181 l 101 187 b 100 189 100 191 100 193 l 109 202 b 108 202 105 206 105 210 b 104 212 104 215 103 218 l 97 224 l 104 226 l 104 234 b 102 233 100 232 98 231 l 90 226 b 92 229 94 232 95 235 l 98 241 b 95 242 93 243 94 244 b 95 245 95 247 94 248 b 98 251 103 254 108 258 b 109 255 110 252 111 250 l 114 241 l 107 241 l 110 237 b 110 235 111 233 112 231 l 115 238 b 116 237 118 235 121 234 l 130 222 l 133 228 b 134 230 134 232 131 235 b 130 236 129 238 130 241 l 130 247 b 127 248 126 249 127 249 b 127 250 127 250 128 250 l 130 248 l 130 247 l 136 247 b 135 244 133 242 132 241 b 134 239 136 236 139 232 b 139 224 139 225 130 222 b 129 219 127 218 125 219 b 123 220 121 220 120 219 l 117 209 b 120 210 122 211 127 214 l 123 206 l 123 200 l 117 200 l 117 209 b 114 207 113 205 113 203 b 113 201 114 199 115 196 l 118 190 b 119 191 121 191 122 192 b 123 192 125 193 127 194 b 126 192 125 191 125 190 b 124 189 124 187 123 186 l 130 186 l 130 196 b 131 193 132 192 132 191 b 132 190 131 189 130 187 b 131 183 133 182 134 183 l 138 186 b 139 185 140 184 143 183 b 144 184 146 185 147 186 l 150 184 b 150 183 151 183 152 182 b 151 181 149 180 147 179 b 145 178 143 176 142 175 b 145 174 147 173 150 171 z m 85 251 l 85 256 b 86 257 86 257 87 257 b 87 256 87 255 88 254 l 88 251 z m 151 229 b 151 228 151 227 152 226 b 151 225 150 225 150 224 l 147 222 l 143 226 b 144 229 145 229 146 232 l 143 236 b 142 237 140 239 139 240 l 143 243 b 144 243 146 243 147 244 b 148 245 150 245 151 246 b 152 246 154 246 156 247 b 153 240 152 236 149 231 b 150 230 150 229 151 229 z m 130 213 b 134 214 137 216 140 218 b 142 219 145 219 148 218 b 143 211 143 212 130 213 z m 138 202 b 135 201 135 200 132 199 b 130 201 128 203 126 204 b 127 205 129 206 131 207 b 133 208 135 209 136 210 l 151 195 b 148 194 143 192 138 189 b 137 190 136 191 136 192 b 137 193 140 194 144 197 b 141 199 139 201 138 202 z m 94 207 b 93 206 91 206 89 206 b 89 207 89 207 88 208 l 94 208 z m 138 159 l 138 157 b 138 157 139 155 140 151 l 137 153 b 136 154 135 154 134 154 l 128 151 b 126 154 126 156 127 157 l 130 160 l 131 161 b 134 163 136 164 137 164 b 138 164 138 164 139 163 l 138 162 b 138 161 138 161 137 160 b 137 159 137 159 138 159 z m 100 154 l 98 154 l 98 161 l 100 161 z m 123 159 b 124 160 124 160 125 160 l 125 159 z m 141 115 b 137 122 133 121 130 121 b 128 121 126 121 123 122 b 124 118 125 115 128 108 b 126 109 125 110 124 111 b 123 111 122 112 121 113 l 121 102 l 128 105 b 131 102 133 100 135 97 b 134 96 134 96 133 96 l 129 93 b 130 92 130 92 130 91 b 134 91 137 91 139 92 l 140 89 l 133 86 b 133 82 133 79 132 77 b 131 78 129 80 126 81 l 126 73 b 121 75 117 77 114 79 l 114 83 b 119 81 123 80 126 81 l 126 86 b 124 86 122 87 120 89 l 128 92 b 123 93 121 94 118 94 b 117 97 117 99 117 102 b 116 105 115 108 114 111 l 120 127 b 119 128 119 130 118 131 b 117 132 117 134 117 135 b 117 138 116 139 115 139 b 111 138 110 141 110 144 b 109 145 108 147 107 149 b 110 148 112 147 114 147 b 115 146 117 145 119 144 b 120 146 120 148 118 150 b 115 151 116 153 120 154 b 121 154 122 154 122 153 b 125 148 126 144 133 145 b 133 146 134 147 135 148 b 135 147 135 147 136 147 l 133 144 b 134 144 134 143 134 143 b 134 142 134 141 135 140 b 138 142 141 145 144 148 b 147 145 145 143 144 140 l 141 134 b 139 135 137 135 136 136 b 134 136 132 136 130 137 l 130 130 l 134 126 l 140 126 b 141 125 144 125 147 125 b 146 122 144 119 141 115 z m 133 144 l 133 145 z m 101 132 l 103 132 b 103 130 103 129 104 128 b 102 129 101 130 101 132 z m 106 106 l 101 111 l 103 113 b 103 114 104 115 105 116 b 103 118 102 120 101 121 l 104 124 b 111 119 110 115 110 111 b 108 109 107 107 106 106 z m 139 112 l 139 110 l 133 110 l 133 112 z m 103 97 l 102 97 l 102 103 l 103 103 z m 111 86 l 112 87 b 112 86 113 85 114 84 b 113 84 112 85 111 86 z m 134 72 b 135 75 137 77 138 79 b 139 71 139 71 134 72 z m 114 68 l 114 73 l 116 75 l 119 68 z m 129 63 b 128 62 127 60 127 59 b 126 58 126 55 126 51 b 124 52 122 52 120 52 l 123 58 l 118 58 b 119 61 121 63 124 64 b 126 65 129 67 132 70 b 131 67 130 64 129 63 z m 111 55 b 111 56 111 56 110 57 b 111 57 112 57 113 58 l 115 58 b 115 56 114 55 111 55 z m 133 43 l 130 43 l 130 44 l 133 44 z m 123 36 l 121 36 l 121 39 b 120 39 120 40 120 41 b 121 41 122 41 123 42 z"},"\"":{"x_min":0,"x_max":309,"ha":309,"o":"m 136 685 b 131 687 126 691 120 696 b 109 692 103 688 92 695 b 89 696 86 696 83 695 b 80 692 76 691 71 692 b 63 692 57 690 54 687 l 48 673 b 49 670 51 667 53 664 l 57 654 b 53 652 52 649 54 645 b 56 640 55 637 52 634 b 53 629 54 625 53 621 b 52 617 54 613 58 608 l 58 607 b 54 604 53 600 55 595 b 57 590 57 587 54 584 b 57 581 59 578 58 574 b 57 570 59 567 63 564 b 58 557 60 550 63 543 b 64 539 66 534 65 531 b 62 526 62 521 65 518 b 68 515 70 511 72 507 b 79 508 86 508 93 507 b 100 506 107 508 114 513 b 125 521 127 535 126 551 b 125 566 128 581 133 595 l 133 601 b 130 616 130 629 137 644 b 138 646 138 648 137 650 b 136 658 138 665 141 673 b 140 678 139 680 136 685 z m 276 673 b 275 678 274 680 271 685 b 266 687 261 691 255 696 b 244 692 238 688 227 695 b 224 696 221 696 218 695 b 215 692 211 691 206 692 b 198 692 192 690 189 687 l 183 673 b 184 670 186 667 188 664 l 192 654 b 188 652 187 649 189 645 b 191 640 190 637 187 634 b 188 629 189 625 188 621 b 187 617 189 613 193 608 l 193 607 b 189 604 188 600 190 595 b 192 590 192 587 189 584 b 192 581 194 578 193 574 b 192 570 194 567 198 564 b 193 557 195 550 198 543 b 199 539 201 534 200 531 b 197 526 197 521 200 518 b 203 515 205 511 207 507 b 214 508 221 508 228 507 b 235 506 242 508 249 513 b 260 521 262 535 261 551 b 260 566 263 581 268 595 l 268 601 b 265 616 265 629 272 644 b 273 646 273 648 272 650 b 271 658 273 665 276 673 z m 92 655 b 92 656 92 656 93 656 l 93 657 b 94 656 96 655 97 654 l 100 651 b 98 650 96 650 93 650 b 92 651 92 653 92 654 z m 227 655 b 227 656 227 656 228 656 l 228 657 b 229 656 231 655 232 654 l 235 651 b 233 650 231 650 228 650 b 227 651 227 653 227 654 z m 86 648 l 90 648 l 90 647 l 86 647 z m 221 648 l 225 648 l 225 647 l 221 647 z m 101 636 l 102 636 b 103 635 103 635 103 634 b 102 634 102 634 102 635 l 100 635 b 100 636 100 636 101 636 z m 236 636 l 237 636 b 238 635 238 635 238 634 b 237 634 237 634 237 635 l 235 635 b 235 636 235 636 236 636 z m 93 634 l 94 630 l 88 630 b 88 631 88 632 87 633 b 88 633 90 633 91 634 z m 228 634 l 229 630 l 223 630 b 223 631 223 632 222 633 b 223 633 225 633 226 634 z m 107 625 b 105 624 103 623 102 622 b 103 624 103 626 103 628 b 103 629 103 631 104 633 b 105 632 107 631 108 631 b 109 630 110 629 111 628 z m 242 625 b 240 624 238 623 237 622 b 238 624 238 626 238 628 b 238 629 238 631 239 633 b 240 632 242 631 243 631 b 244 630 245 629 246 628 z m 98 625 b 98 625 97 624 96 623 l 96 624 b 96 625 98 626 98 625 z m 233 625 b 233 625 232 624 231 623 l 231 624 b 231 625 233 626 233 625 z m 92 620 b 92 617 90 615 87 614 l 87 617 b 86 618 86 619 86 620 z m 227 620 b 227 617 225 615 222 614 l 222 617 b 221 618 221 619 221 620 z m 103 608 b 101 607 100 605 100 604 b 100 602 99 601 98 601 l 94 601 b 93 599 91 598 88 598 l 88 600 b 89 601 91 601 94 601 b 93 604 94 607 97 609 b 99 611 101 613 102 615 b 104 613 106 612 107 611 z m 238 608 b 236 607 235 605 235 604 b 235 602 234 601 233 601 l 229 601 b 228 599 226 598 223 598 l 223 600 b 224 601 226 601 229 601 b 228 604 229 607 232 609 b 234 611 236 613 237 615 b 239 613 241 612 242 611 z m 82 611 l 81 611 l 81 614 l 82 614 z m 217 611 l 216 611 l 216 614 l 217 614 z m 93 587 b 94 590 95 591 98 591 l 98 589 b 97 589 95 588 93 587 z m 228 587 b 229 590 230 591 233 591 l 233 589 b 232 589 230 588 228 587 z m 87 585 b 86 586 86 586 86 587 b 89 587 90 588 91 589 b 90 586 89 585 87 585 z m 222 585 b 221 586 221 586 221 587 b 224 587 225 588 226 589 b 225 586 224 585 222 585 z m 97 579 b 100 580 103 582 105 584 l 107 579 z m 232 579 b 235 580 238 582 240 584 l 242 579 z"},"7":{"x_min":0,"x_max":259,"ha":259,"o":"m 202 694 b 199 695 195 697 192 699 b 188 700 184 700 181 699 b 178 698 175 697 173 697 l 165 697 b 161 696 157 696 152 697 b 147 698 143 697 140 696 b 131 694 124 693 118 694 l 107 694 b 103 693 99 694 95 696 b 92 699 86 696 81 695 l 72 692 b 69 690 65 690 62 691 b 59 692 55 693 52 693 l 42 693 b 35 688 31 683 27 679 b 26 673 25 667 26 662 b 27 656 26 650 24 644 b 23 639 23 635 25 631 b 26 626 28 622 29 617 b 30 614 32 612 35 611 b 38 610 40 608 41 607 b 46 606 52 606 57 607 b 62 608 67 606 72 603 b 77 600 80 600 83 603 b 86 606 88 607 91 606 b 96 605 103 607 108 608 b 112 609 122 610 131 610 b 135 609 140 609 145 609 l 158 596 l 161 585 b 161 581 161 577 162 573 b 161 570 159 566 156 561 b 156 559 156 557 157 554 b 158 551 157 548 156 546 b 153 543 153 539 154 536 b 155 533 154 530 152 527 b 150 524 149 520 150 517 l 150 507 b 149 500 149 494 150 488 b 151 481 150 475 149 470 b 148 467 148 463 148 460 b 148 456 147 453 146 450 b 144 447 143 443 144 439 b 144 431 144 426 141 421 b 138 414 137 406 137 398 b 137 389 136 381 133 374 l 133 369 b 138 364 139 358 136 352 b 133 346 132 340 133 335 b 130 331 129 327 129 323 l 126 310 b 124 305 123 300 124 296 b 125 291 125 287 124 282 b 123 273 122 265 122 257 b 121 248 121 240 120 231 l 120 228 b 117 226 116 224 117 221 b 118 218 118 216 117 213 b 116 208 114 202 114 197 b 114 182 112 167 108 153 b 107 149 106 145 107 141 b 108 137 107 133 106 129 b 104 126 103 122 103 118 b 103 113 102 109 101 105 b 100 99 99 93 100 87 b 100 80 99 74 98 67 b 95 56 91 45 94 33 b 91 29 90 25 91 21 b 92 16 92 12 91 7 b 99 2 108 1 117 0 l 151 0 b 168 0 179 21 180 37 b 181 45 182 53 185 61 b 186 65 187 69 186 74 b 185 83 186 94 187 103 b 188 111 190 124 191 137 b 191 144 191 151 192 158 b 192 159 193 161 194 162 b 194 169 194 175 195 178 b 196 181 196 184 197 187 b 197 189 197 192 198 195 l 198 196 b 195 198 194 200 195 203 l 195 211 b 195 214 196 218 197 221 b 198 224 199 228 198 231 b 197 234 197 238 198 241 b 199 244 199 248 198 251 b 197 259 198 266 202 272 b 206 279 204 283 201 290 b 200 291 200 292 200 294 b 200 295 200 295 199 295 b 200 302 201 309 202 315 l 205 333 b 206 337 206 341 205 345 b 204 349 205 353 208 357 b 209 358 209 359 208 361 b 207 362 206 364 206 365 b 208 368 209 372 209 376 b 209 380 208 384 207 388 b 206 391 206 395 207 398 b 208 401 208 405 208 408 b 209 415 211 422 214 429 b 213 431 212 433 211 434 b 210 435 210 437 209 438 b 210 444 212 450 213 456 b 214 462 216 468 217 473 b 218 474 218 476 217 477 b 216 478 216 479 216 480 b 215 482 215 484 214 486 b 213 488 214 490 215 491 b 217 493 218 495 218 498 b 217 501 217 503 217 506 b 217 511 217 515 218 520 b 219 524 218 528 215 532 b 214 535 214 537 215 538 b 220 546 218 554 217 561 b 216 566 217 570 218 574 b 219 578 219 582 219 586 b 219 590 220 594 221 599 b 222 603 221 607 218 611 b 215 616 215 620 218 624 b 221 627 222 631 221 634 b 220 637 220 639 221 642 b 223 645 224 649 224 652 l 224 662 l 224 679 b 217 686 211 691 202 694 z m 184 668 b 189 665 190 662 188 661 b 187 660 183 659 178 656 z m 121 658 l 121 661 b 120 661 120 662 120 663 b 121 663 122 664 122 665 b 123 664 125 663 126 662 l 129 659 b 126 658 124 658 121 658 z m 145 633 b 144 635 144 637 144 638 b 143 639 143 640 143 641 b 140 642 136 644 133 646 l 135 648 b 135 649 136 649 137 650 b 136 651 135 651 134 651 b 133 651 131 651 130 652 b 135 657 139 661 142 663 b 143 662 143 660 144 658 l 147 651 l 149 652 l 149 659 b 150 660 152 661 154 662 b 155 662 157 663 158 664 b 158 661 159 659 162 658 b 165 657 167 656 168 654 l 165 642 l 155 642 l 151 638 b 149 637 147 635 145 633 z m 100 648 b 101 648 100 647 98 645 b 100 643 101 641 101 639 l 99 639 b 98 640 98 641 98 642 b 98 643 98 644 97 645 l 92 645 l 92 641 b 91 640 91 638 91 637 b 88 636 84 633 79 629 l 79 637 b 79 637 81 638 85 639 l 85 645 l 84 645 b 83 644 83 644 82 644 b 79 641 78 644 78 645 b 77 646 76 647 75 648 l 72 644 b 71 642 68 642 64 643 b 66 644 68 645 70 646 l 74 649 b 77 650 79 651 82 654 b 81 657 79 659 78 661 l 87 661 b 88 660 88 659 88 658 b 88 657 88 656 89 655 l 103 655 b 105 650 104 648 100 648 z m 113 655 l 108 655 l 108 657 b 109 657 110 657 111 658 l 113 658 z m 183 651 b 186 650 189 648 188 641 l 182 644 b 180 644 178 645 176 646 b 177 642 178 639 179 637 b 176 634 174 634 173 636 b 172 638 170 639 168 640 b 171 647 172 652 173 655 b 174 652 179 651 183 651 z m 119 638 b 114 643 114 641 114 652 b 116 649 117 646 118 645 b 119 643 120 641 121 640 z m 192 637 l 191 631 b 191 629 190 627 191 626 b 191 624 191 622 192 621 b 188 618 185 617 182 619 b 179 621 175 622 172 623 b 172 624 172 625 173 626 l 173 628 l 189 628 b 189 629 189 629 190 630 b 189 631 189 632 189 633 z m 152 629 b 156 635 160 637 165 634 l 165 629 z m 139 632 l 134 632 l 134 634 b 135 634 135 634 136 635 l 139 635 z m 190 629 b 190 630 190 630 191 631 l 190 630 z m 176 467 l 176 473 l 178 473 l 178 467 z m 180 441 l 180 444 l 181 444 l 181 441 z m 178 437 l 178 432 l 177 431 b 176 432 176 433 176 434 b 176 435 176 436 175 437 z m 181 418 b 180 416 178 415 176 414 l 170 411 b 171 416 173 421 174 424 b 177 421 179 419 181 418 z m 183 418 b 183 419 183 420 184 421 l 185 420 z m 178 388 l 178 383 l 169 383 b 172 384 174 385 175 386 z m 185 377 b 184 377 183 377 183 376 l 183 382 l 184 382 b 184 381 184 380 185 380 z m 171 370 l 163 362 b 163 365 163 367 162 369 b 165 369 168 369 171 370 z m 172 341 l 172 346 b 176 345 180 343 184 341 z m 160 338 b 164 335 166 335 171 332 b 168 331 166 331 165 331 b 163 331 161 331 159 330 b 160 332 160 335 160 338 z m 167 328 l 164 325 b 163 324 162 322 162 318 b 160 321 159 324 159 327 b 162 327 164 327 167 328 z m 163 318 l 168 318 b 169 316 169 313 169 309 b 168 308 166 308 163 308 z m 171 300 b 172 301 174 303 176 304 b 175 298 171 295 166 295 b 168 296 170 298 171 300 z m 162 298 l 162 292 l 160 292 b 160 295 160 296 159 297 b 160 298 161 298 162 298 z m 162 266 l 166 272 b 159 285 162 288 177 287 b 175 286 173 285 172 284 b 170 283 168 282 165 281 l 172 279 b 173 279 174 279 175 278 b 174 277 173 275 172 274 l 169 270 b 168 267 166 264 165 260 l 154 260 b 158 261 161 263 162 266 z m 173 263 l 173 269 l 182 269 b 177 266 176 266 173 263 z m 156 249 l 166 249 l 166 245 b 165 244 163 244 162 244 b 160 244 158 244 157 243 b 156 244 156 246 156 249 z m 159 240 l 162 240 l 162 237 l 157 237 b 156 238 156 238 156 239 b 157 239 158 239 159 240 z m 160 230 l 165 230 l 165 228 l 163 228 b 162 227 161 227 160 227 z m 154 224 l 163 222 b 160 219 157 217 156 216 b 154 215 152 213 149 211 b 152 218 153 220 154 224 z m 166 214 b 166 214 167 214 168 214 l 168 211 l 163 211 l 163 213 b 164 213 165 213 166 214 z m 148 211 b 149 209 152 206 156 202 b 155 201 155 201 154 201 l 152 198 l 144 206 b 145 207 146 209 148 211 z m 160 201 l 160 207 l 162 207 l 162 201 z m 171 204 l 171 201 l 170 201 l 170 204 z m 160 195 l 161 197 b 162 197 161 195 160 195 z m 166 185 l 166 196 b 167 194 169 192 170 191 l 173 185 z m 159 193 b 158 186 156 186 152 189 b 154 191 156 192 157 193 z m 167 159 b 164 160 160 162 156 163 l 158 166 b 158 166 158 167 159 168 b 158 168 157 168 156 169 l 153 169 l 153 156 b 152 155 150 155 149 154 l 142 151 b 144 159 148 165 153 170 l 153 176 b 156 175 158 174 160 174 b 161 173 163 172 166 171 l 166 164 b 166 163 167 162 168 162 b 169 161 168 160 167 159 z m 137 151 b 138 150 140 150 141 150 l 145 147 b 142 144 139 141 137 138 z m 161 142 l 155 139 l 149 145 b 152 145 153 146 157 147 b 159 147 162 146 166 144 b 164 143 162 142 161 142 z m 142 136 l 142 133 l 141 133 l 141 136 z m 136 133 l 136 126 b 135 130 134 132 133 133 z m 153 124 b 151 123 149 123 147 123 l 147 126 l 159 126 l 159 124 z m 157 114 l 149 114 b 153 115 155 116 156 117 b 156 117 156 116 157 114 z m 136 83 b 134 83 132 83 131 84 l 134 97 l 143 97 l 143 106 l 157 112 b 155 103 150 98 143 97 b 146 92 145 89 140 81 b 139 82 137 82 136 83 z m 140 111 b 140 104 137 101 131 100 b 130 105 133 109 140 111 z m 162 98 l 160 98 b 160 100 160 102 159 103 l 162 103 z m 150 88 l 150 94 l 152 94 b 152 91 152 89 153 88 z m 142 78 b 139 81 140 82 143 79 b 142 79 142 79 142 78 z m 144 61 l 144 72 b 147 69 150 66 152 65 b 151 64 148 62 144 61 z m 140 66 b 139 65 137 65 135 65 b 132 70 133 72 140 71 z m 155 64 b 155 64 155 64 156 63 l 155 62 b 154 63 153 64 153 65 b 154 64 154 64 155 64 z m 123 54 b 130 57 136 57 140 50 b 133 47 128 47 123 54 z m 159 53 l 156 53 b 155 52 155 52 154 52 l 154 54 b 153 54 153 54 153 55 l 159 55 z m 146 45 l 144 45 l 144 52 l 146 52 z m 131 33 b 130 34 130 35 130 38 b 135 40 137 38 137 33 z"},"S":{"x_min":0,"x_max":254,"ha":254,"o":"m 229 550 b 229 553 230 559 231 568 b 234 575 230 580 229 584 b 228 585 228 587 227 589 b 226 594 225 598 225 601 b 224 603 224 605 225 608 b 226 610 225 612 222 613 b 225 615 225 617 224 619 b 222 620 221 622 222 623 b 222 635 217 646 208 657 b 203 662 199 667 197 672 b 194 679 189 683 184 684 b 181 685 178 686 176 689 b 171 693 162 696 150 697 l 133 700 b 130 701 126 701 122 700 b 114 698 104 696 92 694 b 86 693 80 690 75 685 b 73 684 69 683 63 683 b 58 676 53 670 48 663 l 33 642 b 34 635 33 629 31 622 b 29 615 29 608 30 601 l 29 600 l 27 586 b 27 583 28 578 29 571 b 30 568 30 566 29 564 b 26 560 25 556 26 552 b 27 548 27 544 27 540 b 27 539 28 537 29 535 b 30 533 31 531 30 529 b 29 526 30 522 31 518 b 32 516 32 514 31 513 b 29 511 29 509 30 507 b 31 506 31 504 30 503 b 29 502 29 500 30 499 b 35 488 37 476 36 464 b 36 462 37 459 38 455 b 45 440 50 426 55 410 b 56 405 58 400 60 395 b 62 390 64 385 65 380 b 69 364 73 349 84 334 b 87 330 90 326 91 321 b 92 310 97 305 104 298 b 105 287 107 279 114 272 b 117 268 120 262 121 254 b 122 250 123 246 125 242 b 128 235 130 227 131 220 b 131 216 132 212 135 209 b 138 206 138 202 137 197 b 140 194 142 190 141 187 b 140 184 140 180 141 177 b 144 167 146 157 147 146 l 150 130 b 151 124 150 118 149 112 b 145 109 143 104 142 98 b 141 92 138 88 131 85 l 113 85 b 100 93 100 93 89 113 b 88 122 88 131 89 140 b 90 148 88 156 85 164 b 84 168 84 171 85 174 b 88 177 89 179 89 182 b 88 185 88 188 88 191 b 89 196 89 202 89 207 b 88 212 88 218 88 223 b 90 225 91 227 92 228 b 91 231 89 234 88 237 b 86 239 84 241 83 244 b 75 247 69 249 65 251 b 60 252 56 253 53 253 b 45 252 38 248 26 239 b 27 226 27 212 26 198 l 23 156 b 23 155 23 154 22 153 b 21 152 21 150 21 149 b 20 148 20 145 20 141 b 21 136 23 132 25 127 b 26 122 28 117 29 112 b 28 111 27 109 27 106 b 24 93 30 81 35 69 b 38 61 40 53 45 46 b 61 23 87 8 112 1 b 115 -1 118 -1 119 0 b 122 3 124 4 127 4 b 132 3 139 4 144 5 b 146 6 149 6 152 7 b 162 8 170 11 177 16 b 192 27 205 38 210 50 b 213 65 215 80 217 93 b 219 106 221 120 224 133 b 223 136 222 139 222 142 b 222 146 222 159 220 168 b 219 172 218 176 218 181 b 218 190 217 198 214 207 b 213 208 213 210 212 212 l 209 216 b 208 233 201 247 196 262 b 189 283 184 304 173 323 b 172 326 170 328 168 330 b 165 332 164 334 164 337 b 163 343 162 349 160 354 b 157 359 155 365 153 370 b 149 383 144 397 136 408 b 133 412 131 416 130 421 b 126 429 123 438 120 447 b 118 451 116 455 115 460 b 114 465 112 471 110 476 b 108 481 107 487 108 493 b 109 500 107 507 104 514 b 102 520 101 526 101 531 l 101 567 b 102 572 102 578 103 584 l 106 601 b 110 611 118 618 129 622 b 136 615 142 610 149 606 b 150 597 152 588 153 580 l 156 555 b 155 554 154 551 153 547 b 153 546 153 544 154 543 b 154 541 153 539 152 538 b 149 533 151 530 152 523 b 153 512 153 500 152 489 b 151 486 151 482 152 477 b 155 467 160 459 168 453 b 173 452 178 452 183 453 b 188 453 192 452 195 450 b 198 451 201 452 204 452 b 206 452 209 452 212 453 b 214 456 216 459 219 462 b 221 465 223 467 224 469 b 223 473 223 477 222 480 b 221 483 222 485 223 487 b 226 492 227 498 227 504 b 227 510 228 516 231 521 b 232 523 232 527 231 532 b 230 541 229 547 229 550 z m 131 661 b 130 661 129 661 128 660 l 128 663 l 133 663 b 133 662 133 662 134 662 b 133 661 132 661 131 661 z m 104 655 b 103 654 102 654 100 654 b 97 659 98 661 104 661 z m 140 660 b 143 660 145 660 146 661 b 147 660 147 658 147 655 l 140 655 z m 114 655 b 114 654 112 654 107 656 b 109 657 111 658 114 659 z m 86 651 l 87 651 l 87 648 l 86 648 z m 121 651 l 127 651 b 127 648 127 647 128 646 b 123 643 121 643 121 651 z m 166 648 l 160 648 l 160 650 b 161 650 162 650 163 651 l 166 651 z m 175 649 l 178 642 b 177 641 175 641 174 641 b 173 641 173 644 175 649 z m 114 642 b 113 642 113 642 112 641 l 112 644 b 111 645 111 646 111 647 l 114 647 z m 155 632 b 154 633 153 635 153 636 l 150 640 b 149 641 149 642 149 642 l 148 642 b 147 641 147 641 146 641 b 145 641 144 642 142 645 l 152 643 b 153 643 154 644 155 645 b 156 642 157 640 158 638 l 162 641 b 163 640 163 638 163 637 b 159 634 156 633 155 632 z m 85 636 b 84 637 84 639 83 641 l 90 641 b 93 636 92 632 87 629 b 86 632 85 634 85 636 z m 140 635 l 138 635 l 138 641 l 140 641 z m 85 623 b 84 622 84 622 84 621 l 81 624 b 78 624 75 624 72 623 b 71 624 71 626 70 628 b 69 629 68 631 67 634 b 69 634 71 634 73 635 b 74 636 75 635 76 634 b 78 633 81 630 85 626 z m 179 627 l 179 626 l 176 626 l 176 627 z m 75 617 l 84 620 b 83 618 80 616 76 615 l 76 616 b 75 616 75 616 75 617 z m 63 618 l 72 618 b 72 613 71 611 69 612 b 67 613 65 613 63 612 z m 175 616 b 179 614 182 612 183 611 b 185 613 187 614 188 615 b 189 613 190 611 191 610 b 191 608 192 606 193 604 l 191 602 b 190 603 189 603 188 603 b 187 603 185 604 184 605 l 181 602 b 180 604 179 606 178 608 z m 81 608 b 82 599 82 598 70 595 l 76 601 b 75 604 73 606 72 608 z m 200 599 b 196 597 194 596 193 595 b 192 596 192 597 192 599 z m 59 589 b 60 589 61 590 62 591 b 62 591 65 589 71 587 b 68 586 65 586 63 586 l 56 586 b 56 587 56 587 55 588 b 56 589 58 589 59 589 z m 191 588 b 199 588 199 588 198 583 b 195 584 194 585 191 588 z m 76 579 l 76 586 l 78 586 l 78 579 z m 66 578 l 66 581 l 69 584 z m 53 573 l 53 575 l 58 575 b 59 574 59 574 59 574 l 56 574 b 55 573 54 573 53 573 z m 65 574 l 65 571 l 62 568 z m 181 564 b 180 566 180 568 180 569 b 179 570 179 571 179 572 l 184 572 b 184 571 183 568 181 564 z m 196 569 l 196 567 l 189 567 l 189 569 z m 73 568 b 70 564 69 561 68 559 b 63 566 68 567 73 568 z m 59 566 l 59 560 l 57 560 l 57 563 b 56 564 56 566 59 566 z m 192 543 b 188 546 185 548 182 549 b 183 550 183 550 183 551 b 183 552 183 553 184 554 b 193 551 196 544 200 536 b 199 535 197 534 193 531 l 193 537 b 192 538 192 540 192 543 z m 56 548 b 58 549 60 549 62 550 b 63 550 65 550 67 551 b 70 550 70 545 67 538 b 63 542 61 544 56 548 z m 59 525 l 56 525 l 56 530 l 58 530 b 58 529 58 528 59 528 z m 189 529 l 189 528 l 186 528 l 186 529 z m 74 520 b 75 517 76 515 77 514 b 75 515 72 516 68 519 b 71 522 73 522 74 520 z m 200 507 l 197 504 b 194 506 191 507 188 508 b 185 509 183 511 182 516 b 183 517 184 517 185 517 b 186 517 186 517 187 518 l 189 515 b 190 514 190 512 191 511 l 194 514 b 195 513 198 512 203 509 b 202 508 201 507 200 507 z m 60 507 l 61 508 b 61 509 61 509 62 509 l 62 510 l 72 500 l 72 496 b 65 499 63 503 60 507 z m 191 492 b 190 492 188 492 187 491 b 187 496 185 498 184 499 b 183 499 182 499 179 507 b 182 508 183 507 184 506 l 187 502 l 195 494 b 193 493 192 492 191 492 z m 72 493 b 73 493 75 492 76 489 l 73 489 b 72 488 70 488 67 488 z m 81 472 b 81 471 81 470 82 470 l 82 467 b 77 464 75 465 75 472 z m 73 455 b 76 454 77 453 80 450 b 72 450 72 450 73 455 z m 85 437 l 82 437 l 82 442 l 84 442 b 84 441 84 441 85 440 z m 95 442 l 98 442 l 98 441 l 95 441 z m 92 426 b 93 426 94 426 95 425 b 95 424 95 423 96 422 b 95 421 94 420 93 420 b 92 419 90 418 89 417 l 89 421 b 88 422 88 424 88 427 b 89 426 91 426 92 426 z m 105 411 b 106 410 107 409 108 409 l 111 406 l 103 398 b 102 398 101 399 99 401 b 98 400 97 400 96 400 b 95 399 93 399 92 398 b 91 398 91 399 91 400 b 93 401 95 403 97 405 b 99 407 102 409 105 411 z m 89 407 l 89 410 l 94 410 l 94 408 l 92 408 b 91 407 90 407 89 407 z m 103 362 b 102 362 102 362 102 363 b 102 363 103 364 104 365 l 105 365 b 104 367 104 369 104 371 b 104 373 103 375 102 376 b 101 377 100 379 101 382 b 101 384 101 387 101 391 l 106 383 b 107 381 108 379 109 378 l 111 380 l 111 369 l 109 371 l 105 362 b 104 363 103 363 103 362 z m 120 370 b 119 367 117 365 116 363 b 115 371 115 371 120 370 z m 105 365 b 105 365 105 364 105 364 z m 116 357 b 115 355 113 353 112 352 b 111 351 109 349 108 347 l 108 358 b 111 358 114 358 116 357 z m 138 338 b 135 334 134 330 127 333 b 130 337 131 339 138 338 z m 121 333 l 121 330 l 114 330 l 114 334 b 115 335 116 335 117 335 b 118 335 119 335 120 336 b 120 335 120 334 121 333 z m 127 323 b 124 323 123 323 122 322 l 122 324 b 121 324 121 324 121 325 l 127 325 z m 145 314 b 146 312 147 310 148 309 b 149 305 150 304 153 301 l 152 300 b 151 301 151 301 151 302 b 151 302 151 302 150 303 l 146 307 b 144 308 144 310 145 314 z m 146 291 b 143 292 141 294 139 295 b 147 296 147 296 146 291 z m 150 284 l 150 285 l 153 285 l 153 284 z m 161 281 b 162 280 163 279 162 278 b 161 277 158 274 153 270 b 151 271 148 274 144 278 b 144 279 144 279 145 280 l 145 281 b 146 280 148 279 149 279 b 150 278 152 278 153 277 b 157 278 160 280 161 281 z m 150 256 b 151 257 152 257 153 257 l 153 251 l 151 251 l 151 254 b 150 255 150 255 150 256 z m 171 252 l 164 249 b 163 250 163 252 163 253 b 163 254 166 254 171 252 z m 174 248 l 178 248 b 179 247 179 246 179 245 b 179 244 179 243 180 242 b 179 241 177 241 174 241 z m 175 231 b 176 228 176 225 176 222 l 171 222 b 172 225 174 228 175 231 z m 183 216 l 179 216 l 179 217 l 183 217 z m 176 206 l 170 206 l 170 207 b 171 208 172 208 173 208 b 174 208 174 208 175 209 b 175 208 175 208 176 208 z m 176 193 l 176 190 l 170 190 l 169 191 z m 186 187 l 180 184 l 180 188 l 185 188 z m 180 171 l 176 175 b 179 176 182 176 183 175 l 186 171 b 183 169 181 169 180 171 z m 192 169 l 199 169 l 199 167 l 192 167 z m 181 156 l 177 160 b 176 161 176 163 178 166 l 182 163 b 183 162 183 159 181 156 z m 190 159 l 191 159 b 192 158 192 158 192 157 b 192 156 192 155 193 154 l 190 154 z m 177 144 b 177 145 177 145 176 146 b 179 146 181 146 182 147 l 182 144 z m 189 144 l 189 141 l 186 141 l 186 146 l 188 146 b 188 145 188 145 189 144 z m 61 137 l 60 137 l 60 140 l 61 140 z m 180 133 l 189 133 b 189 128 188 126 186 127 b 184 128 182 128 180 128 z m 187 114 b 186 113 185 112 184 111 l 179 116 b 181 117 183 117 184 117 b 185 117 188 117 191 118 z m 189 102 b 188 102 188 102 187 101 l 187 104 b 186 105 186 106 186 107 l 189 107 z m 179 86 b 176 87 173 89 170 90 l 170 93 b 179 90 184 89 185 88 b 186 87 188 84 189 80 b 185 82 182 84 179 86 z m 171 75 l 171 82 l 175 82 b 176 81 176 79 176 76 b 175 75 173 75 171 75 z m 85 69 l 83 69 l 83 72 b 82 73 82 73 82 74 b 83 74 84 74 85 75 z m 179 63 l 176 60 l 179 57 l 175 53 b 170 60 171 60 160 64 b 164 69 167 72 170 72 b 172 72 175 70 180 65 b 179 64 179 64 179 63 z m 185 69 l 184 69 l 184 72 l 185 72 z m 101 68 l 101 63 l 99 63 b 98 62 97 62 96 62 b 95 63 95 64 95 65 b 95 66 95 67 94 68 z m 136 59 l 135 59 l 135 65 l 136 65 z m 114 62 b 114 62 114 61 115 59 l 107 59 b 111 61 113 62 114 62 z m 102 42 b 101 46 97 52 92 60 b 97 57 101 56 102 56 b 103 55 105 55 106 56 l 109 56 b 108 54 106 52 105 51 b 106 50 108 48 109 47 l 112 43 b 108 43 105 43 102 42 z m 151 59 l 153 57 b 152 56 151 57 150 58 b 151 58 151 58 151 59 z m 114 54 l 116 56 b 119 55 121 53 125 52 b 123 50 122 48 121 47 b 118 48 115 50 114 54 z m 157 47 b 156 46 154 46 153 46 b 150 45 150 45 147 42 b 143 45 140 46 137 47 b 137 49 137 51 138 52 b 143 51 148 49 153 48 l 153 55 b 156 54 159 51 162 47 z m 170 47 l 166 47 l 166 48 l 170 48 z m 121 34 l 121 43 b 124 42 127 40 129 38 l 135 32 b 130 28 126 29 121 34 z"},"}":{"x_min":0,"x_max":212,"ha":212,"o":"m 167 346 b 166 347 166 349 167 351 b 168 355 169 359 169 364 b 169 368 169 373 172 378 b 173 380 173 382 172 383 b 170 387 169 391 170 395 b 170 399 169 403 167 407 b 163 414 162 421 163 430 b 164 443 161 455 157 468 b 156 471 155 475 155 478 b 155 484 153 490 152 497 b 151 500 152 504 153 507 b 154 510 154 512 153 513 b 149 521 147 529 146 538 b 145 546 143 554 140 562 b 139 567 137 573 136 579 b 132 590 129 600 123 611 b 120 616 117 622 116 628 l 116 634 b 116 636 115 638 114 639 b 108 646 104 653 103 661 b 101 669 98 677 95 684 b 88 699 83 713 71 721 b 54 719 41 717 30 715 b 26 712 24 711 21 708 l 21 695 l 34 670 l 34 656 l 44 638 b 47 632 50 626 53 620 b 56 613 59 605 59 598 b 59 591 60 584 62 578 b 63 572 65 566 66 559 l 69 547 b 70 545 70 543 70 541 b 69 539 70 537 72 536 b 72 530 73 524 76 519 b 78 514 79 508 79 503 b 78 499 79 495 80 492 l 83 480 b 83 479 83 478 84 477 b 85 476 85 474 85 473 l 88 451 b 88 443 88 435 89 428 l 89 423 b 92 420 93 417 92 413 b 91 409 92 406 95 403 b 95 399 95 395 96 392 b 96 388 96 384 95 380 b 94 373 95 367 96 360 b 97 353 95 346 92 339 b 91 338 91 336 92 335 b 93 333 93 331 93 330 l 96 320 b 97 317 96 313 95 310 b 92 305 91 301 92 297 b 93 292 93 287 92 282 b 91 278 91 274 92 270 b 93 266 92 262 91 258 b 87 244 85 230 85 215 b 85 212 85 209 84 208 b 83 203 81 198 80 193 b 79 188 78 183 79 179 b 74 167 69 159 69 148 b 69 146 69 144 68 143 b 67 141 67 139 67 138 b 62 122 56 107 56 90 b 56 89 56 88 55 87 b 54 86 54 84 54 83 l 45 62 b 42 55 39 47 37 40 b 34 29 30 18 24 7 l 24 -6 b 23 -11 25 -15 28 -19 l 77 -19 b 83 -14 87 -8 90 -2 b 95 10 103 28 111 49 b 115 60 120 70 127 79 b 127 82 127 84 128 87 l 128 93 b 129 96 130 98 131 100 b 132 102 133 104 132 106 b 131 109 132 111 133 113 b 134 114 135 116 134 119 b 134 121 135 123 136 126 b 138 130 140 135 141 140 b 141 142 142 144 143 146 b 144 149 146 151 147 153 l 150 159 b 149 160 149 162 148 163 b 147 164 147 165 147 166 b 148 172 149 179 152 188 b 159 208 164 227 163 250 b 163 259 164 269 166 278 b 167 287 167 296 166 305 l 166 308 b 171 320 171 333 167 346 z m 101 592 l 101 586 l 99 586 l 99 592 z m 101 574 l 99 574 b 98 573 97 573 96 573 l 96 576 l 101 576 z m 110 547 l 110 544 l 109 544 l 109 547 z m 111 531 l 109 531 l 109 534 b 108 535 108 536 108 537 l 111 537 z m 116 531 b 121 526 115 524 111 523 b 112 524 112 526 113 527 z m 104 521 l 104 518 l 103 518 l 103 521 z m 128 503 l 120 511 b 123 511 125 511 126 512 z m 114 503 b 115 503 116 504 117 505 b 118 502 120 500 121 497 b 118 495 116 495 115 496 l 111 500 z m 108 504 l 108 503 l 105 503 l 105 504 z m 119 477 b 120 479 122 481 123 482 b 124 483 126 485 127 488 l 127 476 b 126 476 125 476 124 477 z m 129 472 b 130 472 130 472 130 471 l 129 470 b 129 471 129 472 129 472 z m 122 459 b 121 464 122 467 127 468 b 126 466 125 463 122 459 z m 133 460 l 133 453 l 132 453 l 132 460 z m 124 437 l 122 437 l 122 440 b 121 441 121 442 121 443 l 124 443 z m 120 405 l 120 401 l 119 401 l 119 405 z m 137 395 l 135 395 l 134 401 l 137 401 z m 137 374 b 136 373 135 372 134 372 l 132 370 l 132 380 z m 143 379 l 143 372 l 141 372 l 141 379 z m 141 365 b 141 366 141 367 142 368 l 142 369 l 143 368 l 142 367 b 142 366 142 366 141 365 l 140 366 b 140 365 139 364 138 363 l 137 364 b 138 365 138 365 139 365 l 140 366 b 141 366 141 366 141 365 z m 140 359 b 140 357 140 355 141 354 b 136 352 134 354 134 359 z m 128 352 b 129 352 129 352 130 353 b 130 350 130 348 131 347 l 128 347 z m 138 330 b 137 331 137 332 137 333 l 140 333 l 140 327 l 138 327 z m 130 326 l 130 325 b 129 325 129 325 129 324 l 129 327 z m 126 325 b 127 324 127 324 127 323 b 126 316 122 318 126 325 z m 136 307 l 133 320 b 136 320 138 320 140 321 l 140 307 z m 137 260 l 137 261 l 144 261 l 144 260 z m 122 250 l 121 251 b 124 252 126 253 127 253 l 127 250 z m 132 236 b 131 237 131 237 131 238 l 134 241 b 135 242 135 242 136 242 b 137 242 138 242 139 243 l 141 241 b 137 238 134 237 132 236 z m 129 220 b 128 225 130 229 136 230 b 137 227 137 225 135 224 z m 121 189 l 121 190 l 124 190 l 124 189 z m 121 159 b 120 156 118 153 117 151 b 115 149 114 146 113 143 l 110 140 b 108 139 106 138 105 137 b 106 136 108 136 109 136 b 110 135 112 134 115 133 b 108 130 106 129 102 126 b 102 129 102 131 101 132 b 100 132 98 132 97 133 b 95 133 92 133 89 134 b 91 136 93 138 95 139 l 99 142 b 98 143 97 144 96 147 b 97 151 100 153 103 152 b 106 151 109 152 112 153 b 111 154 111 156 111 157 b 110 158 110 160 109 161 l 121 164 b 121 161 121 159 121 159 z m 80 65 l 80 71 l 81 71 l 81 65 z m 74 42 b 72 45 72 48 74 49 l 77 52 b 79 49 79 47 78 46 z"},"Z":{"x_min":0,"x_max":223,"ha":223,"o":"m 36 700 b 35 699 35 698 35 698 b 36 694 36 690 36 686 b 35 682 36 678 38 674 b 39 672 39 670 38 667 b 36 664 35 661 35 658 l 35 633 l 50 618 b 54 625 61 623 68 620 b 75 617 81 616 86 619 b 91 622 96 623 100 622 b 103 620 107 618 111 617 l 111 612 b 110 611 110 609 111 608 b 115 603 115 598 111 593 b 110 592 110 590 111 589 b 112 584 112 580 111 576 b 108 567 105 558 105 550 b 105 545 104 541 101 537 b 99 534 98 530 98 527 l 98 516 b 97 513 97 509 98 505 b 99 501 98 498 97 495 b 94 489 91 483 90 477 b 87 464 84 455 81 447 b 79 443 80 439 84 435 b 83 431 83 427 84 423 b 84 418 83 414 82 410 b 81 403 79 395 77 388 b 74 381 73 373 74 365 b 75 364 75 363 74 362 b 73 361 73 359 73 358 b 72 351 70 343 67 336 b 64 329 64 321 65 313 b 65 310 65 308 64 307 b 59 296 59 288 59 277 b 58 269 57 262 54 255 b 53 251 51 247 51 243 b 52 236 51 230 49 224 b 47 218 45 212 44 205 b 44 204 44 202 43 201 b 42 200 42 198 42 196 b 41 190 41 184 41 178 b 41 172 40 166 39 160 b 38 157 37 154 37 151 b 36 148 35 145 32 143 b 31 138 30 133 31 129 b 32 124 31 119 30 114 l 27 100 b 26 95 24 91 21 88 l 24 85 b 24 84 24 84 25 83 b 24 76 23 72 22 69 b 21 66 20 64 20 61 b 20 58 19 56 18 54 b 17 51 16 49 16 47 b 16 45 16 43 15 40 b 15 38 15 36 16 34 b 16 31 15 29 12 27 b 12 18 14 9 19 0 l 189 0 b 190 3 191 6 190 9 b 189 12 190 15 192 18 b 193 19 194 21 194 24 b 194 27 193 29 192 31 b 190 36 190 40 192 43 b 193 44 193 46 193 48 l 193 52 b 189 57 185 61 181 65 l 177 65 b 175 64 173 65 172 66 b 167 69 161 69 156 66 b 155 65 153 65 152 65 l 148 65 l 112 65 b 105 72 101 76 101 85 b 108 98 112 112 111 126 b 110 132 111 138 113 144 b 114 149 115 155 115 161 b 116 162 116 164 115 166 b 114 167 114 169 115 170 b 121 184 124 199 124 215 b 124 220 125 224 126 228 b 129 235 129 242 128 246 b 127 248 127 250 128 252 b 131 260 133 269 134 277 l 137 287 b 138 290 138 293 139 296 b 140 302 142 308 145 314 b 147 319 148 325 147 331 b 146 335 146 338 147 341 b 148 344 149 348 150 354 b 151 358 152 362 154 366 b 156 370 155 374 151 377 l 157 399 b 158 406 160 413 162 420 b 162 421 162 422 161 423 b 160 424 160 425 160 426 b 161 430 163 434 163 438 l 166 456 b 166 461 166 467 167 473 b 167 475 168 477 169 480 b 170 488 172 496 175 504 b 179 520 182 533 182 545 b 182 550 182 556 183 561 b 183 562 184 563 185 566 b 188 573 189 579 190 587 b 192 594 193 601 193 608 l 193 613 b 192 614 192 615 193 616 b 196 619 197 623 196 627 b 195 631 196 634 200 637 l 200 660 b 201 661 202 661 203 661 b 204 661 205 661 206 662 l 206 700 z m 109 660 b 106 661 102 665 101 658 l 107 658 b 108 653 109 648 112 640 b 109 641 106 642 104 643 l 97 646 b 98 649 100 653 101 658 b 100 657 99 657 98 657 l 94 654 b 93 651 93 649 93 646 b 92 643 91 640 90 635 b 89 640 88 643 87 646 l 84 654 b 83 655 82 655 81 655 b 80 655 79 655 78 656 b 77 656 75 657 73 659 b 72 658 72 656 72 655 b 71 654 71 652 70 651 b 69 651 68 651 68 652 l 65 652 b 64 657 66 660 70 661 b 74 662 77 664 78 668 b 75 671 74 673 71 677 b 78 677 80 676 81 672 b 81 669 81 667 82 664 b 85 665 87 665 89 666 b 91 666 93 666 96 667 b 96 666 98 665 99 665 l 100 664 b 100 671 101 675 102 683 l 108 674 b 109 671 111 668 112 665 b 117 662 123 659 130 656 b 131 651 133 646 134 643 b 131 641 129 641 128 642 l 124 646 l 128 650 b 125 651 123 651 121 651 b 117 651 114 652 109 660 z m 148 679 l 152 671 b 155 674 157 678 161 671 b 160 670 158 669 156 668 b 154 667 153 665 152 664 b 151 662 149 661 147 662 b 145 662 143 662 142 661 b 141 661 140 662 140 663 b 139 664 137 664 135 665 b 133 665 130 665 127 666 l 136 669 b 140 670 145 675 148 679 z m 115 672 b 115 673 116 673 117 674 b 118 675 120 676 121 676 b 122 676 124 677 126 678 b 126 675 127 675 128 672 b 123 671 118 669 113 668 b 114 669 115 671 115 672 z m 167 654 l 167 652 b 168 651 168 651 169 651 l 170 650 b 166 649 163 646 161 643 b 159 639 155 638 150 639 l 153 643 b 150 646 147 648 143 651 l 164 651 b 163 655 162 658 161 660 b 162 661 162 661 163 661 b 164 661 165 661 166 662 b 167 664 168 667 167 670 b 166 673 168 676 173 677 l 173 667 b 174 665 176 663 177 662 b 178 661 180 659 182 656 b 175 655 172 654 167 654 z m 59 668 l 59 674 l 60 674 b 61 673 61 671 61 668 z m 71 669 b 72 665 70 664 64 666 z m 127 665 l 127 662 l 124 662 l 124 667 l 126 667 b 126 666 126 665 127 665 z m 151 660 b 152 659 153 659 153 659 b 153 658 153 658 152 658 l 152 659 b 151 659 151 659 151 660 z m 135 654 l 135 658 l 136 658 l 136 654 z m 60 648 l 59 648 l 59 651 l 60 651 z m 75 645 l 75 651 l 77 651 b 77 648 77 646 78 645 z m 117 641 b 120 641 122 641 124 642 l 124 636 b 121 637 120 638 117 641 z m 81 639 l 74 639 l 74 640 l 81 640 z m 150 628 b 151 630 153 631 156 631 b 157 630 156 629 154 629 b 153 628 151 628 150 628 l 150 618 b 147 619 145 621 144 623 b 143 625 141 626 138 625 b 136 627 135 629 134 630 l 139 635 b 141 636 143 638 144 639 b 145 638 146 638 146 638 l 146 634 b 145 632 145 630 145 628 z m 171 622 l 171 632 b 172 627 174 623 176 622 z m 130 626 l 137 623 b 138 618 137 615 136 612 l 130 612 b 131 613 133 615 134 618 z m 160 622 b 159 620 158 618 158 617 b 157 615 156 613 155 612 b 154 612 154 612 154 613 l 154 621 b 156 621 158 621 160 622 z m 173 593 l 155 593 b 154 594 153 596 152 598 b 151 599 149 601 148 603 b 147 602 146 601 145 601 l 141 598 l 141 611 b 142 611 142 611 143 612 l 146 612 b 146 611 146 610 147 609 l 147 607 b 156 603 165 599 174 594 z m 158 553 l 153 565 b 151 568 149 572 148 575 b 148 575 147 574 145 572 l 139 580 b 138 577 137 574 135 572 b 134 572 134 572 133 573 l 130 573 b 133 581 137 584 144 588 l 144 596 b 145 595 147 594 148 593 l 151 590 b 150 587 149 587 148 584 b 160 569 161 570 158 553 z m 158 582 l 158 589 l 159 589 l 159 582 z m 166 566 l 164 566 l 164 569 l 166 569 z m 137 563 l 131 563 l 131 564 b 132 565 133 565 134 565 b 134 565 135 565 136 566 b 136 565 136 564 137 563 z m 147 563 l 141 560 l 141 565 l 146 565 b 147 564 147 564 147 563 z m 156 543 b 154 542 152 542 151 542 b 152 540 152 538 153 536 b 153 534 153 531 154 528 b 152 530 150 532 149 533 l 145 536 b 143 535 141 535 140 535 b 138 535 136 535 135 534 b 142 531 146 528 149 525 b 151 522 153 519 156 516 b 155 517 154 517 153 517 b 152 517 151 517 150 518 l 135 533 l 135 534 b 134 533 133 533 132 533 b 131 533 129 533 128 532 b 128 533 127 535 126 536 b 130 536 132 535 135 534 b 132 541 138 544 143 548 l 137 551 l 137 555 b 139 555 141 555 143 556 l 148 556 b 151 553 156 549 163 544 b 160 543 157 543 156 543 z m 126 550 b 127 549 127 548 127 547 b 127 546 127 545 128 544 b 127 543 124 543 118 542 z m 166 537 l 164 537 b 163 536 162 536 161 536 l 161 539 l 166 539 z m 128 520 l 128 525 l 129 526 b 130 525 130 524 130 523 b 130 522 130 521 131 520 z m 154 507 b 153 506 151 506 150 506 b 150 503 148 501 144 500 l 144 506 l 139 506 b 136 503 134 499 133 496 l 130 496 l 124 502 b 122 503 120 505 117 508 b 118 509 120 510 122 511 b 124 511 126 512 127 513 b 126 514 126 514 126 515 l 125 516 b 126 515 127 515 128 515 l 131 512 l 137 518 l 134 522 b 137 523 140 523 141 522 l 144 516 b 143 515 142 514 141 511 b 142 510 143 509 144 506 l 150 506 b 151 508 153 509 156 509 b 157 509 157 508 157 507 z m 122 493 l 122 496 l 123 496 l 123 493 z m 150 470 l 142 470 l 133 479 l 136 483 b 136 484 136 486 137 487 b 136 488 136 489 136 490 b 135 490 135 491 134 492 l 138 496 b 139 493 141 491 142 489 b 143 486 145 484 146 481 b 145 480 144 479 144 478 l 150 475 z m 151 487 b 150 487 149 486 148 485 b 147 488 147 491 147 496 b 150 494 151 493 152 492 b 152 491 153 490 154 488 b 153 487 152 487 151 487 z m 125 483 l 125 490 l 126 490 l 126 483 z m 123 477 l 123 470 l 121 470 l 121 477 z m 131 467 l 131 473 l 133 473 l 133 467 z m 138 448 b 134 446 129 445 124 444 b 125 441 128 436 131 429 b 130 428 129 427 128 427 l 124 424 b 125 421 127 418 129 415 b 131 412 131 408 130 405 l 128 405 b 127 404 126 404 125 404 b 124 406 124 408 124 410 b 124 411 124 413 123 414 b 120 411 117 407 116 403 b 114 399 111 396 107 394 l 107 388 b 110 387 112 385 114 384 l 114 389 l 126 397 b 128 395 129 393 130 392 b 129 391 127 390 124 387 b 125 384 127 382 128 380 b 125 377 124 376 121 375 b 121 373 121 372 122 372 b 133 365 134 366 127 355 b 129 354 130 352 130 349 b 129 348 128 350 128 352 b 127 353 127 354 127 355 l 116 355 b 115 355 115 355 115 356 l 114 356 b 117 357 121 360 125 363 b 120 366 116 368 113 371 b 112 370 111 368 110 366 b 109 364 107 362 106 361 l 103 367 b 102 368 101 370 100 372 b 101 374 103 376 106 379 b 108 381 108 384 107 388 b 106 389 106 389 106 390 l 104 392 l 107 394 l 107 398 b 106 399 106 401 106 404 b 108 407 111 411 114 414 b 117 417 119 422 120 427 b 117 428 114 430 110 433 b 112 434 114 434 116 434 b 117 434 119 434 120 435 b 119 436 119 438 119 439 b 118 440 117 442 116 444 b 118 447 118 449 115 449 b 112 448 109 450 107 453 b 109 458 112 461 117 460 b 117 463 117 465 118 468 b 120 467 122 466 123 465 b 124 464 127 462 130 461 l 123 461 b 121 460 119 460 117 460 b 120 457 122 455 123 453 b 124 454 126 454 127 455 l 130 457 b 131 458 132 459 132 460 l 133 459 b 133 458 132 457 131 457 l 130 457 l 130 450 b 135 451 139 453 142 454 b 143 452 142 450 138 448 z m 143 464 l 138 464 l 138 465 b 137 465 137 465 137 466 b 140 466 142 466 143 467 z m 109 440 l 109 444 l 110 444 l 110 440 z m 136 434 l 135 434 l 135 440 l 136 440 z m 136 411 l 135 411 l 135 417 l 136 417 z m 121 325 b 119 321 116 319 113 319 b 112 318 110 318 109 317 b 107 316 105 316 104 315 b 105 312 105 310 104 308 b 103 305 104 303 107 302 b 111 309 115 313 124 316 b 123 313 122 310 119 309 b 116 308 116 306 117 303 b 115 302 112 302 107 302 l 111 298 b 112 296 113 294 114 293 l 107 293 l 103 290 b 102 289 101 287 100 286 l 96 289 b 94 289 92 290 90 291 b 92 294 93 296 94 299 l 90 302 b 89 303 87 304 85 305 b 87 306 89 307 91 308 l 95 311 b 94 312 93 314 92 316 b 91 317 89 319 88 321 b 89 322 91 322 93 322 b 94 322 96 322 98 323 b 97 324 96 327 95 331 l 99 335 b 100 336 101 338 103 340 l 91 343 l 91 347 b 92 348 94 348 96 348 b 99 348 102 351 104 356 b 105 358 108 358 113 357 b 108 354 106 354 102 351 b 109 348 114 346 117 343 b 117 336 113 338 109 342 b 106 337 104 332 103 329 b 106 328 110 328 113 328 b 116 328 118 327 121 325 b 120 332 124 335 131 335 b 130 328 127 325 121 325 z m 119 299 b 118 300 118 300 118 301 l 117 302 b 118 302 119 301 120 300 z m 99 265 b 98 264 97 262 96 261 l 90 255 b 87 262 85 264 92 271 b 90 274 88 277 85 281 l 87 284 b 88 284 89 285 90 286 b 91 284 93 282 94 280 l 97 274 b 96 273 95 272 95 271 b 96 268 96 268 99 265 z m 103 246 l 97 252 b 100 257 101 261 104 266 b 101 273 98 279 106 286 l 109 279 b 108 279 108 278 107 276 b 108 273 110 271 111 270 b 108 262 106 254 103 246 z m 83 272 b 81 270 80 268 79 266 b 78 267 78 268 78 269 b 78 270 78 271 77 272 z m 97 254 b 95 251 94 248 93 246 b 92 243 90 241 89 239 b 86 246 89 251 97 254 z m 72 249 l 77 249 l 77 247 l 72 246 z m 94 241 b 99 246 101 240 102 236 b 101 237 98 238 94 241 z m 80 243 l 80 236 l 79 236 l 79 243 z m 101 227 l 91 227 b 93 229 95 230 96 231 l 100 234 b 100 233 100 232 101 231 z m 75 213 l 81 213 l 81 218 b 77 221 74 222 73 223 l 83 233 l 85 231 b 85 230 85 228 86 227 b 87 228 87 228 87 229 l 87 214 l 84 214 b 83 213 82 213 81 213 l 81 208 b 89 207 91 201 94 192 b 91 193 89 195 87 196 l 81 200 l 81 192 b 78 193 76 195 75 196 b 74 197 72 198 70 199 b 73 206 74 210 75 213 z m 94 217 l 92 217 l 92 220 b 91 221 91 221 91 222 b 92 222 92 222 93 223 l 94 223 z m 67 213 l 67 207 l 66 207 b 65 208 65 210 65 212 b 65 213 66 213 67 213 z m 101 204 l 98 204 l 98 209 b 99 210 99 210 100 210 b 100 209 100 208 101 207 z m 101 191 l 98 191 l 98 196 b 99 196 99 196 100 197 b 100 196 100 195 101 194 z m 97 172 b 95 171 93 170 92 169 b 89 167 87 165 91 161 b 93 163 95 164 97 164 l 97 162 b 96 161 95 161 94 161 b 93 161 92 161 91 160 l 91 161 b 91 151 88 144 82 141 b 80 144 79 146 79 148 b 79 151 79 155 80 158 l 80 167 b 79 167 77 167 76 168 b 75 164 74 162 73 155 b 70 172 71 175 82 190 l 88 187 b 89 186 91 185 93 184 b 93 183 94 181 95 179 b 92 180 89 182 85 183 b 84 178 88 174 97 172 z m 67 177 l 67 174 l 66 174 l 66 177 z m 63 128 b 66 128 67 130 68 135 b 67 136 67 136 67 137 l 65 139 b 69 142 72 143 75 144 b 76 143 78 142 81 141 b 80 138 77 134 74 131 b 77 128 79 125 82 121 l 86 124 b 88 123 89 122 88 121 l 86 118 b 85 116 83 112 88 111 l 85 104 b 84 102 82 100 81 99 b 79 99 78 99 78 100 b 75 105 74 113 75 124 b 74 121 73 120 72 119 b 71 118 71 116 70 115 l 63 115 l 54 126 b 57 127 60 128 63 128 z m 82 128 l 82 134 b 83 133 85 132 87 131 b 88 130 90 129 93 128 z m 89 26 b 88 30 86 34 85 38 l 79 52 b 78 53 77 54 75 53 b 70 51 68 57 68 61 b 67 62 67 64 66 67 b 61 63 57 60 55 59 b 59 55 62 52 65 50 b 64 49 63 49 62 49 b 61 49 59 49 58 48 b 60 46 62 44 63 42 b 64 40 67 39 70 39 b 71 38 71 36 71 34 b 74 32 78 30 82 27 b 77 26 72 24 69 21 b 65 18 60 18 55 20 l 58 24 l 52 30 b 53 31 54 34 55 38 b 53 39 51 39 50 39 b 48 39 46 39 43 40 b 48 42 50 45 51 49 b 52 52 53 56 55 59 l 46 59 b 44 61 43 63 42 64 l 47 69 l 53 66 b 62 70 69 76 74 85 b 71 86 69 88 66 89 l 57 92 b 58 93 60 95 61 97 b 62 98 64 100 67 102 b 64 101 61 100 59 100 b 57 99 55 99 53 98 b 52 99 52 99 52 100 b 52 101 52 102 51 103 b 52 104 54 104 55 105 b 56 105 57 105 58 106 l 51 109 b 52 110 52 112 52 114 b 59 117 67 109 74 96 b 71 95 69 94 67 93 l 74 90 l 74 84 b 77 84 79 83 78 81 b 76 77 80 75 81 75 b 82 75 83 75 84 74 b 84 73 84 71 85 69 b 86 67 84 66 81 65 l 81 58 b 83 59 85 61 86 62 l 95 32 z m 51 92 l 51 80 b 48 85 48 87 45 91 b 48 91 50 91 51 92 z m 53 76 b 54 78 56 80 57 81 b 58 82 60 84 61 87 l 61 75 b 60 75 58 75 57 76 z m 92 57 l 100 53 b 97 52 95 52 92 52 z m 44 52 l 44 46 l 43 45 l 40 52 z m 113 51 b 114 48 114 46 114 43 l 109 43 z m 125 44 b 127 45 129 46 130 47 b 133 47 135 46 137 44 l 148 33 l 138 33 b 137 34 136 36 135 39 b 134 42 132 43 128 42 l 126 32 l 121 32 b 121 35 121 38 120 41 b 121 42 123 43 125 44 z m 78 42 l 78 39 l 71 39 b 72 41 74 43 77 45 b 77 44 77 43 78 42 z m 155 43 l 158 40 b 158 39 159 38 160 37 b 159 36 158 35 157 34 l 153 31 l 150 34 b 151 36 152 39 155 43 z m 104 41 l 104 40 l 101 40 l 101 41 z m 101 29 l 101 35 l 103 35 l 104 30 z m 117 27 l 114 27 l 114 28 l 117 28 z m 163 27 l 160 27 l 160 28 l 163 28 z m 47 22 l 46 22 l 46 26 l 47 26 z m 98 23 l 98 25 b 101 25 102 25 103 26 b 103 25 103 24 104 23 z m 149 26 l 149 19 l 148 19 l 148 26 z"},"x":{"x_min":0,"x_max":262,"ha":262,"o":"m 242 700 l 172 700 b 171 698 170 696 170 695 b 169 693 168 691 167 690 b 168 686 170 681 171 676 b 168 675 167 672 168 669 b 169 666 168 663 165 660 b 164 659 163 657 163 654 l 161 646 b 160 643 160 640 161 637 l 161 628 b 161 627 160 626 159 625 b 158 620 156 616 155 612 b 153 607 152 602 151 597 l 148 578 b 147 571 146 564 147 557 b 148 553 147 549 146 545 b 144 540 143 536 144 531 b 141 528 140 525 140 522 b 139 518 137 515 134 514 b 131 513 128 514 128 517 b 127 518 126 520 125 521 l 125 532 b 125 535 124 539 123 542 l 117 567 b 114 575 114 584 115 593 l 115 599 b 112 611 109 624 108 637 b 107 642 107 646 106 650 l 103 662 b 102 668 100 674 99 681 b 97 687 98 693 101 700 l 23 700 b 20 685 23 673 26 658 l 29 639 b 30 633 32 627 33 620 b 34 617 36 613 36 610 b 35 603 36 597 39 590 b 40 587 42 582 43 575 b 44 564 45 554 50 545 b 51 542 52 539 52 537 b 51 534 52 532 53 530 b 56 527 57 524 56 521 b 55 518 55 516 55 513 b 56 507 56 501 56 496 b 56 490 57 484 59 479 b 61 473 63 467 64 461 b 65 455 67 449 68 443 l 66 440 b 65 439 65 437 66 436 l 69 421 b 70 416 71 411 73 406 b 74 402 75 399 75 395 b 75 390 76 384 78 378 l 81 367 b 81 362 81 358 82 354 b 82 352 81 350 80 348 b 79 345 78 343 79 342 b 80 338 79 334 78 331 b 76 328 75 324 75 320 b 76 316 76 312 76 308 b 75 304 75 300 75 295 l 73 288 b 70 280 67 272 66 263 b 65 261 65 259 66 256 b 66 251 65 246 64 242 b 63 240 63 238 62 235 b 61 231 59 226 59 222 b 60 215 58 208 55 200 b 51 189 48 177 49 165 b 49 157 49 149 44 141 b 43 138 42 134 42 131 l 39 120 b 38 115 37 111 37 107 b 36 99 33 89 30 81 b 29 76 28 71 29 66 b 32 54 25 45 20 34 l 20 0 l 87 0 b 88 5 91 10 94 15 b 97 19 96 24 92 29 b 93 34 95 39 97 44 b 99 48 100 52 100 56 b 100 67 102 74 105 83 l 108 97 b 108 101 109 106 110 111 l 109 112 b 108 112 108 112 108 113 b 110 124 112 136 113 147 b 114 158 118 170 124 181 b 125 180 127 180 129 180 b 130 179 132 179 133 178 b 136 163 138 151 142 139 b 143 136 144 133 144 130 b 144 127 144 123 144 120 l 144 116 b 143 115 144 113 145 112 b 147 109 148 105 147 102 b 146 98 147 94 148 91 b 150 87 151 83 151 79 b 150 75 150 71 151 67 b 151 65 151 64 152 63 b 157 55 159 47 158 39 b 157 30 159 22 163 13 b 164 11 166 9 169 7 b 171 5 173 3 175 0 l 236 0 b 236 5 236 10 237 15 b 238 20 237 24 236 28 b 233 35 231 43 231 51 b 230 58 229 66 227 73 b 226 76 226 79 226 82 l 223 90 b 222 93 223 96 224 99 b 225 102 223 104 220 107 b 221 115 220 124 217 132 l 219 140 b 216 145 215 149 214 152 b 213 154 213 156 214 157 b 214 160 213 164 212 167 b 210 170 209 174 210 177 b 211 180 211 184 210 188 b 209 192 208 196 208 199 b 207 208 205 218 203 227 b 201 236 199 245 197 254 l 194 266 b 193 270 193 274 194 279 b 194 280 194 282 193 283 b 192 284 192 285 192 286 b 191 294 189 302 186 309 b 183 316 183 324 184 332 b 184 337 184 339 183 340 b 180 347 179 354 181 361 b 182 368 181 374 177 381 b 178 386 180 392 182 397 b 183 402 185 407 186 412 b 187 419 189 425 192 432 b 194 439 195 446 194 453 b 194 456 195 460 196 465 b 199 472 201 478 202 485 b 203 491 205 498 207 505 b 208 506 208 508 209 510 b 209 512 209 514 210 515 b 211 516 211 518 210 520 b 209 521 209 523 210 526 b 211 529 212 532 212 536 b 211 539 212 542 214 545 b 217 548 218 552 218 556 b 217 559 217 563 218 566 l 224 587 b 226 593 227 600 227 607 b 227 616 228 624 231 630 b 236 641 237 651 237 663 b 236 668 237 674 239 679 b 241 684 241 690 240 696 b 240 697 241 697 242 698 b 243 698 243 699 242 700 z m 203 677 l 203 675 l 198 675 l 197 676 b 198 677 200 677 203 677 z m 69 648 b 64 647 59 645 56 644 b 56 647 56 649 55 652 b 54 654 56 656 59 658 b 58 659 58 661 58 662 b 58 663 58 664 57 665 b 56 666 55 668 52 671 b 51 671 50 672 49 673 l 50 674 l 53 671 b 54 672 55 672 57 672 b 58 672 60 672 62 673 b 62 668 62 664 63 661 b 64 660 66 660 68 659 b 69 658 71 657 73 656 b 72 655 71 653 71 652 b 70 651 70 649 69 648 l 74 648 b 75 652 76 656 79 661 l 82 661 b 81 659 81 657 81 655 b 81 653 81 651 80 648 l 85 635 b 86 634 87 633 88 633 l 87 632 l 85 634 l 85 635 l 80 635 l 76 643 b 72 639 68 635 61 630 b 62 632 63 634 63 635 b 63 636 63 637 64 638 b 67 641 70 643 69 648 z m 213 658 b 208 659 203 662 200 666 l 206 672 b 207 671 207 670 207 669 b 207 668 207 666 208 665 b 209 666 212 667 216 668 z m 53 671 l 52 671 z m 77 671 b 77 666 75 664 70 664 l 70 667 b 69 668 69 669 68 671 z m 195 668 l 196 668 l 196 664 l 195 664 z m 215 655 l 214 656 l 216 656 b 216 655 216 655 215 655 z m 188 654 l 189 654 l 189 651 l 188 651 z m 213 641 l 211 641 l 211 648 l 213 648 z m 199 628 b 198 629 197 631 196 633 b 195 634 193 636 192 637 l 194 639 b 195 639 197 640 200 647 b 201 645 202 643 203 642 b 204 641 205 639 206 638 l 212 629 b 209 628 204 628 199 628 z m 72 625 l 67 625 b 68 626 68 627 69 628 l 71 631 b 72 630 72 628 72 625 z m 63 603 l 63 615 l 67 615 b 68 614 69 614 70 614 b 73 621 75 625 77 628 b 82 628 84 626 85 623 b 85 620 86 617 87 615 b 84 616 82 617 81 617 b 80 616 78 616 77 616 b 75 616 73 615 70 614 b 69 612 68 610 67 609 b 66 608 64 606 63 603 z m 190 628 l 190 623 b 189 624 188 624 188 625 l 185 628 z m 182 621 l 184 619 b 183 619 182 619 182 620 l 181 620 z m 195 618 b 196 619 198 620 199 621 l 202 619 b 202 618 202 618 203 617 b 202 614 200 612 199 609 l 184 609 l 184 617 b 186 617 188 616 190 614 b 191 615 193 617 195 618 z m 210 609 l 204 609 l 204 611 l 210 611 z m 88 583 l 70 583 b 69 584 69 585 69 586 l 66 590 b 69 593 71 597 64 600 b 65 601 67 601 68 601 b 70 601 72 604 72 605 b 72 606 72 607 73 608 b 75 608 77 608 80 609 b 82 609 84 608 86 605 l 80 605 b 79 602 77 600 76 598 b 74 596 72 594 71 591 b 74 590 77 589 80 588 l 89 585 b 88 584 88 583 88 583 z m 177 607 l 181 607 l 181 606 l 177 606 z m 197 596 b 198 593 200 589 201 584 b 202 585 203 585 206 585 b 202 581 199 578 197 575 l 192 575 b 191 576 190 578 191 580 b 191 581 189 582 186 582 b 185 582 185 582 185 583 l 185 584 b 184 584 184 584 184 585 b 187 586 188 587 189 588 b 192 585 194 583 197 581 l 200 585 b 199 586 197 588 195 589 b 193 590 191 591 190 592 b 185 593 182 595 181 598 b 186 597 191 596 194 595 l 189 604 b 192 604 195 604 198 605 l 207 605 b 202 601 200 599 197 596 z m 87 604 b 88 601 88 597 87 592 l 83 592 b 83 599 84 603 87 604 z m 185 588 l 182 585 b 179 585 177 586 177 588 z m 91 570 b 89 570 88 570 88 569 b 85 572 84 573 81 576 l 83 578 b 85 575 88 572 91 570 z m 64 574 b 71 577 73 573 74 569 b 73 570 71 570 70 571 z m 187 549 b 183 549 178 550 177 559 b 181 558 184 557 187 557 l 187 564 b 183 567 179 569 176 570 b 179 572 181 573 184 574 b 183 575 183 575 182 575 l 190 575 b 189 574 189 573 189 573 l 187 570 b 188 569 190 569 191 569 b 192 569 193 569 194 568 b 193 567 193 565 193 564 b 193 563 193 561 192 560 b 192 559 193 557 195 554 b 192 553 190 552 187 549 z m 77 534 b 84 537 91 539 88 548 b 85 551 83 552 76 556 l 69 556 b 70 559 72 561 74 562 b 75 563 76 565 75 568 b 76 569 78 569 80 569 b 81 566 83 563 84 561 b 85 558 87 556 88 553 l 94 553 b 95 552 98 552 101 551 b 99 550 98 550 97 550 b 96 549 94 549 93 549 b 91 546 91 543 93 540 b 94 537 95 534 95 531 b 94 528 95 525 97 522 b 98 519 99 516 98 513 l 108 513 l 108 511 b 106 511 104 511 103 512 l 99 512 b 100 510 100 509 99 508 l 93 504 b 90 507 90 509 94 509 b 97 509 99 510 98 512 b 95 513 91 513 87 513 l 91 522 b 86 526 81 530 77 534 z m 92 561 b 93 562 95 562 98 562 l 98 560 l 92 560 z m 168 554 l 173 550 b 172 549 171 549 168 549 z m 175 539 b 176 541 176 542 177 543 l 180 546 b 180 543 180 541 181 540 b 179 539 177 539 175 539 z m 168 538 l 172 539 b 171 537 169 536 168 536 z m 184 534 l 184 538 l 189 538 b 188 537 186 536 184 534 z m 176 533 b 177 532 177 530 177 528 b 175 528 174 529 174 532 b 175 532 176 532 176 533 z m 165 532 l 166 532 l 168 527 l 165 527 z m 178 527 l 178 526 l 177 526 z m 102 525 b 103 525 104 525 105 526 l 107 526 b 107 525 107 525 108 525 l 108 523 l 102 523 z m 188 520 l 188 525 l 189 526 b 190 525 190 524 190 523 b 190 522 190 521 191 520 z m 177 525 b 180 522 180 520 178 519 b 175 518 175 516 176 513 b 172 518 174 521 177 525 z m 176 482 l 170 479 b 167 483 165 486 162 489 l 152 489 b 155 488 158 486 161 485 b 160 480 157 479 152 483 b 151 482 150 481 149 478 b 150 476 150 474 151 472 b 151 469 151 466 152 463 b 150 464 148 464 147 465 b 146 465 144 465 142 466 b 139 465 137 463 134 462 l 137 456 b 137 454 138 452 139 451 b 142 452 146 454 151 455 b 154 459 155 462 158 467 l 170 467 l 170 460 l 166 463 l 151 448 b 153 441 159 437 169 436 b 164 433 161 432 157 429 b 160 426 164 424 169 421 b 167 420 164 417 161 414 l 164 412 b 165 411 166 410 168 409 b 167 408 164 407 160 406 l 158 408 b 158 404 158 401 157 399 b 158 398 160 398 161 398 b 162 397 164 397 165 396 b 164 395 162 394 161 393 l 157 390 b 156 393 155 395 154 398 l 151 404 l 148 404 b 149 403 149 401 149 400 b 149 399 149 397 150 395 b 147 392 144 387 151 383 l 144 376 b 145 375 145 373 146 372 l 149 365 l 141 365 b 144 361 146 357 149 352 b 152 352 155 352 158 351 b 157 347 155 344 154 341 b 155 340 158 337 150 334 l 153 327 b 148 323 143 320 140 319 b 137 317 135 318 135 322 b 129 323 127 326 128 332 b 123 331 121 328 121 325 b 121 318 122 312 115 309 l 114 308 b 114 307 114 307 113 306 b 112 307 112 307 112 307 l 114 309 l 115 309 l 115 316 b 114 315 113 314 112 314 l 109 312 l 109 317 b 112 318 114 319 115 322 l 119 329 b 116 331 114 334 113 338 b 112 342 110 346 108 349 b 109 350 109 352 110 353 b 111 354 112 356 113 358 b 118 357 123 358 127 361 b 131 364 136 366 141 365 l 141 373 b 138 376 136 378 135 380 b 138 383 139 385 138 388 b 137 390 135 393 134 396 b 145 399 145 409 145 417 l 149 417 b 150 414 152 412 153 410 b 156 412 158 413 161 414 b 154 425 146 427 135 427 b 131 424 130 424 125 423 l 125 416 b 127 417 129 418 130 419 b 131 420 133 420 134 421 b 137 421 140 417 141 410 b 137 412 134 413 131 414 l 121 409 b 122 408 122 408 123 408 l 124 407 b 123 406 123 404 123 403 b 122 400 120 397 115 398 b 110 399 108 393 108 389 b 108 387 106 387 102 389 b 103 390 104 392 106 394 b 103 399 99 404 96 410 l 100 414 b 103 410 105 407 106 404 b 107 405 108 405 108 405 b 108 408 107 412 106 417 l 108 419 b 109 419 110 420 111 421 l 108 430 b 111 431 113 433 112 435 b 111 436 111 438 111 439 b 106 443 104 445 101 437 l 95 437 b 93 435 91 434 89 434 l 89 436 b 90 437 92 437 95 437 l 93 446 l 97 448 b 98 451 100 455 101 459 b 104 458 108 458 111 458 b 118 457 125 457 126 449 b 127 444 130 443 135 444 b 134 447 133 450 133 453 l 130 460 b 129 460 128 460 128 461 l 125 461 l 125 471 b 126 470 128 469 130 469 b 131 469 133 468 134 467 b 136 472 139 476 142 480 b 140 481 138 483 137 484 l 131 488 l 132 490 l 141 487 b 144 488 147 490 151 491 b 150 492 149 494 147 496 b 148 497 149 499 150 500 l 153 504 b 154 503 154 502 154 501 b 154 500 154 498 155 497 l 163 497 b 162 499 162 501 163 503 b 164 505 164 507 164 510 l 164 517 b 164 519 166 521 170 522 b 171 517 172 513 171 509 b 169 500 167 496 178 488 b 177 489 177 491 177 492 l 174 496 l 180 496 b 181 493 181 490 181 485 b 179 484 177 483 176 482 z m 155 519 l 160 519 l 160 517 l 158 517 b 157 516 156 516 155 516 z m 99 512 b 99 513 99 513 98 513 l 98 512 z m 109 501 b 108 500 105 500 99 499 l 107 507 b 108 506 108 505 108 504 b 108 503 108 502 109 501 z m 112 500 l 114 500 l 114 493 l 112 493 z m 181 496 b 181 498 182 499 183 499 l 184 498 b 183 498 182 497 181 496 z m 129 496 b 129 497 130 497 131 498 l 131 497 b 131 496 131 495 132 494 l 126 494 z m 123 490 b 124 489 124 488 125 488 l 128 485 b 126 483 122 481 117 478 b 119 476 120 474 120 473 b 119 470 117 468 116 464 l 111 469 b 108 472 107 474 105 474 b 104 474 102 474 101 475 b 102 479 104 481 106 480 l 110 477 l 116 483 l 105 483 b 100 487 96 490 95 493 b 98 495 102 494 107 490 z m 94 476 b 92 475 90 473 89 472 b 88 472 88 472 87 473 l 86 474 b 85 474 84 475 83 476 b 85 476 87 476 88 477 l 91 477 b 91 481 92 486 94 491 b 94 492 94 492 95 492 b 96 486 97 482 99 479 b 98 478 96 477 94 476 z m 130 480 l 130 473 l 129 473 l 129 480 z m 160 474 l 160 471 l 155 471 l 155 472 z m 168 471 l 168 472 l 173 474 l 173 471 z m 92 465 l 92 466 l 95 466 l 95 465 z m 95 456 l 95 455 b 94 454 92 454 89 454 l 89 456 z m 160 452 l 167 455 b 168 451 166 450 160 452 z m 170 448 l 173 450 l 173 440 l 167 446 z m 105 433 b 106 433 106 433 106 434 l 109 431 l 108 431 b 107 431 106 432 105 433 z m 92 430 l 94 430 l 94 425 l 93 424 b 92 425 92 427 92 430 z m 109 380 b 112 384 115 389 119 394 b 120 394 121 393 122 392 b 123 393 125 393 127 393 b 128 393 130 394 133 395 b 132 391 129 388 126 387 b 123 385 121 382 122 377 l 124 379 b 123 379 123 379 123 380 l 124 381 l 124 379 b 126 380 128 381 131 381 l 131 375 l 128 377 b 127 378 125 378 124 379 b 123 375 124 371 126 367 b 123 368 121 370 119 372 b 116 371 114 369 111 368 l 102 368 l 102 374 b 106 373 109 371 112 370 b 111 375 110 377 109 380 z m 164 382 l 161 382 l 161 387 b 162 387 162 387 163 388 b 163 387 163 386 164 385 z m 156 358 l 152 362 b 153 365 153 368 154 371 b 154 373 154 375 155 378 l 159 378 b 162 374 162 371 159 368 b 156 365 155 361 156 358 z m 104 341 l 107 344 b 108 341 108 339 108 336 l 106 336 b 105 335 104 335 103 335 b 103 335 102 336 101 337 z m 159 328 l 161 326 b 160 326 160 326 160 327 l 158 327 z m 163 322 b 162 323 161 324 161 325 b 162 325 163 324 164 323 b 163 323 163 323 163 322 z m 125 316 l 125 318 b 128 318 129 318 130 319 b 130 318 130 318 131 318 l 131 316 z m 178 231 b 177 228 176 226 176 225 l 176 223 l 175 224 b 174 222 174 220 174 218 l 181 215 l 181 211 l 163 211 b 159 208 157 204 157 200 b 156 195 154 192 149 191 l 138 191 b 138 196 140 198 145 199 l 151 202 b 147 209 147 209 138 212 l 138 217 l 135 215 b 134 214 132 214 131 213 b 130 214 129 214 128 215 l 125 218 b 120 213 113 209 106 205 b 105 209 102 211 98 212 b 94 213 91 215 89 218 l 89 226 b 90 226 91 226 92 227 l 96 227 b 93 224 93 224 92 221 l 96 221 b 97 220 99 220 102 220 b 101 221 101 223 102 225 b 102 226 101 228 100 229 b 96 233 94 238 95 243 b 94 242 92 242 91 242 b 89 242 87 242 85 241 b 87 246 88 251 89 256 b 90 261 93 266 98 270 b 102 267 105 265 107 263 l 111 267 b 113 266 115 264 118 263 b 117 264 117 266 117 267 b 117 268 117 269 116 270 b 115 271 115 272 115 273 b 115 274 115 275 114 276 l 109 276 b 110 279 112 281 114 280 b 116 279 118 278 120 279 l 123 272 b 124 273 125 273 126 273 b 127 273 128 274 130 275 b 128 277 126 279 125 281 l 120 286 l 112 286 b 112 288 112 290 111 291 l 118 294 l 114 298 b 118 303 121 307 122 308 l 133 311 b 134 310 135 308 136 306 b 136 303 137 301 138 299 b 142 298 145 300 148 305 b 147 306 147 307 147 308 b 146 308 146 309 145 310 b 147 314 150 316 154 315 b 155 317 155 318 156 318 l 157 317 b 156 317 155 316 155 315 l 154 315 l 154 294 b 157 293 159 291 162 290 b 164 288 167 286 170 284 l 170 273 b 167 275 164 277 161 280 l 151 286 b 150 283 149 282 147 283 b 144 284 142 283 141 281 l 141 277 b 142 277 145 276 149 274 b 145 273 142 271 140 270 b 138 272 136 274 134 275 l 137 281 b 137 282 138 284 139 286 b 134 285 131 283 132 280 b 132 277 132 273 131 270 b 129 270 127 270 126 269 b 123 265 124 261 130 256 b 131 257 131 259 131 261 b 131 262 131 264 132 266 b 133 265 135 264 136 263 l 138 265 b 139 265 140 266 141 267 b 142 266 144 264 146 263 l 153 256 l 144 256 b 145 255 147 252 150 248 l 154 252 b 155 253 157 254 158 255 l 155 262 b 156 263 157 263 158 263 b 159 263 160 263 161 264 b 158 267 156 269 155 272 b 156 273 159 273 163 273 b 164 272 165 270 167 268 b 167 266 167 264 168 261 b 168 258 167 256 164 255 b 167 254 169 253 171 252 l 177 248 l 177 243 b 176 244 175 244 175 245 b 174 246 174 246 173 246 l 168 246 l 171 236 b 167 237 163 239 160 241 b 156 242 152 244 148 245 l 148 237 b 151 238 153 239 154 239 b 155 236 155 234 153 233 b 150 232 148 230 147 227 b 148 224 150 222 151 221 b 150 220 149 220 148 220 l 146 220 b 143 224 141 228 138 235 l 136 232 b 135 231 135 229 135 228 b 135 225 137 221 138 217 b 141 217 144 216 146 215 b 148 213 151 211 154 210 l 154 222 b 158 223 160 224 160 224 l 157 233 b 166 234 167 228 168 223 l 174 223 b 175 224 175 224 175 225 l 175 227 b 174 227 174 227 174 228 l 175 229 b 174 229 175 230 178 231 z m 106 307 b 104 306 102 306 101 306 b 99 306 97 306 96 305 b 95 306 95 307 95 308 l 101 311 z m 96 294 b 100 298 102 301 106 306 b 107 303 108 299 110 295 b 108 292 103 291 96 294 z m 167 299 l 170 299 l 170 296 l 165 296 b 165 297 165 297 164 298 b 165 298 166 298 167 299 z m 99 283 b 99 286 99 287 98 288 b 99 288 100 288 101 289 l 101 283 z m 101 279 l 101 276 l 99 276 l 99 279 z m 108 276 b 108 275 107 274 106 273 b 106 274 106 274 105 274 b 106 275 107 276 108 276 z m 155 273 l 154 273 b 153 273 152 274 151 275 b 152 275 152 275 152 276 z m 175 224 b 175 225 175 225 176 225 l 175 225 z m 122 203 l 122 212 b 123 210 125 208 128 205 b 125 204 123 203 122 203 z m 93 207 l 93 210 l 94 210 l 94 207 z m 184 195 b 183 194 182 194 181 194 b 180 194 179 194 178 193 b 178 189 180 186 183 185 b 186 184 189 181 191 178 b 188 177 185 177 181 177 b 182 174 182 171 183 168 b 183 165 183 161 184 158 l 178 158 b 178 160 177 162 176 163 b 171 160 165 158 156 151 l 163 166 l 163 167 b 162 168 161 169 161 170 b 161 171 161 172 160 173 b 162 174 165 174 169 174 b 168 173 167 172 166 171 l 163 167 b 168 168 171 170 174 171 l 174 188 b 171 191 167 193 163 196 b 165 197 167 197 169 197 b 170 197 172 197 174 198 b 173 200 170 203 165 208 b 172 206 177 204 179 203 l 182 199 b 182 198 183 196 184 195 z m 112 200 l 112 203 l 117 203 b 118 203 118 202 118 201 b 115 201 113 201 112 200 z m 161 201 l 161 203 l 164 203 l 164 201 z m 79 189 b 80 190 81 190 82 190 b 83 190 84 190 85 191 l 85 196 b 88 197 92 198 97 201 b 94 194 92 189 85 190 b 84 189 83 188 82 188 b 81 188 80 188 79 187 z m 109 188 b 108 190 107 191 104 191 b 101 191 101 193 102 196 l 111 196 b 111 193 111 190 112 188 z m 153 189 b 154 190 156 190 157 190 b 158 190 159 190 160 191 l 160 179 z m 82 182 l 82 183 b 87 184 91 185 98 188 b 97 186 97 184 97 183 b 96 181 96 179 95 177 b 92 180 92 180 89 181 l 78 175 l 81 169 b 80 166 78 164 77 161 b 76 163 75 165 75 168 l 72 176 b 75 177 78 179 82 182 z m 92 161 l 92 171 b 91 171 91 171 91 172 l 90 172 b 89 171 88 171 87 171 b 86 171 86 171 86 172 l 84 175 l 90 172 b 89 173 89 173 90 173 b 91 173 91 173 92 172 l 91 172 b 94 171 96 171 98 171 b 98 167 98 164 99 161 z m 94 149 b 93 147 92 145 91 144 l 83 147 b 81 147 78 148 75 149 b 78 150 80 152 81 155 b 82 158 84 160 85 162 b 86 162 87 161 88 160 b 87 159 87 157 87 156 b 86 155 85 153 84 151 b 87 152 89 153 90 154 l 97 156 b 96 153 95 150 94 149 z m 165 142 l 165 146 b 164 147 164 148 164 149 b 167 150 171 152 176 153 b 179 152 181 150 184 147 b 186 150 188 151 190 151 l 190 149 b 189 148 188 148 187 148 b 186 148 185 148 184 147 l 184 139 b 182 138 180 138 178 138 l 170 135 b 171 139 173 142 174 144 b 172 144 169 143 165 142 z m 75 142 b 78 141 80 142 81 145 b 82 142 84 139 88 134 b 83 136 80 137 79 137 b 78 137 77 137 76 136 l 73 134 b 71 139 72 142 75 142 z m 195 135 b 191 128 194 123 198 118 b 193 114 188 111 184 108 b 183 109 182 109 182 110 b 181 110 180 110 179 111 b 178 110 176 109 173 108 l 176 115 b 176 116 177 118 178 121 b 176 121 174 121 173 122 b 171 122 168 122 165 123 b 173 127 178 128 182 124 b 184 122 186 120 189 118 b 188 120 188 122 188 124 b 188 126 187 128 186 130 b 191 133 194 134 195 135 z m 68 119 b 68 120 68 122 69 123 l 69 134 b 72 129 74 125 76 124 l 80 127 b 81 128 83 129 86 130 b 83 123 80 118 79 115 l 78 114 l 78 115 l 79 115 b 76 116 74 117 74 117 l 66 114 b 67 116 67 118 68 119 z m 74 117 b 74 117 74 117 74 117 z m 85 92 b 83 92 81 92 80 91 l 74 81 b 72 78 70 74 67 71 l 73 68 b 74 67 76 66 79 65 b 72 61 69 59 65 58 b 62 63 58 67 55 71 b 56 74 57 76 59 79 b 60 81 60 84 57 87 b 54 88 52 95 59 98 l 59 113 b 61 112 63 111 65 110 l 69 107 l 69 98 b 70 99 70 101 71 102 l 74 106 b 77 104 80 103 83 102 b 86 101 88 98 89 93 b 88 92 86 92 85 92 z m 82 109 b 81 108 80 108 80 108 b 79 109 79 111 79 113 b 81 112 82 110 82 109 z m 87 108 l 87 105 l 86 105 l 86 108 z m 179 91 b 182 94 184 96 185 98 l 189 102 b 192 99 193 97 196 93 b 193 92 190 92 188 92 b 185 92 182 92 179 91 z m 206 70 b 203 69 201 69 200 69 b 198 69 196 69 195 68 b 194 69 194 70 194 71 b 194 72 192 77 189 72 b 187 69 185 66 184 62 b 179 63 179 67 180 71 b 181 73 181 75 180 77 b 180 80 179 83 176 90 b 188 85 198 79 206 70 z m 200 86 l 194 86 b 194 87 194 87 193 87 b 194 88 196 88 197 89 b 198 89 199 89 200 90 z m 174 80 l 171 80 l 171 81 l 174 81 z m 173 69 l 172 69 l 172 72 l 173 72 z m 50 69 l 51 69 l 51 65 l 50 65 z m 194 48 l 194 44 b 193 43 193 41 193 40 b 189 43 186 45 183 48 b 184 50 184 52 185 53 b 185 56 187 58 184 61 b 187 64 189 65 190 66 b 195 64 198 61 197 56 l 206 60 b 201 52 201 52 194 48 z m 74 39 l 71 41 b 70 41 68 41 67 42 l 62 37 b 63 36 65 36 66 36 b 67 36 68 36 69 35 b 68 34 68 32 68 31 b 68 30 68 28 67 27 l 69 20 b 65 20 63 22 63 26 b 63 29 62 32 59 35 b 57 36 55 38 54 39 b 53 38 51 37 47 35 b 51 43 54 49 57 56 b 59 55 61 55 62 54 b 63 53 65 53 66 52 b 69 53 69 53 73 56 b 72 54 72 52 72 51 b 71 50 71 48 70 46 l 75 41 b 75 40 75 39 74 39 z m 207 51 l 210 51 l 210 50 l 207 50 z m 204 40 l 197 40 l 197 42 l 204 42 z m 194 30 l 191 30 b 190 29 189 29 188 29 l 188 36 l 193 36 b 193 35 193 34 194 33 z m 55 27 b 53 26 51 24 50 23 b 49 26 49 29 50 30 l 54 33 b 56 30 56 28 55 27 z"},")":{"x_min":0,"x_max":212,"ha":212,"o":"m 167 346 b 166 347 166 349 167 351 b 168 355 169 359 169 364 b 169 368 169 373 172 378 b 173 380 173 382 172 383 b 170 387 169 391 170 395 b 170 399 169 403 167 407 b 163 414 162 421 163 430 b 164 443 161 455 157 468 b 156 471 155 475 155 478 b 155 484 153 490 152 497 b 151 500 152 504 153 507 b 154 510 154 512 153 513 b 149 521 147 529 146 538 b 145 546 143 554 140 562 b 139 567 137 573 136 579 b 132 590 129 600 123 611 b 120 616 117 622 116 628 l 116 634 b 116 636 115 638 114 639 b 108 646 104 653 103 661 b 101 669 98 677 95 684 b 88 699 83 713 71 721 b 54 719 41 717 30 715 b 26 712 24 711 21 708 l 21 695 l 34 670 l 34 656 l 44 638 b 47 632 50 626 53 620 b 56 613 59 605 59 598 b 59 591 60 584 62 578 b 63 572 65 566 66 559 l 69 547 b 70 545 70 543 70 541 b 69 539 70 537 72 536 b 72 530 73 524 76 519 b 78 514 79 508 79 503 b 78 499 79 495 80 492 l 83 480 b 83 479 83 478 84 477 b 85 476 85 474 85 473 l 88 451 b 88 443 88 435 89 428 l 89 423 b 92 420 93 417 92 413 b 91 409 92 406 95 403 b 95 399 95 395 96 392 b 96 388 96 384 95 380 b 94 373 95 367 96 360 b 97 353 95 346 92 339 b 91 338 91 336 92 335 b 93 333 93 331 93 330 l 96 320 b 97 317 96 313 95 310 b 92 305 91 301 92 297 b 93 292 93 287 92 282 b 91 278 91 274 92 270 b 93 266 92 262 91 258 b 87 244 85 230 85 215 b 85 212 85 209 84 208 b 83 203 81 198 80 193 b 79 188 78 183 79 179 b 74 167 69 159 69 148 b 69 146 69 144 68 143 b 67 141 67 139 67 138 b 62 122 56 107 56 90 b 56 89 56 88 55 87 b 54 86 54 84 54 83 l 45 62 b 42 55 39 47 37 40 b 34 29 30 18 24 7 l 24 -6 b 23 -11 25 -15 28 -19 l 77 -19 b 83 -14 87 -8 90 -2 b 95 10 103 28 111 49 b 115 60 120 70 127 79 b 127 82 127 84 128 87 l 128 93 b 129 96 130 98 131 100 b 132 102 133 104 132 106 b 131 109 132 111 133 113 b 134 114 135 116 134 119 b 134 121 135 123 136 126 b 138 130 140 135 141 140 b 141 142 142 144 143 146 b 144 149 146 151 147 153 l 150 159 b 149 160 149 162 148 163 b 147 164 147 165 147 166 b 148 172 149 179 152 188 b 159 208 164 227 163 250 b 163 259 164 269 166 278 b 167 287 167 296 166 305 l 166 308 b 171 320 171 333 167 346 z m 101 592 l 101 586 l 99 586 l 99 592 z m 101 574 l 99 574 b 98 573 97 573 96 573 l 96 576 l 101 576 z m 110 547 l 110 544 l 109 544 l 109 547 z m 111 531 l 109 531 l 109 534 b 108 535 108 536 108 537 l 111 537 z m 116 531 b 121 526 115 524 111 523 b 112 524 112 526 113 527 z m 104 521 l 104 518 l 103 518 l 103 521 z m 128 503 l 120 511 b 123 511 125 511 126 512 z m 114 503 b 115 503 116 504 117 505 b 118 502 120 500 121 497 b 118 495 116 495 115 496 l 111 500 z m 108 504 l 108 503 l 105 503 l 105 504 z m 119 477 b 120 479 122 481 123 482 b 124 483 126 485 127 488 l 127 476 b 126 476 125 476 124 477 z m 129 472 b 130 472 130 472 130 471 l 129 470 b 129 471 129 472 129 472 z m 122 459 b 121 464 122 467 127 468 b 126 466 125 463 122 459 z m 133 460 l 133 453 l 132 453 l 132 460 z m 124 437 l 122 437 l 122 440 b 121 441 121 442 121 443 l 124 443 z m 120 405 l 120 401 l 119 401 l 119 405 z m 137 395 l 135 395 l 134 401 l 137 401 z m 137 374 b 136 373 135 372 134 372 l 132 370 l 132 380 z m 143 379 l 143 372 l 141 372 l 141 379 z m 141 365 b 141 366 141 367 142 368 l 142 369 l 143 368 l 142 367 b 142 366 142 366 141 365 l 140 366 b 140 365 139 364 138 363 l 137 364 b 138 365 138 365 139 365 l 140 366 b 141 366 141 366 141 365 z m 140 359 b 140 357 140 355 141 354 b 136 352 134 354 134 359 z m 128 352 b 129 352 129 352 130 353 b 130 350 130 348 131 347 l 128 347 z m 138 330 b 137 331 137 332 137 333 l 140 333 l 140 327 l 138 327 z m 130 326 l 130 325 b 129 325 129 325 129 324 l 129 327 z m 126 325 b 127 324 127 324 127 323 b 126 316 122 318 126 325 z m 136 307 l 133 320 b 136 320 138 320 140 321 l 140 307 z m 137 260 l 137 261 l 144 261 l 144 260 z m 122 250 l 121 251 b 124 252 126 253 127 253 l 127 250 z m 132 236 b 131 237 131 237 131 238 l 134 241 b 135 242 135 242 136 242 b 137 242 138 242 139 243 l 141 241 b 137 238 134 237 132 236 z m 129 220 b 128 225 130 229 136 230 b 137 227 137 225 135 224 z m 121 189 l 121 190 l 124 190 l 124 189 z m 121 159 b 120 156 118 153 117 151 b 115 149 114 146 113 143 l 110 140 b 108 139 106 138 105 137 b 106 136 108 136 109 136 b 110 135 112 134 115 133 b 108 130 106 129 102 126 b 102 129 102 131 101 132 b 100 132 98 132 97 133 b 95 133 92 133 89 134 b 91 136 93 138 95 139 l 99 142 b 98 143 97 144 96 147 b 97 151 100 153 103 152 b 106 151 109 152 112 153 b 111 154 111 156 111 157 b 110 158 110 160 109 161 l 121 164 b 121 161 121 159 121 159 z m 80 65 l 80 71 l 81 71 l 81 65 z m 74 42 b 72 45 72 48 74 49 l 77 52 b 79 49 79 47 78 46 z"},"&":{"x_min":0,"x_max":322,"ha":322,"o":"m 273 98 b 265 102 259 108 254 115 b 253 118 253 121 252 124 b 251 126 251 128 251 131 b 250 149 250 167 251 185 b 252 203 251 221 248 238 b 247 247 246 255 247 264 l 247 287 b 248 290 250 293 251 296 b 252 298 253 300 254 301 l 270 310 b 275 313 280 316 283 321 l 283 342 b 282 348 282 354 283 361 b 283 374 283 386 274 397 b 270 397 267 397 264 396 b 253 393 242 393 231 396 b 226 397 222 398 218 398 b 214 398 210 397 207 395 b 195 398 185 399 174 400 b 172 400 170 400 168 399 b 165 398 163 397 161 397 b 156 396 152 396 148 397 l 136 397 b 133 399 131 401 130 403 b 121 413 119 424 122 437 l 125 447 b 126 450 125 453 124 455 b 122 460 121 464 122 468 l 122 480 b 121 484 121 488 122 493 b 123 497 122 501 121 504 b 119 509 118 514 119 519 l 119 533 b 119 536 120 538 122 541 b 125 545 126 552 123 558 b 121 561 121 563 122 566 b 124 571 125 577 125 582 b 124 587 124 592 125 596 b 130 603 133 606 136 609 l 156 609 l 165 603 b 168 600 170 598 173 596 l 173 576 b 173 571 174 566 176 561 b 177 559 177 557 176 554 b 174 549 172 544 173 539 b 174 536 173 534 171 531 b 170 530 169 525 170 524 b 173 521 175 519 174 516 b 173 513 173 509 174 506 b 177 503 181 501 185 499 l 195 490 b 198 491 202 492 205 493 l 214 496 b 216 495 218 495 220 494 b 222 493 224 493 225 494 b 228 496 231 497 234 497 b 237 496 240 496 243 497 l 246 500 b 247 500 247 501 247 502 b 246 507 247 513 250 519 b 252 524 252 530 251 536 b 250 539 250 541 250 544 b 250 546 249 548 248 550 b 251 553 252 555 251 558 b 250 561 250 563 250 566 b 251 572 251 578 249 584 b 247 589 246 595 247 601 b 248 610 247 616 244 621 b 242 624 241 628 241 631 l 241 640 b 236 645 233 650 231 656 b 229 661 225 666 220 670 b 215 674 210 678 206 682 b 201 686 196 690 191 693 b 189 694 187 694 185 694 b 183 694 181 694 179 695 b 171 698 162 701 153 700 b 152 699 150 699 149 698 b 147 697 145 696 143 697 b 126 698 110 694 95 689 b 90 684 85 680 80 676 l 66 665 b 63 656 60 651 58 648 b 55 643 52 637 50 630 b 49 627 50 625 51 623 b 52 620 51 618 50 616 b 49 613 48 609 48 606 b 48 602 48 598 47 595 b 47 593 46 591 45 590 l 42 580 b 41 577 41 574 42 571 b 43 566 44 562 44 558 l 44 546 l 44 443 l 44 437 b 43 435 43 433 44 432 b 47 425 48 417 49 410 b 49 403 50 396 51 390 b 54 385 58 380 61 375 l 70 360 l 70 342 b 59 335 53 325 48 314 b 47 311 47 309 48 306 b 48 303 47 300 46 298 b 45 295 44 292 45 290 b 45 287 45 285 44 282 l 44 256 b 42 249 41 243 41 238 b 41 233 42 227 43 218 b 46 205 47 192 42 177 b 41 174 40 171 41 168 b 41 165 40 161 39 158 b 38 155 38 152 39 149 l 42 139 b 43 136 44 135 44 134 b 45 124 45 114 46 104 b 47 94 47 84 47 74 b 47 63 52 55 57 47 l 64 40 b 80 16 102 4 131 4 b 134 3 137 3 140 4 b 143 4 146 3 149 1 b 153 -1 158 0 165 3 b 176 8 186 11 197 14 b 203 19 209 23 214 26 b 223 23 232 19 241 16 b 249 13 258 11 267 10 b 270 11 272 13 274 14 b 275 15 277 17 279 18 b 280 21 282 23 283 26 l 286 33 b 287 41 288 49 288 56 b 288 63 288 70 289 76 b 286 87 280 94 273 98 z m 143 657 b 146 660 149 663 154 666 l 154 655 b 157 656 158 658 157 661 b 156 663 156 665 159 667 l 165 667 b 165 664 164 660 163 656 b 166 655 167 654 167 655 b 170 658 173 660 176 661 l 187 664 b 184 657 181 652 180 649 b 181 648 182 648 183 648 b 184 648 185 648 186 647 b 182 643 179 640 177 637 b 175 639 174 641 173 642 b 170 641 168 640 169 638 b 170 636 169 634 168 632 l 162 641 l 154 638 l 154 645 b 151 642 149 640 148 638 b 145 639 144 640 141 643 b 140 644 138 644 137 645 b 136 646 134 647 132 648 b 137 651 140 654 143 657 z m 122 664 b 125 663 127 661 129 660 l 137 655 l 122 655 z m 108 657 l 108 652 l 107 652 b 106 653 106 653 106 654 b 106 655 106 656 105 657 z m 107 649 b 108 648 110 647 111 646 l 114 643 b 112 642 111 642 110 642 b 109 642 107 642 106 641 b 106 644 106 645 105 646 b 106 647 107 648 107 649 z m 131 643 b 130 642 130 642 129 642 l 127 639 l 118 645 b 119 649 124 648 131 643 z m 204 640 b 205 639 205 637 206 636 b 206 635 206 633 207 632 l 203 632 b 202 632 202 635 204 640 z m 98 638 b 97 635 95 632 94 629 b 93 632 93 634 93 635 b 93 636 93 637 92 638 z m 180 630 b 181 631 181 633 182 634 b 183 635 184 636 185 638 l 185 626 b 184 627 182 628 180 630 z m 105 634 l 112 634 l 112 633 l 105 633 z m 91 628 b 92 628 94 628 95 627 l 99 629 b 102 628 104 626 106 625 l 109 628 b 110 628 111 629 113 630 b 112 625 111 623 111 623 b 104 620 96 616 86 613 b 87 616 88 618 88 621 b 88 622 87 625 85 630 b 87 629 89 628 91 628 z m 197 626 l 208 626 l 208 619 b 207 620 205 620 204 621 b 203 621 201 621 200 622 l 198 620 b 197 620 196 620 195 621 b 194 621 193 621 192 622 l 192 616 l 195 614 b 195 613 195 613 194 613 b 194 614 193 615 192 616 l 183 616 l 182 615 b 182 614 182 614 181 613 l 180 614 l 182 616 l 183 616 l 186 625 b 189 626 193 626 197 626 z m 176 623 l 173 623 l 173 624 l 176 624 z m 118 617 l 115 617 b 114 616 114 616 113 616 b 113 617 113 618 112 619 l 118 619 z m 218 619 l 218 617 l 215 617 b 214 616 212 616 212 619 z m 211 612 b 210 610 210 608 209 606 l 206 596 l 206 617 z m 108 604 b 106 608 104 612 103 616 l 108 616 z m 86 608 b 88 609 91 610 94 612 b 93 609 92 608 91 607 b 90 606 90 604 89 603 b 90 600 91 599 92 598 b 90 596 89 596 89 597 b 86 600 83 602 79 605 z m 97 600 l 97 603 l 98 603 l 98 600 z m 97 592 b 96 591 95 590 94 590 l 90 587 b 89 591 88 595 97 592 z m 77 592 b 78 593 80 593 82 593 l 82 591 l 77 591 z m 206 591 l 206 592 b 207 593 208 593 211 593 l 211 591 z m 222 592 b 219 581 220 581 209 582 b 209 583 209 584 208 585 z m 95 585 b 95 583 95 582 94 581 l 91 571 l 83 579 b 84 580 86 581 88 582 z m 224 573 b 224 572 224 572 225 571 b 224 571 223 572 222 573 l 223 574 z m 77 570 l 82 570 b 82 569 82 569 83 569 b 82 568 81 568 80 568 b 79 568 78 568 77 567 z m 227 568 b 226 569 225 570 224 570 b 226 570 227 570 228 569 z m 86 568 l 86 555 b 86 551 88 548 91 545 l 84 545 b 83 548 83 550 82 552 b 81 554 81 556 80 559 l 83 563 b 84 564 85 565 86 568 z m 210 561 b 209 562 209 562 209 563 l 212 566 b 213 567 213 567 214 567 b 215 567 216 567 217 568 l 219 565 b 218 564 216 564 215 563 b 213 562 211 562 210 561 z m 214 550 b 216 551 218 553 221 554 b 222 550 223 546 214 550 z m 204 550 b 211 547 210 548 211 541 b 209 543 207 546 204 550 z m 224 539 l 223 539 l 223 542 l 224 542 z m 86 541 l 86 532 b 83 533 81 535 79 536 l 71 541 z m 95 526 l 95 523 l 90 523 l 90 525 b 92 525 94 525 95 526 z m 74 519 l 74 522 l 75 522 l 75 519 z m 84 510 l 84 513 l 85 513 l 85 510 z m 96 511 b 95 510 95 508 94 507 b 93 506 92 504 91 502 b 86 509 92 510 96 511 z m 75 510 b 76 509 79 507 82 504 l 78 504 b 77 503 75 503 74 503 l 74 506 b 73 506 73 507 73 508 z m 92 497 l 92 494 l 87 494 b 87 495 87 495 86 496 b 89 496 91 496 92 497 z m 76 496 l 82 496 b 83 495 83 494 83 492 b 78 489 76 490 76 496 z m 74 468 b 75 469 77 471 79 472 b 80 473 82 475 83 477 b 83 471 80 468 74 468 z m 89 472 l 89 473 l 96 473 l 96 472 z m 89 465 b 89 462 89 460 90 459 l 83 459 l 83 464 b 85 464 87 464 89 465 z m 84 452 b 85 448 87 443 88 436 l 80 436 l 80 452 z m 102 448 l 102 446 l 96 446 l 96 448 z m 72 445 b 72 445 72 445 73 445 l 73 439 l 71 439 l 71 442 b 70 443 70 443 70 444 b 71 444 71 444 72 445 z m 80 432 l 82 432 b 82 431 82 430 83 429 b 83 428 83 428 83 427 l 82 427 b 81 426 81 426 80 426 z m 92 425 l 98 425 l 94 417 b 93 419 93 421 93 422 b 93 423 93 424 92 425 z m 83 418 l 86 418 l 86 417 l 83 417 z m 99 398 b 98 399 97 400 96 400 b 93 405 91 409 92 411 b 92 413 93 415 94 416 b 97 409 99 405 103 398 z m 89 395 b 89 396 89 397 90 398 l 90 399 b 91 398 92 398 93 398 b 94 398 95 398 96 397 b 98 394 99 392 99 391 b 95 392 92 394 89 395 z m 94 377 l 91 374 l 89 377 b 88 377 88 377 87 378 b 88 380 90 382 91 383 b 92 384 94 386 95 388 b 96 385 98 383 99 381 b 100 378 102 376 103 373 b 100 372 99 371 98 371 b 97 374 95 376 94 377 z m 148 374 l 150 374 l 150 368 l 148 368 z m 110 368 l 110 371 l 111 371 l 111 368 z m 154 368 b 161 367 166 365 170 364 l 179 361 b 182 360 184 356 183 351 b 183 350 185 347 188 342 l 180 345 b 177 345 174 346 171 347 b 173 348 175 349 176 350 l 180 353 b 179 354 179 354 179 355 b 175 354 171 352 167 351 b 166 350 166 350 166 349 l 164 347 b 165 344 167 341 168 338 b 165 339 163 340 162 341 b 160 342 158 343 157 344 b 158 351 162 353 167 351 l 167 360 b 165 359 163 359 161 359 b 159 359 157 359 154 358 z m 197 362 l 188 368 b 196 367 196 367 197 362 z m 215 368 l 215 360 b 213 364 212 367 212 368 z m 242 368 l 243 368 l 243 361 l 242 361 z m 125 367 b 129 368 132 367 134 365 b 136 362 138 360 141 358 b 141 359 142 360 143 361 b 143 360 143 360 144 360 l 143 359 b 142 359 142 359 141 358 l 141 352 l 131 352 l 128 346 l 132 346 b 133 345 134 345 136 344 b 132 343 130 342 127 342 l 124 345 b 122 346 120 348 117 351 b 120 356 122 362 125 367 z m 104 364 b 104 364 105 363 106 362 l 104 362 b 103 362 103 362 103 363 b 103 364 103 364 104 364 z m 233 364 l 240 359 l 229 359 b 230 362 231 363 233 364 z m 196 358 b 193 355 192 354 191 351 b 189 355 187 359 186 362 b 189 361 192 359 196 358 z m 223 358 l 226 358 b 225 356 223 355 219 355 l 219 359 b 218 360 218 361 218 362 b 220 361 222 359 223 358 z m 216 347 b 215 346 214 346 213 346 b 212 346 211 346 210 345 l 207 353 b 206 356 204 358 203 361 b 208 357 213 354 216 347 z m 112 348 b 109 343 104 341 97 343 l 105 351 b 105 351 103 352 99 353 b 101 355 102 357 103 358 b 104 358 105 359 106 360 b 107 358 108 356 109 354 z m 234 349 l 228 349 b 228 350 228 351 227 351 b 230 352 234 354 238 355 l 248 358 b 251 355 252 353 251 351 b 249 349 248 347 247 345 b 248 342 250 340 251 339 l 246 339 b 243 343 242 346 241 348 b 238 348 236 348 234 349 z m 235 333 b 232 333 230 332 228 331 b 229 328 230 327 233 323 b 232 323 231 323 230 324 l 227 324 l 225 324 b 225 327 224 329 223 330 b 221 331 219 332 216 333 l 216 329 b 215 327 215 325 215 324 b 218 323 220 322 221 322 b 223 317 221 312 214 308 b 213 309 213 311 213 312 b 212 313 212 315 211 316 b 208 316 205 316 203 317 l 203 319 b 204 322 206 324 208 327 l 213 335 b 200 332 195 332 184 325 b 184 327 183 329 182 332 l 170 332 l 172 322 b 170 323 168 324 167 325 b 165 325 163 326 160 327 b 162 328 164 329 165 330 b 166 331 168 331 169 332 b 172 335 173 337 174 338 l 186 338 l 183 332 l 188 332 b 192 336 195 339 197 342 b 201 338 204 338 207 342 l 211 338 b 213 339 215 341 218 342 b 220 343 221 345 222 348 b 223 347 225 347 227 346 b 228 345 230 345 231 344 l 231 336 l 240 339 b 239 335 238 333 235 333 z m 119 339 l 119 342 l 120 342 l 120 339 z m 150 342 b 151 342 151 339 149 334 b 147 337 146 339 145 342 z m 101 329 b 103 332 105 334 107 335 b 108 336 110 338 111 339 l 114 339 b 114 338 114 338 115 338 b 114 336 112 333 111 329 z m 157 338 l 160 338 l 160 333 l 158 333 l 158 335 b 157 336 157 337 157 338 z m 124 336 l 124 329 l 122 329 l 122 336 z m 141 335 l 141 333 l 138 333 b 137 332 136 332 135 332 b 136 334 138 335 141 335 z m 248 321 l 248 327 b 247 328 247 331 247 334 b 248 333 250 332 251 331 l 253 328 b 252 325 251 324 248 321 z m 128 332 l 134 332 l 134 323 l 128 323 b 128 322 127 321 126 320 b 125 320 126 322 127 322 l 128 323 z m 150 329 l 150 326 l 145 326 b 145 327 145 327 144 328 b 145 328 146 328 147 329 z m 120 326 l 120 323 l 119 323 l 119 326 z m 90 317 l 90 318 b 91 319 91 319 92 319 b 93 319 94 319 95 320 l 95 317 z m 232 316 l 232 319 l 233 319 l 233 316 z m 198 310 l 193 310 b 193 312 193 314 192 315 b 193 316 194 316 195 316 b 196 316 197 316 198 317 z m 94 307 b 93 308 93 309 93 310 b 93 310 93 311 92 312 b 93 312 94 312 95 313 l 95 307 z m 131 96 b 129 98 127 100 126 101 l 123 124 b 122 131 121 138 118 145 l 118 151 b 125 163 122 175 119 187 b 118 188 118 190 118 192 l 115 196 b 118 197 119 199 118 202 b 117 204 118 206 119 207 b 121 210 122 214 122 217 b 121 220 121 224 122 227 l 122 234 b 122 236 123 238 124 240 b 127 244 125 250 122 255 b 117 261 117 267 120 272 b 121 274 122 276 122 279 l 122 286 b 124 289 126 293 128 297 b 130 300 132 304 135 307 b 140 306 146 306 151 307 b 156 308 160 307 164 304 b 165 301 167 299 169 298 b 170 296 172 294 173 291 l 173 290 b 173 277 174 264 176 251 b 177 242 177 233 175 224 b 172 215 172 206 173 197 b 169 192 168 188 171 184 b 173 180 174 176 173 171 b 181 155 176 139 172 124 b 171 120 170 116 170 111 b 169 106 167 102 164 98 b 156 87 147 84 136 91 b 134 92 132 94 131 96 z m 87 307 b 90 304 91 303 94 302 l 94 301 b 93 301 93 301 93 300 b 94 300 95 299 95 298 l 94 297 b 94 298 93 299 92 300 l 86 300 b 86 303 86 305 87 307 z m 225 304 l 219 304 l 218 305 b 219 306 221 306 222 306 b 223 306 224 306 225 307 z m 214 294 l 209 294 l 209 303 l 214 303 z m 74 300 l 79 300 l 79 298 l 77 298 b 76 297 75 297 74 297 z m 200 297 l 200 300 l 201 300 l 201 297 z m 90 279 b 87 281 85 283 84 285 b 85 287 85 289 86 291 b 86 293 87 296 88 299 b 89 296 89 293 89 291 b 89 289 89 287 90 285 b 95 283 98 279 99 273 l 98 272 b 97 272 97 272 96 271 z m 206 289 b 208 288 210 287 212 286 l 203 281 b 202 285 200 289 199 292 z m 101 290 l 101 287 l 100 287 l 100 290 z m 221 289 l 221 285 b 221 284 219 284 214 286 z m 76 277 l 83 277 l 83 275 l 76 275 z m 80 266 b 82 267 84 269 85 272 b 86 270 87 268 88 267 b 89 266 89 264 90 263 b 89 262 89 262 88 262 b 88 262 87 263 84 264 b 83 263 82 262 81 261 l 77 257 b 76 261 77 264 80 266 z m 205 265 l 205 268 l 211 268 b 211 267 211 267 212 267 z m 215 260 b 218 261 220 262 221 262 l 221 259 l 216 259 z m 90 252 l 90 255 b 89 255 89 256 89 257 l 96 257 l 96 253 b 95 252 93 252 90 252 z m 217 251 b 218 251 219 250 220 249 b 217 247 214 244 211 241 l 209 243 b 210 244 210 246 211 248 b 212 249 213 251 214 253 b 215 252 216 251 217 251 z m 74 244 b 75 244 76 245 77 246 b 78 246 79 245 79 244 b 78 241 76 239 75 235 b 74 236 73 237 73 238 b 72 239 71 240 70 241 z m 89 243 l 89 244 l 93 244 l 93 243 z m 223 226 l 223 229 l 224 229 l 224 226 z m 93 228 l 93 227 l 86 227 l 86 228 z m 80 219 l 89 219 b 86 218 85 217 84 216 b 83 215 81 215 80 214 z m 208 219 l 208 214 b 207 214 207 214 206 213 l 205 219 z m 219 213 l 219 216 l 220 216 l 220 213 z m 211 209 l 211 204 l 210 204 b 209 205 209 206 209 207 b 209 207 209 208 208 209 z m 72 199 b 73 200 75 200 76 200 b 77 200 78 200 79 201 l 79 191 b 77 194 75 196 72 199 z m 89 194 l 83 194 l 83 196 b 84 196 85 196 86 197 b 87 197 89 197 89 194 z m 213 197 l 218 197 l 218 187 b 215 191 214 194 213 197 z m 208 193 l 208 192 b 207 191 205 191 204 191 b 203 191 201 191 200 190 l 200 192 b 199 192 199 192 199 193 z m 215 186 l 215 185 l 212 185 l 212 186 z m 81 174 b 80 175 80 176 79 177 l 77 180 b 81 181 85 182 81 174 z m 90 178 l 90 180 l 95 180 l 95 179 b 94 178 93 178 90 178 z m 215 180 l 218 180 l 218 175 l 216 175 l 216 178 b 215 178 215 179 215 180 z m 75 174 l 75 171 l 74 171 l 74 174 z m 208 169 l 207 169 b 207 168 207 168 206 168 b 206 171 206 173 205 174 l 208 174 z m 220 171 l 220 168 l 219 168 l 219 171 z m 205 164 l 205 163 b 204 162 202 162 200 162 b 200 163 200 163 199 164 z m 70 156 b 74 159 76 160 79 163 b 79 162 79 161 80 160 l 80 156 z m 209 157 l 209 160 l 212 163 b 211 158 210 154 211 152 b 211 150 212 148 213 147 b 212 146 211 146 210 146 b 209 146 208 146 207 145 b 204 150 205 153 208 156 z m 209 157 b 210 156 210 156 210 155 b 210 156 210 157 209 157 z m 220 155 l 221 154 l 219 152 b 219 153 219 154 220 155 z m 83 143 l 86 152 l 88 152 b 89 149 89 146 90 143 b 90 140 90 136 91 133 l 90 133 l 89 133 b 88 132 88 132 87 132 l 85 122 l 79 134 b 80 137 82 140 83 143 z m 218 152 b 218 151 217 150 216 149 b 216 150 216 150 215 150 z m 222 141 b 220 140 218 140 216 139 l 216 140 b 215 140 215 140 215 141 l 221 145 b 225 148 226 149 229 144 z m 202 139 l 204 139 b 205 138 205 137 205 136 l 199 136 l 199 138 b 200 138 201 138 202 139 z m 222 130 l 222 132 b 224 132 226 132 227 133 l 227 130 z m 236 117 b 237 114 237 111 236 110 b 234 109 232 107 230 105 b 229 107 229 109 229 110 b 228 111 228 112 228 113 b 223 114 220 111 218 106 b 219 102 224 100 229 99 b 233 98 238 96 238 89 b 235 90 233 90 231 90 b 226 90 222 93 218 97 b 216 99 214 101 212 104 b 211 109 212 113 215 116 b 212 117 210 119 208 121 l 202 125 b 205 126 205 127 208 128 b 208 127 209 125 210 122 l 219 127 b 218 124 216 120 215 116 b 216 116 218 116 220 117 b 223 117 224 117 228 113 b 231 114 233 116 236 117 z m 86 115 b 83 111 78 110 77 111 b 80 118 82 118 86 115 z m 84 103 b 85 102 87 102 88 101 l 94 104 b 93 109 93 111 92 112 l 98 112 b 97 111 92 101 92 96 b 91 93 89 91 85 90 l 78 104 b 81 103 83 103 84 103 z m 70 107 l 70 109 b 71 109 71 109 72 110 l 73 110 b 73 108 72 107 70 107 z m 218 93 l 218 92 b 216 91 214 91 212 90 l 203 87 b 202 88 202 89 201 90 l 198 93 z m 105 88 b 104 87 101 85 99 85 b 98 85 96 85 95 84 b 94 84 93 83 92 82 b 90 83 89 84 89 86 l 97 89 b 100 90 103 91 108 92 b 106 90 105 89 105 88 z m 180 82 b 181 85 182 86 185 89 b 185 81 185 81 180 82 z m 227 67 b 220 58 224 58 228 55 b 220 52 215 51 210 48 b 210 53 211 56 212 63 b 211 62 210 61 209 61 l 206 58 b 201 60 198 63 197 68 b 196 72 195 76 194 81 l 198 78 b 198 79 199 81 200 84 b 205 83 210 81 213 80 b 214 81 215 83 216 85 b 216 86 217 88 218 89 b 219 88 220 87 220 87 l 223 77 b 224 80 225 82 227 85 b 230 82 232 81 236 78 b 233 75 230 72 228 69 b 226 67 225 66 223 64 z m 247 87 b 244 84 244 82 241 75 l 241 87 z m 101 75 l 91 75 b 91 77 91 79 92 80 b 94 79 97 78 101 75 z m 241 70 l 245 73 b 246 74 248 75 250 76 b 249 74 249 72 249 71 b 248 69 248 67 247 65 b 245 66 244 67 243 68 z m 89 75 b 89 73 87 71 83 68 l 83 74 b 84 74 85 74 86 75 z m 108 75 l 108 72 l 103 72 l 103 73 b 104 74 104 74 105 74 b 106 74 107 74 108 75 z m 233 46 b 230 55 231 61 235 65 b 234 66 234 67 234 68 b 233 68 233 69 232 70 b 233 71 235 71 236 71 b 237 68 239 66 240 63 b 238 60 236 54 233 46 z m 102 63 l 93 54 l 90 57 b 89 57 89 57 88 58 b 87 57 85 55 82 53 b 84 59 85 63 86 64 b 89 65 93 65 97 66 b 100 66 104 66 108 67 l 110 64 b 111 62 112 60 113 59 b 109 60 105 62 102 63 z m 173 67 l 173 66 l 170 66 l 170 67 z m 188 60 b 185 59 183 59 182 59 b 180 59 178 59 176 58 b 177 60 177 63 177 66 b 181 63 183 63 188 60 z m 123 62 l 123 65 l 124 65 l 124 62 z m 196 60 b 191 57 189 58 189 65 l 195 65 b 195 64 195 63 196 63 z m 249 64 b 250 64 250 64 251 65 l 252 65 l 253 64 b 253 63 254 62 255 61 z m 166 64 l 166 63 b 165 62 164 62 161 62 l 161 64 z m 247 63 l 248 64 b 249 63 249 63 247 63 z m 164 42 l 161 40 b 160 40 158 41 155 42 b 155 42 153 41 149 38 l 146 45 b 145 45 143 45 142 46 l 138 46 l 138 55 l 137 56 b 136 56 135 58 136 58 l 138 56 l 138 55 l 146 61 b 149 60 151 58 154 57 l 150 53 l 153 49 b 153 48 154 46 155 45 b 157 48 158 51 159 54 b 162 50 164 47 167 44 z m 103 53 b 102 52 100 52 97 51 l 105 59 b 105 56 105 54 106 53 z m 115 50 b 118 57 119 57 122 57 b 123 57 125 58 126 59 b 127 58 129 56 130 53 z m 196 43 b 194 42 193 43 192 45 b 191 46 189 48 186 49 l 170 49 l 170 56 b 173 55 176 53 180 52 b 181 53 183 54 185 56 l 191 53 b 192 52 194 51 196 50 z m 111 46 l 110 46 l 110 49 l 111 49 z m 118 44 b 119 45 120 45 121 45 b 121 45 122 45 123 46 b 124 45 124 44 124 43 b 124 42 124 42 125 41 b 126 40 127 38 129 36 b 121 35 119 39 118 44 z m 134 39 l 132 39 l 132 46 l 134 46 z m 182 40 l 177 40 l 177 41 b 178 42 179 42 182 42 z m 138 36 l 138 38 b 139 38 140 38 141 39 l 143 39 b 143 38 143 37 144 36 z m 155 32 b 156 33 157 35 158 36 l 161 39 b 162 38 163 36 164 33 b 161 33 158 33 155 32 z m 143 26 l 142 26 l 142 29 l 143 29 z"},"_":{"x_min":0,"x_max":397,"ha":397,"o":"m 393 -32 b 390 -27 388 -23 387 -18 l 330 -18 b 328 -18 326 -18 324 -17 b 322 -16 320 -16 319 -16 b 315 -15 311 -15 307 -15 b 302 -15 298 -16 295 -18 b 292 -17 290 -16 288 -15 l 280 -12 b 275 -15 269 -16 261 -14 b 257 -11 254 -11 253 -12 b 246 -15 242 -15 235 -15 b 232 -15 231 -16 230 -18 b 227 -16 223 -15 220 -15 b 217 -16 214 -17 211 -16 b 208 -15 205 -15 202 -15 l 176 -15 b 175 -14 173 -14 172 -14 b 171 -14 169 -13 168 -12 b 162 -15 155 -16 147 -14 b 144 -12 141 -11 139 -12 b 132 -15 128 -15 121 -15 b 119 -15 118 -16 117 -18 b 113 -16 110 -15 107 -15 b 104 -16 101 -17 98 -16 b 95 -15 92 -15 89 -15 b 82 -16 76 -16 69 -15 b 62 -15 55 -16 48 -18 b 44 -19 40 -19 35 -18 l 22 -18 b 19 -18 17 -18 14 -17 b 11 -17 7 -19 4 -22 b 1 -27 -4 -33 3 -40 b 4 -40 4 -40 4 -41 b 4 -42 4 -43 3 -44 b 0 -48 -1 -52 0 -57 b 1 -62 1 -66 0 -70 b 2 -76 5 -80 10 -83 b 15 -86 19 -89 22 -92 b 28 -91 35 -90 44 -87 b 46 -86 48 -85 50 -85 b 52 -85 55 -86 58 -87 b 61 -88 64 -89 67 -88 b 70 -88 74 -88 77 -89 b 80 -92 84 -89 87 -88 b 90 -89 93 -89 98 -89 b 107 -91 116 -91 124 -89 l 132 -89 b 133 -91 134 -92 136 -92 b 139 -91 143 -91 147 -90 l 157 -87 l 173 -87 b 176 -88 180 -88 183 -88 b 186 -88 188 -88 191 -89 b 193 -90 196 -90 199 -88 b 200 -89 201 -89 202 -89 b 207 -92 211 -92 214 -91 l 227 -91 b 230 -91 234 -90 238 -89 b 242 -89 246 -89 250 -88 b 258 -88 268 -87 277 -87 l 291 -87 b 296 -88 300 -88 304 -87 b 308 -86 312 -87 316 -89 b 321 -93 325 -93 328 -89 b 333 -86 337 -86 342 -87 b 347 -89 351 -88 354 -85 b 359 -87 365 -87 370 -86 b 375 -85 379 -86 382 -87 b 387 -82 390 -80 394 -77 b 393 -72 393 -67 394 -62 b 395 -58 394 -54 392 -49 b 395 -43 395 -37 393 -32 z m 47 -44 l 47 -40 l 51 -44 z m 287 -45 b 286 -46 284 -47 279 -48 l 284 -43 b 285 -42 288 -41 293 -40 b 292 -41 291 -42 290 -42 l 288 -44 z m 114 -56 b 113 -56 113 -56 112 -57 b 111 -58 111 -58 110 -58 l 110 -54 b 110 -53 111 -51 113 -49 l 109 -49 b 107 -52 106 -54 106 -55 l 103 -55 b 102 -44 102 -45 113 -44 l 113 -49 l 114 -49 z m 78 -54 l 78 -45 b 80 -47 82 -48 83 -49 z m 225 -47 b 225 -48 225 -48 224 -49 l 223 -49 b 222 -50 221 -51 220 -54 l 216 -54 b 216 -46 218 -46 221 -49 b 222 -48 224 -47 227 -45 z m 337 -55 b 331 -54 328 -53 327 -52 b 326 -54 325 -56 324 -57 l 321 -60 b 318 -59 316 -57 316 -54 l 316 -48 b 319 -45 320 -48 317 -51 b 322 -50 325 -48 328 -46 b 330 -45 332 -46 334 -49 l 336 -47 b 337 -47 338 -46 339 -45 z m 349 -49 l 348 -49 l 348 -50 b 349 -51 349 -52 349 -52 b 348 -55 348 -57 348 -60 b 347 -61 346 -61 346 -61 l 346 -62 b 345 -60 345 -58 345 -56 l 345 -54 b 345 -53 346 -51 348 -48 l 349 -48 l 349 -47 b 349 -46 349 -46 350 -45 b 350 -47 350 -48 349 -49 z m 87 -55 b 87 -54 86 -52 85 -49 b 87 -46 89 -46 92 -47 b 91 -51 89 -55 88 -59 b 87 -58 87 -56 87 -55 z m 203 -56 b 202 -55 202 -52 202 -48 b 205 -45 206 -48 203 -51 l 205 -51 b 204 -52 203 -53 203 -56 z m 65 -58 b 64 -57 62 -55 60 -54 l 52 -51 b 54 -49 56 -48 58 -47 b 59 -48 60 -48 61 -48 b 62 -48 64 -48 65 -49 b 66 -48 66 -48 67 -48 b 68 -48 69 -48 70 -47 b 71 -48 72 -49 73 -50 l 76 -54 b 72 -55 68 -57 65 -58 z m 235 -49 l 234 -49 b 235 -49 235 -50 235 -52 b 234 -54 234 -56 234 -58 b 233 -58 232 -58 232 -57 b 232 -56 232 -56 231 -56 b 231 -55 232 -52 234 -49 l 235 -48 l 236 -47 b 236 -48 236 -48 235 -49 z m 177 -56 l 176 -56 b 177 -55 178 -52 181 -48 b 181 -53 180 -55 177 -56 z m 289 -58 b 290 -56 291 -54 292 -53 b 293 -52 294 -50 295 -48 b 294 -55 294 -55 289 -58 z m 188 -54 l 188 -55 b 187 -54 187 -53 187 -52 b 187 -51 187 -50 186 -49 l 187 -49 b 187 -50 187 -51 188 -51 z m 304 -59 b 303 -56 302 -54 302 -53 b 301 -52 301 -50 300 -49 l 304 -49 z m 280 -55 b 279 -54 279 -53 279 -51 l 283 -55 z m 32 -58 l 30 -58 l 30 -55 l 32 -55 z m 41 -55 b 42 -56 44 -56 45 -57 l 48 -60 b 43 -60 41 -58 41 -55 z m 159 -60 l 158 -60 b 157 -59 156 -58 155 -58 l 157 -56 b 158 -57 158 -58 159 -58 z m 361 -60 l 356 -60 l 356 -59 l 361 -59 z m 51 -63 l 50 -62 b 51 -62 51 -62 52 -63 z m 106 -65 l 105 -65 l 105 -62 l 106 -62 z m 312 -65 l 311 -65 l 311 -62 l 312 -62 z m 95 -69 l 94 -70 l 92 -65 l 95 -65 z"},"v":{"x_min":0,"x_max":252,"ha":252,"o":"m 235 677 l 232 686 b 229 688 227 690 225 693 l 218 700 b 213 699 207 699 202 698 b 196 697 190 697 185 696 b 176 688 168 679 171 666 l 174 660 b 175 658 175 656 174 655 b 173 652 172 650 173 648 b 173 645 172 643 171 642 b 170 639 169 637 169 635 b 169 633 169 631 168 628 l 165 615 b 164 613 164 611 164 609 b 164 607 163 605 162 602 b 161 600 160 597 160 594 b 160 591 162 588 165 586 b 163 584 162 583 162 582 b 162 578 162 574 161 570 b 160 566 161 562 162 558 b 163 556 164 554 163 553 b 162 550 161 545 162 541 b 162 538 162 536 161 534 b 160 530 158 526 157 523 b 156 519 155 515 156 511 b 157 506 156 502 155 499 b 153 495 152 491 152 486 b 153 475 152 468 149 457 b 148 454 148 452 147 450 b 146 448 145 445 145 442 b 146 440 146 438 145 436 b 144 433 143 431 143 428 b 143 425 143 422 144 420 b 145 417 145 414 146 411 l 146 408 b 143 403 141 399 142 394 b 143 391 143 388 142 386 l 139 377 b 138 364 134 352 130 339 b 129 339 128 338 128 337 l 121 337 b 120 341 118 344 117 346 l 117 368 b 117 371 116 375 115 378 b 114 381 113 385 113 389 b 113 404 111 420 110 436 l 110 439 b 106 450 103 461 104 473 b 105 481 103 489 100 496 b 99 500 98 503 98 507 b 97 513 97 519 98 525 l 98 543 b 98 546 98 549 97 551 b 96 558 95 563 95 566 l 97 580 b 98 583 98 586 97 589 b 92 601 90 613 91 624 b 92 632 90 639 87 647 b 86 651 85 655 85 658 l 85 676 l 84 677 b 83 677 83 677 82 678 b 77 691 68 697 55 697 b 54 697 52 698 50 699 b 48 700 46 700 45 700 b 43 700 41 700 40 699 b 38 698 36 697 34 697 b 26 697 19 694 14 689 b 14 688 14 686 15 685 b 15 683 15 681 14 680 b 9 672 11 666 14 658 b 17 649 19 639 20 630 b 21 625 21 621 21 617 b 20 608 21 598 23 590 b 24 585 24 581 24 576 b 24 569 25 562 27 555 b 28 548 28 541 27 534 b 29 531 30 528 30 525 b 29 522 29 519 30 516 b 31 508 33 501 36 494 b 35 491 33 482 34 477 b 35 474 35 471 36 468 l 39 446 b 42 430 44 417 44 408 b 43 399 44 388 45 380 b 45 375 45 371 46 366 b 47 362 47 358 47 355 b 46 347 47 340 50 336 b 51 334 52 332 52 330 b 53 323 54 317 56 311 b 57 304 57 297 56 290 b 55 285 55 280 56 276 b 56 271 56 266 56 261 l 56 257 b 55 255 56 253 57 252 b 59 249 60 245 60 241 b 59 237 60 233 62 230 b 65 225 64 220 60 215 b 58 212 58 209 59 207 b 67 194 66 180 65 167 b 65 159 66 152 69 145 l 75 121 b 76 118 75 114 74 110 b 71 103 71 95 74 86 b 75 80 77 74 78 67 b 81 54 82 42 82 31 b 82 25 84 19 87 13 b 88 11 90 9 93 7 b 95 5 97 3 99 0 b 103 5 109 6 112 3 b 115 1 117 0 119 1 b 121 1 123 1 125 0 b 134 -1 143 1 148 4 b 155 9 158 12 162 16 b 159 36 163 56 167 75 b 166 77 166 79 165 81 b 164 82 164 84 165 85 b 170 97 171 108 171 120 b 171 123 171 127 172 130 b 172 136 175 143 178 149 b 179 152 178 155 175 158 b 172 159 175 164 176 167 b 176 170 177 173 178 177 b 179 184 179 192 180 199 b 180 206 180 214 181 221 l 181 222 b 186 238 188 254 187 269 b 187 274 188 279 190 283 b 192 287 192 292 191 297 b 194 300 196 304 195 308 b 194 312 194 316 195 319 b 197 322 198 326 198 330 b 197 334 197 338 197 342 l 197 354 b 196 358 197 362 198 365 b 201 372 202 379 203 386 l 206 407 b 207 415 208 423 208 431 b 207 439 208 447 209 454 b 212 462 213 469 213 477 l 213 503 b 213 504 213 504 214 505 b 215 506 215 507 215 508 b 216 513 218 519 219 525 b 220 531 222 537 223 542 b 223 547 223 550 222 551 b 219 560 219 567 222 573 b 223 574 224 576 223 578 b 221 582 222 586 224 591 b 225 593 225 595 226 598 l 229 607 b 230 610 229 613 226 616 b 227 619 227 623 226 627 b 225 630 226 634 228 637 b 231 642 232 647 233 652 b 233 657 234 662 235 667 b 236 670 236 674 235 677 z m 47 642 l 49 642 l 49 636 l 47 636 z m 57 642 b 60 638 60 637 63 634 b 62 633 61 633 60 633 b 59 633 58 633 57 632 z m 56 620 b 56 620 57 620 58 620 l 58 615 l 54 619 b 55 619 55 619 56 620 z m 56 601 l 56 606 b 57 606 57 606 58 607 b 58 606 58 605 59 604 l 59 601 z m 59 593 l 62 593 l 62 592 l 59 592 z m 47 573 b 51 575 54 576 55 576 b 56 574 56 573 55 573 b 54 572 52 572 47 573 z m 54 560 b 53 562 53 564 53 565 b 53 566 53 567 52 568 l 64 568 b 60 565 57 563 54 560 z m 65 564 l 69 564 l 69 563 l 65 563 z m 71 549 l 71 543 l 69 543 l 69 549 z m 56 531 b 55 530 54 530 53 530 l 53 532 l 58 532 b 59 531 59 531 59 531 z m 65 502 l 65 503 l 72 503 l 72 502 z m 75 477 l 78 477 l 78 476 l 75 476 z m 71 466 l 71 462 l 70 462 l 70 466 z m 75 455 l 75 454 l 72 454 l 72 455 z m 74 420 b 75 421 77 423 78 426 l 78 414 b 76 415 73 415 70 415 b 71 417 73 419 74 420 z m 81 413 l 85 413 l 85 412 l 81 412 z m 75 399 b 79 402 81 403 84 406 b 84 405 84 404 85 403 l 85 399 z m 75 374 l 72 374 l 72 375 l 75 375 z m 89 363 b 90 362 91 361 91 360 b 90 360 89 361 88 362 b 89 362 89 362 89 363 z m 93 357 l 91 359 b 92 359 93 359 94 358 z m 91 353 l 94 353 l 94 347 l 92 347 l 92 350 b 91 351 91 352 91 353 z m 165 343 l 168 339 b 165 337 163 337 162 338 l 158 342 b 161 344 164 344 165 343 z m 101 343 l 104 343 l 104 342 l 101 342 z m 100 334 b 101 333 101 331 101 328 b 103 326 104 324 104 322 b 101 321 101 323 101 325 b 101 326 101 327 100 328 l 95 328 l 95 331 b 94 331 94 332 94 333 b 95 334 97 334 100 334 z m 157 334 l 161 334 b 162 333 162 333 162 332 l 156 329 l 152 333 b 153 333 155 333 157 334 z m 143 329 b 144 330 146 330 147 331 l 148 331 b 148 330 148 330 149 330 b 148 328 146 326 143 323 b 144 322 144 321 145 321 l 148 318 b 149 319 151 319 153 320 b 154 320 156 321 157 322 b 152 315 156 309 159 304 b 158 303 156 302 155 302 b 153 301 151 300 150 299 b 149 302 147 304 146 306 b 146 307 146 308 147 309 l 149 312 b 147 314 146 315 147 315 b 142 315 139 319 139 326 z m 166 325 b 165 325 165 326 165 327 b 168 327 169 327 170 328 b 171 327 171 326 171 325 z m 89 324 l 91 322 l 91 321 l 97 321 l 97 315 l 90 320 l 91 321 l 90 322 b 89 322 89 322 88 323 z m 90 310 l 89 311 l 103 311 b 104 312 104 314 104 315 b 104 316 104 318 105 319 b 109 316 112 314 117 314 b 117 312 117 310 116 309 b 111 308 106 308 101 308 l 85 305 b 85 306 85 306 84 307 z m 132 319 b 132 317 132 315 133 314 l 133 306 b 131 308 130 310 129 311 l 126 313 z m 120 317 l 123 317 l 123 316 l 120 316 z m 165 309 l 165 306 l 162 306 l 162 311 l 164 311 b 164 310 164 310 165 309 z m 93 273 l 96 267 b 98 267 100 268 101 269 b 102 270 104 273 107 280 b 106 283 104 285 102 288 b 100 290 98 292 97 295 b 102 299 106 302 109 305 b 112 302 115 299 119 296 b 122 301 124 306 125 309 b 126 308 127 306 128 304 b 129 302 130 300 131 299 b 131 299 130 297 129 293 l 125 293 b 124 292 122 292 120 292 b 121 290 123 287 124 283 b 125 285 128 286 131 286 b 134 285 134 287 133 292 l 151 292 b 152 293 152 294 153 294 l 154 295 b 155 295 155 295 155 294 b 154 294 153 293 152 292 l 152 293 b 149 289 148 286 147 284 l 144 287 b 143 288 141 289 140 290 l 140 282 b 139 279 139 277 139 274 l 141 274 b 142 275 143 276 144 279 l 149 279 b 148 278 147 276 145 274 b 146 273 148 271 150 270 l 155 265 b 154 262 154 260 153 258 b 152 256 152 254 151 251 b 147 249 143 251 139 256 l 142 268 b 131 268 130 267 126 258 b 125 253 122 250 117 251 b 119 256 121 260 124 265 b 121 266 120 267 117 270 l 99 260 b 96 262 94 264 92 266 b 89 267 86 270 83 273 z m 146 298 l 146 297 l 142 297 l 142 298 z m 96 280 l 92 276 b 91 279 90 283 91 286 b 92 289 92 292 93 295 b 94 292 94 290 95 288 b 95 286 95 283 96 280 z m 166 282 l 163 276 b 162 277 161 277 161 277 b 160 277 159 277 158 278 b 159 285 161 284 168 287 b 167 285 166 283 166 282 z m 155 282 l 155 281 l 152 281 l 152 282 z m 93 260 l 93 257 l 92 257 l 92 260 z m 150 171 b 149 170 148 169 148 168 l 145 165 l 143 165 b 142 166 141 168 140 170 l 136 174 l 130 174 b 129 171 128 170 127 171 b 126 171 124 171 123 170 b 122 167 120 165 118 162 l 111 152 b 112 157 112 162 113 166 b 113 169 113 173 114 177 b 111 178 109 178 108 179 b 106 180 104 180 101 181 l 101 187 b 100 189 100 191 100 193 l 109 202 b 108 202 105 206 105 210 b 104 212 104 215 103 218 l 97 224 l 104 226 l 104 234 b 102 233 100 232 98 231 l 90 226 b 92 229 94 232 95 235 l 98 241 b 95 242 93 243 94 244 b 95 245 95 247 94 248 b 98 251 103 254 108 258 b 109 255 110 252 111 250 l 114 241 l 107 241 l 110 237 b 110 235 111 233 112 231 l 115 238 b 116 237 118 235 121 234 l 130 222 l 133 228 b 134 230 134 232 131 235 b 130 236 129 238 130 241 l 130 247 b 127 248 126 249 127 249 b 127 250 127 250 128 250 l 130 248 l 130 247 l 136 247 b 135 244 133 242 132 241 b 134 239 136 236 139 232 b 139 224 139 225 130 222 b 129 219 127 218 125 219 b 123 220 121 220 120 219 l 117 209 b 120 210 122 211 127 214 l 123 206 l 123 200 l 117 200 l 117 209 b 114 207 113 205 113 203 b 113 201 114 199 115 196 l 118 190 b 119 191 121 191 122 192 b 123 192 125 193 127 194 b 126 192 125 191 125 190 b 124 189 124 187 123 186 l 130 186 l 130 196 b 131 193 132 192 132 191 b 132 190 131 189 130 187 b 131 183 133 182 134 183 l 138 186 b 139 185 140 184 143 183 b 144 184 146 185 147 186 l 150 184 b 150 183 151 183 152 182 b 151 181 149 180 147 179 b 145 178 143 176 142 175 b 145 174 147 173 150 171 z m 85 251 l 85 256 b 86 257 86 257 87 257 b 87 256 87 255 88 254 l 88 251 z m 151 229 b 151 228 151 227 152 226 b 151 225 150 225 150 224 l 147 222 l 143 226 b 144 229 145 229 146 232 l 143 236 b 142 237 140 239 139 240 l 143 243 b 144 243 146 243 147 244 b 148 245 150 245 151 246 b 152 246 154 246 156 247 b 153 240 152 236 149 231 b 150 230 150 229 151 229 z m 130 213 b 134 214 137 216 140 218 b 142 219 145 219 148 218 b 143 211 143 212 130 213 z m 138 202 b 135 201 135 200 132 199 b 130 201 128 203 126 204 b 127 205 129 206 131 207 b 133 208 135 209 136 210 l 151 195 b 148 194 143 192 138 189 b 137 190 136 191 136 192 b 137 193 140 194 144 197 b 141 199 139 201 138 202 z m 94 207 b 93 206 91 206 89 206 b 89 207 89 207 88 208 l 94 208 z m 138 159 l 138 157 b 138 157 139 155 140 151 l 137 153 b 136 154 135 154 134 154 l 128 151 b 126 154 126 156 127 157 l 130 160 l 131 161 b 134 163 136 164 137 164 b 138 164 138 164 139 163 l 138 162 b 138 161 138 161 137 160 b 137 159 137 159 138 159 z m 100 154 l 98 154 l 98 161 l 100 161 z m 123 159 b 124 160 124 160 125 160 l 125 159 z m 141 115 b 137 122 133 121 130 121 b 128 121 126 121 123 122 b 124 118 125 115 128 108 b 126 109 125 110 124 111 b 123 111 122 112 121 113 l 121 102 l 128 105 b 131 102 133 100 135 97 b 134 96 134 96 133 96 l 129 93 b 130 92 130 92 130 91 b 134 91 137 91 139 92 l 140 89 l 133 86 b 133 82 133 79 132 77 b 131 78 129 80 126 81 l 126 73 b 121 75 117 77 114 79 l 114 83 b 119 81 123 80 126 81 l 126 86 b 124 86 122 87 120 89 l 128 92 b 123 93 121 94 118 94 b 117 97 117 99 117 102 b 116 105 115 108 114 111 l 120 127 b 119 128 119 130 118 131 b 117 132 117 134 117 135 b 117 138 116 139 115 139 b 111 138 110 141 110 144 b 109 145 108 147 107 149 b 110 148 112 147 114 147 b 115 146 117 145 119 144 b 120 146 120 148 118 150 b 115 151 116 153 120 154 b 121 154 122 154 122 153 b 125 148 126 144 133 145 b 133 146 134 147 135 148 b 135 147 135 147 136 147 l 133 144 b 134 144 134 143 134 143 b 134 142 134 141 135 140 b 138 142 141 145 144 148 b 147 145 145 143 144 140 l 141 134 b 139 135 137 135 136 136 b 134 136 132 136 130 137 l 130 130 l 134 126 l 140 126 b 141 125 144 125 147 125 b 146 122 144 119 141 115 z m 133 144 l 133 145 z m 101 132 l 103 132 b 103 130 103 129 104 128 b 102 129 101 130 101 132 z m 106 106 l 101 111 l 103 113 b 103 114 104 115 105 116 b 103 118 102 120 101 121 l 104 124 b 111 119 110 115 110 111 b 108 109 107 107 106 106 z m 139 112 l 139 110 l 133 110 l 133 112 z m 103 97 l 102 97 l 102 103 l 103 103 z m 111 86 l 112 87 b 112 86 113 85 114 84 b 113 84 112 85 111 86 z m 134 72 b 135 75 137 77 138 79 b 139 71 139 71 134 72 z m 114 68 l 114 73 l 116 75 l 119 68 z m 129 63 b 128 62 127 60 127 59 b 126 58 126 55 126 51 b 124 52 122 52 120 52 l 123 58 l 118 58 b 119 61 121 63 124 64 b 126 65 129 67 132 70 b 131 67 130 64 129 63 z m 111 55 b 111 56 111 56 110 57 b 111 57 112 57 113 58 l 115 58 b 115 56 114 55 111 55 z m 133 43 l 130 43 l 130 44 l 133 44 z m 123 36 l 121 36 l 121 39 b 120 39 120 40 120 41 b 121 41 122 41 123 42 z"}}}
